<svg width="98" height="85" viewBox="0 0 98 85" fill="none" xmlns="http://www.w3.org/2000/svg">
<path d="M25.5272 36.8242H8.72656V40.1138H25.5272V36.8242Z" fill="#E0E0E0"/>
<path d="M22.8766 37.5078H21.9102V39.5069H22.8766V37.5078Z" fill="#FAFAFA"/>
<path d="M24.5406 37.5078H23.5742V39.5069H24.5406V37.5078Z" fill="#EBEBEB"/>
<path d="M10.9886 39.5086C11.5497 39.5086 12.0046 39.0441 12.0046 38.4711C12.0046 37.8981 11.5497 37.4336 10.9886 37.4336C10.4275 37.4336 9.97266 37.8981 9.97266 38.4711C9.97266 39.0441 10.4275 39.5086 10.9886 39.5086Z" fill="#F0F0F0"/>
<path d="M10.7361 38.4703C10.7361 38.5462 10.6865 38.5968 10.6122 38.5968C10.5378 38.5968 10.4883 38.5462 10.4883 38.4703C10.4883 38.3944 10.5378 38.3438 10.6122 38.3438C10.6865 38.3438 10.7361 38.3944 10.7361 38.4703Z" fill="#E0E0E0"/>
<path d="M11.4822 38.4703C11.4822 38.5462 11.4326 38.5968 11.3583 38.5968C11.2839 38.5968 11.2344 38.5462 11.2344 38.4703C11.2344 38.3944 11.2839 38.3438 11.3583 38.3438C11.4326 38.3438 11.4822 38.3944 11.4822 38.4703Z" fill="#E0E0E0"/>
<path d="M13.8792 39.5086C14.4404 39.5086 14.8952 39.0441 14.8952 38.4711C14.8952 37.8981 14.4404 37.4336 13.8792 37.4336C13.3181 37.4336 12.8633 37.8981 12.8633 38.4711C12.8633 39.0441 13.3181 39.5086 13.8792 39.5086Z" fill="#F0F0F0"/>
<path d="M13.654 38.4703C13.654 38.5462 13.6045 38.5968 13.5301 38.5968C13.4558 38.5968 13.4062 38.5462 13.4062 38.4703C13.4062 38.3944 13.4558 38.3438 13.5301 38.3438C13.5797 38.3438 13.654 38.3944 13.654 38.4703Z" fill="#E0E0E0"/>
<path d="M14.4001 38.4703C14.4001 38.5462 14.3506 38.5968 14.2762 38.5968C14.2019 38.5968 14.1523 38.5462 14.1523 38.4703C14.1523 38.3944 14.2019 38.3438 14.2762 38.3438C14.3258 38.3438 14.4001 38.3944 14.4001 38.4703Z" fill="#E0E0E0"/>
<path d="M16.9574 39.5086C17.5185 39.5086 17.9733 39.0441 17.9733 38.4711C17.9733 37.8981 17.5185 37.4336 16.9574 37.4336C16.3963 37.4336 15.9414 37.8981 15.9414 38.4711C15.9414 39.0441 16.3963 39.5086 16.9574 39.5086Z" fill="#F0F0F0"/>
<path d="M16.7048 38.4703C16.7048 38.5462 16.6553 38.5968 16.5809 38.5968C16.5066 38.5968 16.457 38.5462 16.457 38.4703C16.457 38.3944 16.5066 38.3438 16.5809 38.3438C16.6553 38.3438 16.7048 38.3944 16.7048 38.4703Z" fill="#E0E0E0"/>
<path d="M17.4509 38.4703C17.4509 38.5462 17.4014 38.5968 17.327 38.5968C17.2527 38.5968 17.2031 38.5462 17.2031 38.4703C17.2031 38.3944 17.2527 38.3438 17.327 38.3438C17.4014 38.3438 17.4509 38.3944 17.4509 38.4703Z" fill="#E0E0E0"/>
<path d="M88.172 1.77539H43.8438V43.1734H88.172V1.77539Z" fill="#E6E6E6"/>
<path d="M87.476 3.41992H45.2539V41.6296H87.476V3.41992Z" fill="#F0F0F0"/>
<path d="M59.0095 3.41992L51.4021 41.6296H47.5117L55.0943 3.41992H59.0095Z" fill="#FAFAFA"/>
<path d="M62.2282 3.41992L54.6208 41.6296H53.1836L60.791 3.41992H62.2282Z" fill="#FAFAFA"/>
<path d="M79.3031 13.4891L73.7028 41.6276H72.2656L79.3031 6.27734V13.4891Z" fill="#FAFAFA"/>
<path d="M74.9433 3.41992H78.8089L71.2511 41.6296H67.3359L74.9433 3.41992Z" fill="#FAFAFA"/>
<path d="M66.5146 1.77539H65.5234V43.1734H66.5146V1.77539Z" fill="#E6E6E6"/>
<path d="M81.4609 47.8877L81.4609 0.0117188L80.3706 0.0117187L80.3706 47.8877H81.4609Z" fill="#E0E0E0"/>
<path d="M79.5898 47.8975L79.5898 0.0214844L78.4995 0.0214844L78.4995 47.8975H79.5898Z" fill="#E0E0E0"/>
<path d="M77.7187 47.8877L77.7188 0.0117188L76.6284 0.0117187L76.6284 47.8877H77.7187Z" fill="#E0E0E0"/>
<path d="M75.8516 47.8955L75.8516 0.0195312L74.7613 0.0195312L74.7613 47.8955H75.8516Z" fill="#E0E0E0"/>
<path d="M73.9805 47.8818L73.9805 0.00585938L72.8902 0.00585937L72.8902 47.8818H73.9805Z" fill="#E0E0E0"/>
<path d="M83.332 47.876L83.332 0L82.2417 0L82.2417 47.876H83.332Z" fill="#E0E0E0"/>
<path d="M84.457 47.8897L84.457 0.0136719L83.3667 0.0136719L83.3667 47.8897H84.457Z" fill="#EBEBEB"/>
<path d="M85.5859 47.8779L85.5859 0.00195312L84.4956 0.00195312L84.4956 47.8779H85.5859Z" fill="#E0E0E0"/>
<path d="M86.7578 47.8896L86.7578 0.0136719L85.6675 0.0136719L85.6675 47.8896H86.7578Z" fill="#EBEBEB"/>
<path d="M90.1914 47.876L90.1914 0L89.1011 0L89.1011 47.876H90.1914Z" fill="#E0E0E0"/>
<path d="M89.6016 47.8936L89.6016 0.0175781L88.5113 0.0175781L88.5113 47.8936H89.6016Z" fill="#EBEBEB"/>
<path d="M89.0156 47.8877L89.0156 0.0117188L87.9253 0.0117187L87.9253 47.8877H89.0156Z" fill="#E0E0E0"/>
<path d="M88.4297 47.8779L88.4297 0.00195312L87.3394 0.00195312L87.3394 47.8779H88.4297Z" fill="#EBEBEB"/>
<path d="M87.8437 47.8955L87.8438 0.0195312L86.7534 0.0195312L86.7534 47.8955H87.8437Z" fill="#E0E0E0"/>
<path d="M49.9551 85.0001C76.4896 85.0001 98.0001 83.7199 98.0001 82.1406C98.0001 80.5614 76.4896 79.2812 49.9551 79.2812C23.4206 79.2812 1.91016 80.5614 1.91016 82.1406C1.91016 83.7199 23.4206 85.0001 49.9551 85.0001Z" fill="#F5F5F5"/>
<path d="M86.9297 44.0801V49.7736L88.689 48.8373C89.2838 48.5084 89.705 47.5974 89.7794 46.5093L89.8041 46.231C89.8785 45.0923 89.3829 44.0801 88.7386 44.0801H86.9297ZM88.8873 48.2047L87.3262 49.0397V44.8392H88.7634C89.1846 44.8392 89.5068 45.4971 89.4572 46.2563L89.4077 47.1419C89.3581 47.6227 89.1599 48.0529 88.8873 48.2047Z" fill="#263238"/>
<path opacity="0.4" d="M86.9297 44.0801V49.7736L88.689 48.8373C89.2838 48.5084 89.705 47.5974 89.7794 46.5093L89.8041 46.231C89.8785 45.0923 89.3829 44.0801 88.7386 44.0801H86.9297ZM88.8873 48.2047L87.3262 49.0397V44.8392H88.7634C89.1846 44.8392 89.5068 45.4971 89.4572 46.2563L89.4077 47.1419C89.3581 47.6227 89.1599 48.0529 88.8873 48.2047Z" fill="white"/>
<path d="M89.1045 51.6735H83.2812L84.0742 43.5508H88.039L89.1045 51.6735Z" fill="#263238"/>
<path opacity="0.6" d="M89.1045 51.6735H83.2812L84.0742 43.5508H88.039L89.1045 51.6735Z" fill="white"/>
<path d="M92.672 52.3789H75.0547V77.0254H92.672V52.3789Z" fill="#263238"/>
<path opacity="0.4" d="M92.672 52.3789H75.0547V77.0254H92.672V52.3789Z" fill="white"/>
<path d="M95.2489 55.1404H75.8228C75.4016 55.1404 75.0547 54.7861 75.0547 54.3559V54.1282C75.0547 53.698 75.4016 53.3438 75.8228 53.3438H95.2489C95.6702 53.3438 96.0171 53.698 96.0171 54.1282V54.3559C96.0171 54.7861 95.6702 55.1404 95.2489 55.1404Z" fill="#263238"/>
<path opacity="0.7" d="M95.2489 55.1404H75.8228C75.4016 55.1404 75.0547 54.7861 75.0547 54.3559V54.1282C75.0547 53.698 75.4016 53.3438 75.8228 53.3438H95.2489C95.6702 53.3438 96.0171 53.698 96.0171 54.1282V54.3559C96.0171 54.7861 95.6702 55.1404 95.2489 55.1404Z" fill="white"/>
<path d="M95.2067 57.8981H88.1693C87.7233 57.8981 87.3516 57.5185 87.3516 57.063V54.6085C87.3516 54.153 87.7233 53.7734 88.1693 53.7734H95.2067C95.6528 53.7734 96.0245 54.153 96.0245 54.6085V57.063C96.0245 57.5185 95.6528 57.8981 95.2067 57.8981Z" fill="#263238"/>
<path opacity="0.5" d="M95.2067 57.8981H88.1693C87.7233 57.8981 87.3516 57.5185 87.3516 57.063V54.6085C87.3516 54.153 87.7233 53.7734 88.1693 53.7734H95.2067C95.6528 53.7734 96.0245 54.153 96.0245 54.6085V57.063C96.0245 57.5185 95.6528 57.8981 95.2067 57.8981Z" fill="white"/>
<path d="M91.9534 53.1141H75.7733C75.3768 53.1141 75.0547 52.7852 75.0547 52.3803C75.0547 51.9754 75.3768 51.6465 75.7733 51.6465H91.9534C92.3499 51.6465 92.672 51.9754 92.672 52.3803C92.672 52.7852 92.3499 53.1141 91.9534 53.1141Z" fill="#263238"/>
<path opacity="0.5" d="M91.9534 53.1141H75.7733C75.3768 53.1141 75.0547 52.7852 75.0547 52.3803C75.0547 51.9754 75.3768 51.6465 75.7733 51.6465H91.9534C92.3499 51.6465 92.672 51.9754 92.672 52.3803C92.672 52.7852 92.3499 53.1141 91.9534 53.1141Z" fill="white"/>
<path d="M96.0205 69.5645H89.8008V77.0293H96.0205V69.5645Z" fill="#263238"/>
<path opacity="0.6" d="M96.0205 69.5645H89.8008V77.0293H96.0205V69.5645Z" fill="white"/>
<path d="M81.6562 51.6761H79.7729L79.2773 47.1719H82.0279L81.6562 51.6761Z" fill="#263238"/>
<path opacity="0.6" d="M81.6562 51.6761H79.7729L79.2773 47.1719H82.0279L81.6562 51.6761Z" fill="white"/>
<path d="M89.6995 63.2617H75.0547V77.0273H89.6995V63.2617Z" fill="#263238"/>
<path opacity="0.7" d="M89.6995 63.2617H75.0547V77.0273H89.6995V63.2617Z" fill="white"/>
<path d="M89.6995 59.1621H75.0547V63.0337H89.6995V59.1621Z" fill="#263238"/>
<path opacity="0.6" d="M89.6995 59.1621H75.0547V63.0337H89.6995V59.1621Z" fill="white"/>
<path d="M76.9909 67.5879H76.1484V72.5982H76.9909V67.5879Z" fill="#263238"/>
<path opacity="0.4" d="M76.9909 67.5879H76.1484V72.5982H76.9909V67.5879Z" fill="white"/>
<path d="M84.6924 59.6426H80.0586V60.6548H84.6924V59.6426Z" fill="#263238"/>
<path opacity="0.4" d="M84.6924 59.6426H80.0586V60.6548H84.6924V59.6426Z" fill="white"/>
<path d="M92.9219 54.5078H90.4688V55.1404H92.9219V54.5078Z" fill="#263238"/>
<path opacity="0.4" d="M92.9219 54.5078H90.4688V55.1404H92.9219V54.5078Z" fill="white"/>
<path d="M85.169 43.5508L84.2026 45.145L83.707 43.5508H85.169Z" fill="#263238"/>
<path opacity="0.4" d="M85.169 43.5508L84.2026 45.145L83.707 43.5508H85.169Z" fill="white"/>
<path d="M88.0182 43.55H84.0039V43.5247C84.103 42.7656 84.6977 42.1836 85.4411 42.1836H86.581C87.3244 42.1836 87.9439 42.7656 88.0182 43.55Z" fill="#263238"/>
<path opacity="0.5" d="M88.0182 43.55H84.0039V43.5247C84.103 42.7656 84.6977 42.1836 85.4411 42.1836H86.581C87.3244 42.1836 87.9439 42.7656 88.0182 43.55Z" fill="white"/>
<path d="M74.6953 80.3675C74.6953 81.076 75.2652 81.658 75.9591 81.658C76.6529 81.658 77.2228 81.076 77.2228 80.3675C77.2228 79.6589 76.6529 79.0769 75.9591 79.0769C75.29 79.0516 74.6953 79.6589 74.6953 80.3675Z" fill="#263238"/>
<path opacity="0.3" d="M75.4883 80.3674C75.4883 80.6458 75.7113 80.8735 75.9839 80.8735C76.2565 80.8735 76.4795 80.6458 76.4795 80.3674C76.4795 80.0891 76.2565 79.8613 75.9839 79.8613C75.7113 79.8613 75.4883 80.0891 75.4883 80.3674Z" fill="black"/>
<path d="M75.9747 80.3711L74.7109 79.8903C74.7109 79.8903 74.8844 79.0552 75.8012 78.9287C76.7181 78.8022 77.1394 79.536 77.1394 79.536L75.9747 80.3711Z" fill="#263238"/>
<path opacity="0.3" d="M75.9747 80.3711L74.7109 79.8903C74.7109 79.8903 74.8844 79.0552 75.8012 78.9287C76.7181 78.8022 77.1394 79.536 77.1394 79.536L75.9747 80.3711Z" fill="white"/>
<path d="M76.8923 77.0312H75.0586V78.9038H76.8923V77.0312Z" fill="#263238"/>
<path opacity="0.3" d="M76.8923 77.0312H75.0586V78.9038H76.8923V77.0312Z" fill="white"/>
<path d="M87.3945 80.3675C87.3945 81.076 87.9645 81.658 88.6583 81.658C89.3521 81.658 89.9221 81.076 89.9221 80.3675C89.9221 79.6589 89.3521 79.0769 88.6583 79.0769C87.9645 79.0516 87.3945 79.6589 87.3945 80.3675Z" fill="#263238"/>
<path opacity="0.3" d="M88.168 80.3674C88.168 80.6458 88.391 80.8735 88.6636 80.8735C88.9361 80.8735 89.1592 80.6458 89.1592 80.3674C89.1592 80.0891 88.9361 79.8613 88.6636 79.8613C88.391 79.8613 88.168 80.0891 88.168 80.3674Z" fill="black"/>
<path d="M88.6583 80.3711L87.3945 79.8903C87.3945 79.8903 87.568 79.0552 88.4848 78.9287C89.4017 78.8022 89.8229 79.536 89.8229 79.536L88.6583 80.3711Z" fill="#263238"/>
<path opacity="0.3" d="M88.6583 80.3711L87.3945 79.8903C87.3945 79.8903 87.568 79.0552 88.4848 78.9287C89.4017 78.8022 89.8229 79.536 89.8229 79.536L88.6583 80.3711Z" fill="white"/>
<path d="M89.6722 77.0312H87.8633V78.8785H89.6722V77.0312Z" fill="#263238"/>
<path opacity="0.3" d="M89.6722 77.0312H87.8633V78.8785H89.6722V77.0312Z" fill="white"/>
<path d="M93.8867 80.3694C93.8867 81.0779 94.4567 81.6599 95.1505 81.6599C95.8443 81.6599 96.4143 81.0779 96.4143 80.3694C96.4143 79.6609 95.8443 79.0789 95.1505 79.0789C94.4567 79.0536 93.8867 79.6609 93.8867 80.3694Z" fill="#263238"/>
<path opacity="0.3" d="M94.6602 80.3694C94.6602 80.6477 94.8832 80.8755 95.1558 80.8755C95.4283 80.8755 95.6513 80.6477 95.6513 80.3694C95.6513 80.091 95.4283 79.8633 95.1558 79.8633C94.8832 79.8633 94.6602 80.091 94.6602 80.3694Z" fill="black"/>
<path d="M95.17 80.373L93.9062 79.8922C93.9062 79.8922 94.0797 79.0572 94.9966 78.9307C95.9134 78.8042 96.3347 79.538 96.3347 79.538L95.17 80.373Z" fill="#263238"/>
<path opacity="0.3" d="M95.17 80.373L93.9062 79.8922C93.9062 79.8922 94.0797 79.0572 94.9966 78.9307C95.9134 78.8042 96.3347 79.538 96.3347 79.538L95.17 80.373Z" fill="white"/>
<path d="M95.9951 77.084H94.2109V78.9059H95.9951V77.084Z" fill="#263238"/>
<path opacity="0.3" d="M95.9951 77.084H94.2109V78.9059H95.9951V77.084Z" fill="white"/>
<path d="M39.397 42.8178H32.9048C32.087 42.8178 31.418 42.1345 31.418 41.2995V40.9199H40.859V41.2995C40.8838 42.1345 40.2148 42.8178 39.397 42.8178Z" fill="#0CBA9B"/>
<path opacity="0.3" d="M39.397 42.8178H32.9048C32.087 42.8178 31.418 42.1345 31.418 41.2995V40.9199H40.859V41.2995C40.8838 42.1345 40.2148 42.8178 39.397 42.8178Z" fill="white"/>
<path d="M37.9172 42.8164H34.3984V77.939H37.9172V42.8164Z" fill="#263238"/>
<path opacity="0.5" d="M37.9172 42.8164H34.3984V77.939H37.9172V42.8164Z" fill="white"/>
<path d="M44.5284 77.9141H27.7773V79.4576H44.5284V77.9141Z" fill="#263238"/>
<path opacity="0.3" d="M44.5284 77.9141H27.7773V79.4576H44.5284V77.9141Z" fill="white"/>
<path d="M44.5373 82.1645C45.2763 82.1645 45.8754 81.5527 45.8754 80.7981C45.8754 80.0434 45.2763 79.4316 44.5373 79.4316C43.7983 79.4316 43.1992 80.0434 43.1992 80.7981C43.1992 81.5527 43.7983 82.1645 44.5373 82.1645Z" fill="#263238"/>
<path opacity="0.3" d="M44.5323 81.4817C44.9018 81.4817 45.2014 81.1758 45.2014 80.7985C45.2014 80.4211 44.9018 80.1152 44.5323 80.1152C44.1628 80.1152 43.8633 80.4211 43.8633 80.7985C43.8633 81.1758 44.1628 81.4817 44.5323 81.4817Z" fill="black"/>
<path d="M43.1992 80.1402L43.8931 80.7982H44.5373V79.457H43.1992V80.1402Z" fill="#263238"/>
<path opacity="0.2" d="M43.1992 80.1402L43.8931 80.7982H44.5373V79.457H43.1992V80.1402Z" fill="white"/>
<path d="M27.7795 82.1645C28.5185 82.1645 29.1176 81.5527 29.1176 80.7981C29.1176 80.0434 28.5185 79.4316 27.7795 79.4316C27.0405 79.4316 26.4414 80.0434 26.4414 80.7981C26.4414 81.5527 27.0405 82.1645 27.7795 82.1645Z" fill="#263238"/>
<path opacity="0.3" d="M27.7745 81.4817C28.144 81.4817 28.4436 81.1758 28.4436 80.7985C28.4436 80.4211 28.144 80.1152 27.7745 80.1152C27.405 80.1152 27.1055 80.4211 27.1055 80.7985C27.1055 81.1758 27.405 81.4817 27.7745 81.4817Z" fill="black"/>
<path d="M29.1154 80.1402L28.4216 80.7982H27.7773V79.457H29.1154V80.1402Z" fill="#263238"/>
<path opacity="0.2" d="M29.1154 80.1402L28.4216 80.7982H27.7773V79.457H29.1154V80.1402Z" fill="white"/>
<path d="M31.7125 40.9182H40.6084C41.5748 40.9182 42.3678 40.1085 42.3678 39.1216V34.7693C42.3678 33.7824 41.5748 32.9727 40.6084 32.9727H31.7125C30.7461 32.9727 29.9531 33.7824 29.9531 34.7693V39.1216C29.9531 40.1085 30.7461 40.9182 31.7125 40.9182Z" fill="#0CBA9B"/>
<path opacity="0.5" d="M31.7125 40.9182H40.6084C41.5748 40.9182 42.3678 40.1085 42.3678 39.1216V34.7693C42.3678 33.7824 41.5748 32.9727 40.6084 32.9727H31.7125C30.7461 32.9727 29.9531 33.7824 29.9531 34.7693V39.1216C29.9531 40.1085 30.7461 40.9182 31.7125 40.9182Z" fill="white"/>
<path d="M38.6562 33.7051H31.4453V38.9684H38.6562V33.7051Z" fill="#E0E0E0"/>
<path d="M41.5036 40.058C41.8595 40.058 42.1479 39.7635 42.1479 39.4001C42.1479 39.0367 41.8595 38.7422 41.5036 38.7422C41.1478 38.7422 40.8594 39.0367 40.8594 39.4001C40.8594 39.7635 41.1478 40.058 41.5036 40.058Z" fill="#263238"/>
<path d="M41.6272 37.8832C41.9283 37.8832 42.1723 37.7812 42.1723 37.6555C42.1723 37.5297 41.9283 37.4277 41.6272 37.4277C41.3261 37.4277 41.082 37.5297 41.082 37.6555C41.082 37.7812 41.3261 37.8832 41.6272 37.8832Z" fill="#263238"/>
<path d="M41.6272 37.1996C41.9283 37.1996 42.1723 37.0977 42.1723 36.9719C42.1723 36.8461 41.9283 36.7441 41.6272 36.7441C41.3261 36.7441 41.082 36.8461 41.082 36.9719C41.082 37.0977 41.3261 37.1996 41.6272 37.1996Z" fill="#263238"/>
<path d="M41.6272 36.5414C41.9283 36.5414 42.1723 36.4395 42.1723 36.3137C42.1723 36.1879 41.9283 36.0859 41.6272 36.0859C41.3261 36.0859 41.082 36.1879 41.082 36.3137C41.082 36.4395 41.3261 36.5414 41.6272 36.5414Z" fill="#263238"/>
<path d="M41.6272 35.8832C41.9283 35.8832 42.1723 35.7813 42.1723 35.6555C42.1723 35.5297 41.9283 35.4277 41.6272 35.4277C41.3261 35.4277 41.082 35.5297 41.082 35.6555C41.082 35.7813 41.3261 35.8832 41.6272 35.8832Z" fill="#263238"/>
<path d="M41.6272 35.227C41.9283 35.227 42.1723 35.125 42.1723 34.9992C42.1723 34.8734 41.9283 34.7715 41.6272 34.7715C41.3261 34.7715 41.082 34.8734 41.082 34.9992C41.082 35.125 41.3261 35.227 41.6272 35.227Z" fill="#263238"/>
<path d="M41.6272 34.5414C41.9283 34.5414 42.1723 34.4395 42.1723 34.3137C42.1723 34.1879 41.9283 34.0859 41.6272 34.0859C41.3261 34.0859 41.082 34.1879 41.082 34.3137C41.082 34.4395 41.3261 34.5414 41.6272 34.5414Z" fill="#263238"/>
<path d="M39.8428 40.7174C39.9523 40.7174 40.041 40.6267 40.041 40.5149C40.041 40.4031 39.9523 40.3125 39.8428 40.3125C39.7333 40.3125 39.6445 40.4031 39.6445 40.5149C39.6445 40.6267 39.7333 40.7174 39.8428 40.7174Z" fill="#263238"/>
<path d="M38.9482 40.7174C39.0577 40.7174 39.1465 40.6267 39.1465 40.5149C39.1465 40.4031 39.0577 40.3125 38.9482 40.3125C38.8388 40.3125 38.75 40.4031 38.75 40.5149C38.75 40.6267 38.8388 40.7174 38.9482 40.7174Z" fill="#263238"/>
<path d="M38.7238 40.0822H31.389C30.5961 40.0822 29.9766 39.4242 29.9766 38.6398V34.1103C29.9766 33.3006 30.6208 32.668 31.389 32.668H38.7238C39.5167 32.668 40.1362 33.3259 40.1362 34.1103V38.6398C40.1362 39.4242 39.5167 40.0822 38.7238 40.0822Z" fill="#0CBA9B"/>
<path opacity="0.2" d="M38.7238 40.0822H31.389C30.5961 40.0822 29.9766 39.4242 29.9766 38.6398V34.1103C29.9766 33.3006 30.6208 32.668 31.389 32.668H38.7238C39.5167 32.668 40.1362 33.3259 40.1362 34.1103V38.6398C40.1362 39.4242 39.5167 40.0822 38.7238 40.0822Z" fill="white"/>
<path d="M39.1695 33.7832H30.9922V39.1224H39.1695V33.7832Z" fill="#263238"/>
<path opacity="0.7" d="M39.1695 33.7832H30.9922V39.1224H39.1695V33.7832Z" fill="white"/>
<path d="M33.4196 36.8215C33.37 36.7962 33.3204 36.7455 33.2957 36.6696C33.2709 36.5937 33.2461 36.5178 33.2461 36.4419C33.2461 36.3407 33.2709 36.2648 33.2957 36.2142C33.3204 36.1382 33.37 36.0876 33.4196 36.0623C33.4691 36.037 33.5435 36.0117 33.6178 36.0117C33.6921 36.0117 33.7417 36.037 33.816 36.0623C33.8656 36.0876 33.9151 36.1382 33.9399 36.2142C33.9647 36.2901 33.9895 36.366 33.9895 36.4419C33.9895 36.5431 33.9647 36.619 33.9399 36.6696C33.9151 36.7455 33.8656 36.7962 33.816 36.8215C33.7665 36.8468 33.6921 36.8721 33.6178 36.8721C33.5187 36.8721 33.4691 36.8721 33.4196 36.8215ZM33.6921 36.4419C33.6921 36.2901 33.6673 36.2395 33.593 36.2395C33.5434 36.2395 33.4939 36.3154 33.4939 36.4419C33.4939 36.5937 33.5187 36.6443 33.593 36.6443C33.6673 36.6696 33.6921 36.5937 33.6921 36.4419Z" fill="#0CBA9B"/>
<path d="M34.2125 36.8215C34.163 36.7962 34.1134 36.7455 34.0886 36.6696C34.0638 36.5937 34.0391 36.5178 34.0391 36.4419C34.0391 36.3407 34.0638 36.2648 34.0886 36.2142C34.1134 36.1382 34.163 36.0876 34.2125 36.0623C34.2621 36.037 34.3364 36.0117 34.4108 36.0117C34.4851 36.0117 34.5347 36.037 34.609 36.0623C34.6586 36.0876 34.7081 36.1382 34.7329 36.2142C34.7577 36.2901 34.7825 36.366 34.7825 36.4419C34.7825 36.5431 34.7577 36.619 34.7329 36.6696C34.7081 36.7455 34.6586 36.7962 34.609 36.8215C34.5594 36.8468 34.4851 36.8721 34.4108 36.8721C34.3364 36.8721 34.2621 36.8721 34.2125 36.8215ZM34.4851 36.4419C34.4851 36.2901 34.4603 36.2395 34.386 36.2395C34.3364 36.2395 34.2869 36.3154 34.2869 36.4419C34.2869 36.5937 34.3116 36.6443 34.386 36.6443C34.4603 36.6696 34.4851 36.5937 34.4851 36.4419Z" fill="#0CBA9B"/>
<path d="M33.4899 38.3879C33.4403 38.3626 33.3907 38.312 33.366 38.236C33.3412 38.1601 33.3164 38.0842 33.3164 38.0083C33.3164 37.9071 33.3412 37.8312 33.366 37.7806C33.3907 37.7046 33.4403 37.654 33.4899 37.6287C33.5394 37.6034 33.6138 37.5781 33.6881 37.5781C33.7624 37.5781 33.812 37.6034 33.8863 37.6287C33.9359 37.654 33.9855 37.7046 34.0102 37.7806C34.035 37.8565 34.0598 37.9324 34.0598 38.0083C34.0598 38.1095 34.035 38.1854 34.0102 38.236C33.9855 38.312 33.9359 38.3626 33.8863 38.3879C33.8368 38.4132 33.7624 38.4385 33.6881 38.4385C33.6138 38.4385 33.5642 38.4132 33.4899 38.3879ZM33.7872 38.0083C33.7872 37.8565 33.7624 37.8059 33.6881 37.8059C33.6385 37.8059 33.589 37.8818 33.589 38.0083C33.589 38.1601 33.6138 38.2107 33.6881 38.2107C33.7624 38.2107 33.7872 38.1348 33.7872 38.0083Z" fill="#0CBA9B"/>
<path d="M34.3063 38.3879C34.2567 38.3626 34.2072 38.312 34.1824 38.236C34.1576 38.1601 34.1328 38.0842 34.1328 38.0083C34.1328 37.9071 34.1576 37.8312 34.1824 37.7806C34.2072 37.7046 34.2567 37.654 34.3063 37.6287C34.3558 37.6034 34.4302 37.5781 34.5045 37.5781C34.5788 37.5781 34.6284 37.6034 34.7027 37.6287C34.7523 37.654 34.8019 37.7046 34.8266 37.7806C34.8514 37.8565 34.8762 37.9324 34.8762 38.0083C34.8762 38.1095 34.8514 38.1854 34.8266 38.236C34.8019 38.312 34.7523 38.3626 34.7027 38.3879C34.6532 38.4132 34.5788 38.4385 34.5045 38.4385C34.4302 38.4385 34.3558 38.4132 34.3063 38.3879ZM34.5788 38.0083C34.5788 37.8565 34.5541 37.8059 34.4797 37.8059C34.4302 37.8059 34.3806 37.8818 34.3806 38.0083C34.3806 38.1601 34.4054 38.2107 34.4797 38.2107C34.5541 38.2107 34.5788 38.1348 34.5788 38.0083Z" fill="#0CBA9B"/>
<path d="M35.525 38.3879C35.4755 38.3626 35.4259 38.312 35.4011 38.236C35.3763 38.1601 35.3516 38.0842 35.3516 38.0083C35.3516 37.9071 35.3763 37.8312 35.4011 37.7806C35.4259 37.7046 35.4755 37.654 35.525 37.6287C35.5746 37.6034 35.6489 37.5781 35.7233 37.5781C35.7976 37.5781 35.8472 37.6034 35.9215 37.6287C35.9711 37.654 36.0206 37.7046 36.0454 37.7806C36.0702 37.8565 36.095 37.9324 36.095 38.0083C36.095 38.1095 36.0702 38.1854 36.0454 38.236C36.0206 38.312 35.9711 38.3626 35.9215 38.3879C35.8719 38.4132 35.7976 38.4385 35.7233 38.4385C35.6489 38.4385 35.5994 38.4132 35.525 38.3879ZM35.8224 38.0083C35.8224 37.8565 35.7976 37.8059 35.7233 37.8059C35.6737 37.8059 35.6241 37.8818 35.6241 38.0083C35.6241 38.1601 35.6489 38.2107 35.7233 38.2107C35.7976 38.2107 35.8224 38.1348 35.8224 38.0083Z" fill="#0CBA9B"/>
<path d="M36.3414 38.3879C36.2919 38.3626 36.2423 38.312 36.2175 38.236C36.1928 38.1601 36.168 38.0842 36.168 38.0083C36.168 37.9071 36.1928 37.8312 36.2175 37.7806C36.2423 37.7046 36.2919 37.654 36.3414 37.6287C36.391 37.6034 36.4653 37.5781 36.5397 37.5781C36.614 37.5781 36.6636 37.6034 36.7379 37.6287C36.7875 37.654 36.837 37.7046 36.8618 37.7806C36.8866 37.8565 36.9114 37.9324 36.9114 38.0083C36.9114 38.1095 36.8866 38.1854 36.8618 38.236C36.837 38.312 36.7875 38.3626 36.7379 38.3879C36.6883 38.4132 36.614 38.4385 36.5397 38.4385C36.4405 38.4385 36.391 38.4132 36.3414 38.3879ZM36.614 38.0083C36.614 37.8565 36.5892 37.8059 36.5149 37.8059C36.4405 37.8059 36.4158 37.8818 36.4158 38.0083C36.4158 38.1601 36.4405 38.2107 36.5149 38.2107C36.5892 38.2107 36.614 38.1348 36.614 38.0083Z" fill="#0CBA9B"/>
<path d="M35.6774 36.8215C35.6278 36.7962 35.5782 36.7455 35.5535 36.6696C35.5287 36.5937 35.5039 36.5178 35.5039 36.4419C35.5039 36.3407 35.5287 36.2648 35.5535 36.2142C35.5782 36.1382 35.6278 36.0876 35.6774 36.0623C35.7269 36.037 35.8013 36.0117 35.8756 36.0117C35.9499 36.0117 35.9995 36.037 36.0738 36.0623C36.1234 36.0876 36.173 36.1382 36.1977 36.2142C36.2225 36.2901 36.2473 36.366 36.2473 36.4419C36.2473 36.5431 36.2225 36.619 36.1977 36.6696C36.173 36.7455 36.1234 36.7962 36.0738 36.8215C36.0243 36.8468 35.9499 36.8721 35.8756 36.8721C35.8013 36.8721 35.7269 36.8721 35.6774 36.8215ZM35.9499 36.4419C35.9499 36.2901 35.9252 36.2395 35.8508 36.2395C35.7765 36.2395 35.7517 36.3154 35.7517 36.4419C35.7517 36.5937 35.7765 36.6443 35.8508 36.6443C35.9252 36.6443 35.9499 36.5937 35.9499 36.4419Z" fill="#0CBA9B"/>
<path d="M36.4703 36.8215C36.4208 36.7962 36.3712 36.7455 36.3464 36.6696C36.3217 36.5937 36.2969 36.5178 36.2969 36.4419C36.2969 36.3407 36.3217 36.2648 36.3464 36.2142C36.3712 36.1382 36.4208 36.0876 36.4703 36.0623C36.5199 36.037 36.5942 36.0117 36.6686 36.0117C36.7429 36.0117 36.7925 36.037 36.8668 36.0623C36.9164 36.0876 36.9659 36.1382 36.9907 36.2142C37.0155 36.2901 37.0403 36.366 37.0403 36.4419C37.0403 36.5431 37.0155 36.619 36.9907 36.6696C36.9659 36.7455 36.9164 36.7962 36.8668 36.8215C36.8172 36.8468 36.7429 36.8721 36.6686 36.8721C36.5942 36.8721 36.5199 36.8721 36.4703 36.8215ZM36.7677 36.4419C36.7677 36.2901 36.7429 36.2395 36.6686 36.2395C36.619 36.2395 36.5695 36.3154 36.5695 36.4419C36.5695 36.5937 36.5942 36.6443 36.6686 36.6443C36.7181 36.6696 36.7677 36.5937 36.7677 36.4419Z" fill="#0CBA9B"/>
<path d="M35.1592 37.7285H35.2831L35.0848 38.2852H34.9609L35.1592 37.7285Z" fill="#0CBA9B"/>
<path d="M35.7507 34.8223H31.2656V34.8719H35.7507V34.8223Z" fill="#0CBA9B"/>
<path d="M36.0717 35.3524V34.4414H36.0469V35.3524V35.403H36.0717H38.7974V35.3524H36.0717Z" fill="#0CBA9B"/>
<path d="M36.8979 31.5821H33.7756C33.4783 31.5821 33.2305 31.3291 33.2305 31.0254C33.2305 30.7218 33.4783 30.4688 33.7756 30.4688H36.8979C37.1952 30.4688 37.443 30.7218 37.443 31.0254C37.4678 31.3038 37.22 31.5821 36.8979 31.5821Z" fill="#0CBA9B"/>
<path opacity="0.1" d="M36.8979 31.5821H33.7756C33.4783 31.5821 33.2305 31.3291 33.2305 31.0254C33.2305 30.7218 33.4783 30.4688 33.7756 30.4688H36.8979C37.1952 30.4688 37.443 30.7218 37.443 31.0254C37.4678 31.3038 37.22 31.5821 36.8979 31.5821Z" fill="white"/>
<path d="M33.2234 30.6934V32.6165H32.7773V31.1235C32.7773 30.8958 32.9756 30.6934 33.2234 30.6934Z" fill="#263238"/>
<path opacity="0.3" d="M33.2234 30.6934V32.6165H32.7773V31.1235C32.7773 30.8958 32.9756 30.6934 33.2234 30.6934Z" fill="white"/>
<path d="M37.4688 30.6934V32.6165H37.9148V31.1235C37.9148 30.8958 37.7165 30.6934 37.4688 30.6934Z" fill="#263238"/>
<path opacity="0.3" d="M37.4688 30.6934V32.6165H37.9148V31.1235C37.9148 30.8958 37.7165 30.6934 37.4688 30.6934Z" fill="white"/>
<path d="M36.1581 58.5332H10.7852V61.8734H36.1581V58.5332Z" fill="#263238"/>
<path opacity="0.2" d="M36.1581 58.5332H10.7852V61.8734H36.1581V58.5332Z" fill="white"/>
<path d="M7.9577 82.0448C9.51784 82.0448 10.7826 80.7533 10.7826 79.1601C10.7826 77.5669 9.51784 76.2754 7.9577 76.2754C6.39756 76.2754 5.13281 77.5669 5.13281 79.1601C5.13281 80.7533 6.39756 82.0448 7.9577 82.0448Z" fill="#263238"/>
<path opacity="0.2" d="M9.27118 79.1595C9.27118 79.8933 8.67647 80.5006 7.95786 80.5006C7.23924 80.5006 6.64453 79.8933 6.64453 79.1595C6.64453 78.4257 7.23924 77.8184 7.95786 77.8184C8.70125 77.8184 9.27118 78.4257 9.27118 79.1595Z" fill="black"/>
<path d="M70.0325 61.2414L8.04688 71.1211L8.31815 72.8961L70.3038 63.0164L70.0325 61.2414Z" fill="#263238"/>
<path opacity="0.3" d="M70.0325 61.2414L8.04688 71.1211L8.31815 72.8961L70.3038 63.0164L70.0325 61.2414Z" fill="white"/>
<path d="M8.06126 63.0031L70.0469 72.8828L70.3182 71.1078L8.33254 61.228L8.06126 63.0031Z" fill="#263238"/>
<path opacity="0.2" d="M8.06126 63.0031L70.0469 72.8828L70.3182 71.1078L8.33254 61.228L8.06126 63.0031Z" fill="white"/>
<path d="M29.788 52.5864L9.32122 45.5518C8.85044 45.3999 8.35487 45.653 8.18143 46.1338L6.99207 49.7523C6.79384 50.3596 7.11596 51.0428 7.71064 51.2453L28.1031 58.5076H70.0774C70.573 58.5076 70.9694 58.1028 70.9694 57.5967V53.3455C70.9694 52.9407 70.6473 52.6117 70.2509 52.6117H29.788V52.5864Z" fill="#263238"/>
<path d="M5.18342 61.8705H3.82053C3.30016 61.8705 2.87891 61.4403 2.87891 60.9089V47.7506C2.87891 47.2192 3.30016 46.7891 3.82053 46.7891H4.21701C4.68782 46.7891 5.10908 47.1433 5.15864 47.6241L6.10027 55.0383C6.10027 55.0889 6.10027 55.1142 6.10027 55.1648V60.8836C6.12505 61.4403 5.70379 61.8705 5.18342 61.8705Z" fill="#0CBA9B"/>
<path opacity="0.5" d="M5.18342 61.8705H3.82053C3.30016 61.8705 2.87891 61.4403 2.87891 60.9089V47.7506C2.87891 47.2192 3.30016 46.7891 3.82053 46.7891H4.21701C4.68782 46.7891 5.10908 47.1433 5.15864 47.6241L6.10027 55.0383C6.10027 55.0889 6.10027 55.1142 6.10027 55.1648V60.8836C6.12505 61.4403 5.70379 61.8705 5.18342 61.8705Z" fill="white"/>
<path d="M72.039 60.8607H73.4019C73.9222 60.8607 74.3435 60.4306 74.3435 59.8992V46.7409C74.3435 46.2095 73.9222 45.7793 73.4019 45.7793H73.0054C72.5346 45.7793 72.1133 46.1336 72.0638 46.6143L71.1221 54.0285C71.1221 54.0791 71.1221 54.1045 71.1221 54.1551V59.8739C71.0974 60.4306 71.5186 60.8607 72.039 60.8607Z" fill="#0CBA9B"/>
<path opacity="0.5" d="M72.039 60.8607H73.4019C73.9222 60.8607 74.3435 60.4306 74.3435 59.8992V46.7409C74.3435 46.2095 73.9222 45.7793 73.4019 45.7793H73.0054C72.5346 45.7793 72.1133 46.1336 72.0638 46.6143L71.1221 54.0285C71.1221 54.0791 71.1221 54.1045 71.1221 54.1551V59.8739C71.0974 60.4306 71.5186 60.8607 72.039 60.8607Z" fill="white"/>
<path d="M31.5018 58.5332H6.12891V61.8734H31.5018V58.5332Z" fill="#0CBA9B"/>
<path opacity="0.4" d="M31.5018 58.5332H6.12891V61.8734H31.5018V58.5332Z" fill="white"/>
<path d="M71.0937 58.5332H31.8945V61.8734H71.0937V58.5332Z" fill="#0CBA9B"/>
<path opacity="0.4" d="M71.0937 58.5332H31.8945V61.8734H71.0937V58.5332Z" fill="white"/>
<path d="M70.9957 72.25H7.76172V75.6155H70.9957V72.25Z" fill="#0CBA9B"/>
<path opacity="0.4" d="M70.9957 72.25H7.76172V75.6155H70.9957V72.25Z" fill="white"/>
<path d="M2.75237 41.3526L0.175438 48.4884C-0.369683 50.032 0.398443 51.7274 1.88514 52.2841L27.1589 61.8238C28.3483 62.2793 35.5835 58.5849 33.5517 56.2316C31.5199 53.8782 25.92 46.9195 21.8068 45.376L6.49389 39.5812C4.98241 39.0245 3.29749 39.809 2.75237 41.3526ZM21.336 48.7161C21.5838 48.0076 22.3767 47.6787 23.0457 47.9823C25.0776 48.9186 26.9359 50.5381 28.6704 52.613C29.5129 53.6252 28.4722 55.1435 27.258 54.688L21.3608 52.4612C20.6918 52.2082 20.3697 51.449 20.6175 50.7911L21.336 48.7161ZM4.48685 42.7696C4.78419 41.9599 5.65143 41.555 6.44433 41.8586L15.637 45.3254C16.2565 45.5531 16.6777 46.1857 16.6282 46.8689L16.5538 48.286C16.5043 49.3234 15.4636 50.032 14.4973 49.6524L4.93286 46.0339C4.13996 45.7302 3.7435 44.8446 4.04084 44.0348L4.48685 42.7696Z" fill="#0CBA9B"/>
<path opacity="0.7" d="M2.75237 41.3526L0.175438 48.4884C-0.369683 50.032 0.398443 51.7274 1.88514 52.2841L27.1589 61.8238C28.3483 62.2793 35.5835 58.5849 33.5517 56.2316C31.5199 53.8782 25.92 46.9195 21.8068 45.376L6.49389 39.5812C4.98241 39.0245 3.29749 39.809 2.75237 41.3526ZM21.336 48.7161C21.5838 48.0076 22.3767 47.6787 23.0457 47.9823C25.0776 48.9186 26.9359 50.5381 28.6704 52.613C29.5129 53.6252 28.4722 55.1435 27.258 54.688L21.3608 52.4612C20.6918 52.2082 20.3697 51.449 20.6175 50.7911L21.336 48.7161ZM4.48685 42.7696C4.78419 41.9599 5.65143 41.555 6.44433 41.8586L15.637 45.3254C16.2565 45.5531 16.6777 46.1857 16.6282 46.8689L16.5538 48.286C16.5043 49.3234 15.4636 50.032 14.4973 49.6524L4.93286 46.0339C4.13996 45.7302 3.7435 44.8446 4.04084 44.0348L4.48685 42.7696Z" fill="white"/>
<path d="M9.47286 70.0977H8.82859C8.23388 70.0977 7.73828 70.5784 7.73828 71.211V72.2738H10.5632V71.211C10.5632 70.5784 10.0676 70.0977 9.47286 70.0977Z" fill="#263238"/>
<path opacity="0.1" d="M9.47286 70.0977H8.82859C8.23388 70.0977 7.73828 70.5784 7.73828 71.211V72.2738H10.5632V71.211C10.5632 70.5784 10.0676 70.0977 9.47286 70.0977Z" fill="white"/>
<path d="M8.85203 64.0219H9.4963C10.091 64.0219 10.5866 63.5411 10.5866 62.9085V61.8457H7.76172V62.9085C7.76172 63.5411 8.25731 64.0219 8.85203 64.0219Z" fill="#263238"/>
<path opacity="0.1" d="M8.85203 64.0219H9.4963C10.091 64.0219 10.5866 63.5411 10.5866 62.9085V61.8457H7.76172V62.9085C7.76172 63.5411 8.25731 64.0219 8.85203 64.0219Z" fill="white"/>
<path d="M69.3833 64.0219H70.0275C70.6223 64.0219 71.1179 63.5411 71.1179 62.9085V61.8457H68.293V62.9085C68.293 63.5411 68.7886 64.0219 69.3833 64.0219Z" fill="#263238"/>
<path opacity="0.1" d="M69.3833 64.0219H70.0275C70.6223 64.0219 71.1179 63.5411 71.1179 62.9085V61.8457H68.293V62.9085C68.293 63.5411 68.7886 64.0219 69.3833 64.0219Z" fill="white"/>
<path d="M70.0275 70.0977H69.3833C68.7886 70.0977 68.293 70.5784 68.293 71.211V72.2738H71.0931V71.211C71.0931 70.5784 70.6223 70.0977 70.0275 70.0977Z" fill="#263238"/>
<path opacity="0.1" d="M70.0275 70.0977H69.3833C68.7886 70.0977 68.293 70.5784 68.293 71.211V72.2738H71.0931V71.211C71.0931 70.5784 70.6223 70.0977 70.0275 70.0977Z" fill="white"/>
<path d="M39.9771 69.0243C41.0392 68.575 41.5436 67.3316 41.1036 66.247C40.6637 65.1624 39.4461 64.6474 38.384 65.0967C37.3219 65.5459 36.8176 66.7894 37.2575 67.874C37.6974 68.9586 38.915 69.4736 39.9771 69.0243Z" fill="#263238"/>
<path opacity="0.1" d="M39.9771 69.0243C41.0392 68.575 41.5436 67.3316 41.1036 66.247C40.6637 65.1624 39.4461 64.6474 38.384 65.0967C37.3219 65.5459 36.8176 66.7894 37.2575 67.874C37.6974 68.9586 38.915 69.4736 39.9771 69.0243Z" fill="white"/>
<path d="M67.5586 58.7363H51.2297C46.844 58.7363 39.2123 63.2658 36.5115 64.7588C33.8106 66.2517 39.3362 72.2742 40.6247 72.2742H67.5586C69.1692 72.2742 70.4576 70.9584 70.4576 69.3136V61.6969C70.4576 60.0522 69.1692 58.7363 67.5586 58.7363ZM50.5112 64.1768C50.5112 64.8853 49.9413 65.4926 49.2227 65.4926H42.929C41.6158 65.4926 41.145 63.696 42.3096 63.0634C44.6387 61.7223 46.9183 60.8619 49.1484 60.7101C49.8917 60.6595 50.5112 61.2668 50.5112 62.0006V64.1768ZM68.3267 63.7719C68.3267 64.6323 67.6329 65.3408 66.7905 65.3408H56.5818C55.5659 65.3408 54.8226 64.3286 55.1199 63.3164L55.5411 61.95C55.7394 61.2921 56.334 60.8619 57.0031 60.8619H66.8152C67.6577 60.8619 68.3515 61.5704 68.3515 62.4308V63.7719H68.3267Z" fill="#0CBA9B"/>
<path opacity="0.7" d="M67.5586 58.7363H51.2297C46.844 58.7363 39.2123 63.2658 36.5115 64.7588C33.8106 66.2517 39.3362 72.2742 40.6247 72.2742H67.5586C69.1692 72.2742 70.4576 70.9584 70.4576 69.3136V61.6969C70.4576 60.0522 69.1692 58.7363 67.5586 58.7363ZM50.5112 64.1768C50.5112 64.8853 49.9413 65.4926 49.2227 65.4926H42.929C41.6158 65.4926 41.145 63.696 42.3096 63.0634C44.6387 61.7223 46.9183 60.8619 49.1484 60.7101C49.8917 60.6595 50.5112 61.2668 50.5112 62.0006V64.1768ZM68.3267 63.7719C68.3267 64.6323 67.6329 65.3408 66.7905 65.3408H56.5818C55.5659 65.3408 54.8226 64.3286 55.1199 63.3164L55.5411 61.95C55.7394 61.2921 56.334 60.8619 57.0031 60.8619H66.8152C67.6577 60.8619 68.3515 61.5704 68.3515 62.4308V63.7719H68.3267Z" fill="white"/>
<path d="M62.1971 58.1758H54.6641V58.8843H62.1971V58.1758Z" fill="#263238"/>
<path opacity="0.2" d="M62.1971 58.1758H54.6641V58.8843H62.1971V58.1758Z" fill="white"/>
<path d="M16.5803 57.4469L9.52344 54.7559L9.28075 55.4196L16.3376 58.1106L16.5803 57.4469Z" fill="#263238"/>
<path opacity="0.2" d="M16.5803 57.4469L9.52344 54.7559L9.28075 55.4196L16.3376 58.1106L16.5803 57.4469Z" fill="white"/>
<path d="M10.7848 76.6294L8.72813 79.5395H7.76172V75.6426H10.7848V76.6294Z" fill="#263238"/>
<path opacity="0.1" d="M10.7848 76.6294L8.72813 79.5395H7.76172V75.6426H10.7848V76.6294Z" fill="white"/>
<path d="M70.7936 82.0448C72.3538 82.0448 73.6185 80.7533 73.6185 79.1601C73.6185 77.5669 72.3538 76.2754 70.7936 76.2754C69.2335 76.2754 67.9688 77.5669 67.9688 79.1601C67.9688 80.7533 69.2335 82.0448 70.7936 82.0448Z" fill="#263238"/>
<path opacity="0.2" d="M69.4805 79.1595C69.4805 79.8933 70.0752 80.5006 70.7938 80.5006C71.5124 80.5006 72.1071 79.8933 72.1071 79.1595C72.1071 78.4257 71.5124 77.8184 70.7938 77.8184C70.0752 77.8184 69.4805 78.4257 69.4805 79.1595Z" fill="black"/>
<path d="M67.9688 76.6294L70.0255 79.5395H70.9919V75.6426H67.9688V76.6294Z" fill="#263238"/>
<path opacity="0.1" d="M67.9688 76.6294L70.0255 79.5395H70.9919V75.6426H67.9688V76.6294Z" fill="white"/>
<path d="M55.4659 28.0625C55.4907 28.1637 55.5402 28.2902 55.5898 28.4168L55.7137 28.7963C55.8128 29.0494 55.9119 29.3024 56.011 29.5555C56.2093 30.0362 56.4571 30.517 56.7049 30.9725C57.2253 31.8835 57.82 32.6932 58.5634 33.2246L58.6873 33.3258C58.6873 33.3258 58.6872 33.3511 58.712 33.3511C58.7616 33.3511 58.935 33.3258 59.1085 33.2499C59.4802 33.0728 59.8767 32.7438 60.2732 32.3896C60.6696 32.0353 61.0413 31.6304 61.413 31.2002C61.7847 30.7954 62.1316 30.3399 62.4785 29.9097L63.4697 30.517C62.9494 31.6304 62.3546 32.6426 61.5617 33.6295C61.1652 34.1103 60.7192 34.591 60.0997 34.9959C59.7776 35.1983 59.4059 35.3755 58.8855 35.4514C58.6377 35.4767 58.3403 35.4514 58.0678 35.3755C57.9191 35.3249 57.7952 35.2743 57.6713 35.2236C57.5722 35.173 57.5226 35.1224 57.4235 35.0971C56.8288 34.7429 56.3084 34.2874 55.8624 33.7813C55.4163 33.3005 55.0446 32.7691 54.7225 32.2124C54.4004 31.681 54.103 31.099 53.8552 30.5423C53.7313 30.264 53.6074 29.9603 53.5083 29.6567C53.4587 29.5048 53.4092 29.353 53.3596 29.2012C53.3101 29.0494 53.2605 28.8975 53.2109 28.7204L55.4659 28.0625Z" fill="#CE7A63"/>
<path d="M57.8997 31.7074L55.4713 33.5546C55.4713 33.5546 55.3722 33.4534 55.2235 33.2763C55.0996 33.1498 54.9757 32.9726 54.8022 32.7702C53.8606 31.6062 52.4729 29.4553 52.4729 28.4178C52.4482 26.849 54.0341 26.6212 55.8182 28.2154C56.5864 28.8986 56.9828 30.0373 57.3793 30.7458C57.5032 30.9736 57.6271 31.176 57.7015 31.3531C57.8254 31.5809 57.8997 31.7074 57.8997 31.7074Z" fill="#0CBA9B"/>
<path opacity="0.2" d="M52.4453 28.5952C52.9905 28.2156 53.3869 29.1772 54.4773 29.9869C54.9481 30.3412 56.0136 32.6945 55.9393 33.2259L55.4684 33.5801C55.4684 33.5548 52.4453 30.1387 52.4453 28.5952Z" fill="black"/>
<path d="M62.3281 30.1641L62.8485 28.4434L64.2114 29.4808C64.2114 29.4808 63.468 31.0244 62.9476 30.8726L62.3281 30.1641Z" fill="#CE7A63"/>
<path d="M64.2888 27.7832L65.057 28.7448L64.2144 29.4533L62.8516 28.4411L64.2888 27.7832Z" fill="#CE7A63"/>
<path d="M60.3695 34.9711C60.3695 34.9711 60.7908 34.5156 60.5182 32.8961C60.2456 31.2766 60.0474 29.2017 60.4191 28.9992C60.766 28.7968 63.7396 27.0508 63.7396 27.0508L63.8635 32.8708L60.3695 34.9711Z" fill="#0CBA9B"/>
<path opacity="0.7" d="M60.3695 34.9711C60.3695 34.9711 60.7908 34.5156 60.5182 32.8961C60.2456 31.2766 60.0474 29.2017 60.4191 28.9992C60.766 28.7968 63.7396 27.0508 63.7396 27.0508L63.8635 32.8708L60.3695 34.9711Z" fill="white"/>
<path d="M60.9902 35.2746L60.5938 29.1003C60.5938 29.0244 60.6185 28.9485 60.6929 28.8979L64.0134 26.7723C64.0877 26.7217 64.162 26.7723 64.162 26.8482L64.4098 32.8454C64.4098 32.9213 64.385 32.9972 64.3107 33.0478L61.1141 35.3505C61.0646 35.4011 60.9902 35.3505 60.9902 35.2746Z" fill="#0CBA9B"/>
<path d="M62.5027 27.6339C62.4779 27.558 62.4035 27.4568 62.2796 27.5074C62.1558 27.5833 62.131 27.7351 62.131 27.8616C61.9575 27.9629 61.784 28.0641 61.6849 28.14C61.6602 28.1653 61.6602 28.1906 61.6602 28.2159L61.7097 28.6208C61.7097 28.6967 61.8088 28.7473 61.8832 28.6967L62.9983 27.9629C63.0726 27.9122 63.1222 27.811 63.1222 27.7098L63.0974 27.3808C63.0974 27.3302 63.0478 27.3049 63.023 27.3302C62.8991 27.4062 62.7257 27.5327 62.5027 27.6339ZM62.354 27.6339C62.4035 27.6086 62.4035 27.6592 62.4283 27.7098C62.3788 27.7351 62.3292 27.7604 62.2796 27.7857C62.2796 27.7351 62.3044 27.6339 62.354 27.6339Z" fill="#263238"/>
<path d="M54.8708 40.7852C54.8708 40.7852 56.9523 53.5386 57.5471 57.9669C58.2161 62.8253 59.4799 80.336 59.4799 80.336H56.655C56.655 80.336 54.3009 64.0399 53.2106 59.308C52.0212 54.1712 49.3945 40.7852 49.3945 40.7852H54.8708Z" fill="#0CBA9B"/>
<path opacity="0.2" d="M54.8708 40.7852C54.8708 40.7852 56.9523 53.5386 57.5471 57.9669C58.2161 62.8253 59.4799 80.336 59.4799 80.336H56.655C56.655 80.336 54.3009 64.0399 53.2106 59.308C52.0212 54.1712 49.3945 40.7852 49.3945 40.7852H54.8708Z" fill="black"/>
<path opacity="0.2" d="M51.554 45.9977C52.6196 48.7053 52.7435 53.2854 52.2974 55.1832C51.6532 52.0961 50.9098 48.4016 50.3398 45.5169C50.5381 44.7831 50.9098 44.3529 51.554 45.9977Z" fill="black"/>
<path d="M54.8677 40.7894H46.6656C46.6161 40.0303 46.7895 37.601 46.6408 34.5139C46.5665 32.4389 46.3435 30.0603 45.8231 27.6817C45.7736 27.5046 45.7488 27.3527 45.6992 27.1756C45.6992 27.1756 46.1205 27.0997 46.7152 26.9985C47.2108 26.9226 47.8303 26.8467 48.4498 26.8213C49.4905 26.7707 51.0021 26.7454 51.9437 26.8213C52.4889 26.872 53.0092 26.9732 53.4305 27.0491C53.9756 27.1503 54.273 27.2515 54.273 27.2515C54.273 27.2515 56.2801 31.9835 54.8677 40.7894Z" fill="#0CBA9B"/>
<path d="M47.8516 80.5462H49.3631L49.5614 76.9023H48.0498L47.8516 80.5462Z" fill="#CE7A63"/>
<path d="M49.468 80.3672H47.7334C47.6591 80.3672 47.6343 80.4178 47.6095 80.4684L47.5352 81.8602C47.5352 82.012 47.6591 82.1385 47.8077 82.1385C48.4024 82.1385 48.6998 82.0879 49.4432 82.0879C49.914 82.0879 51.8964 82.1385 52.5407 82.1385C53.1601 82.1385 53.1601 81.4806 52.8876 81.43C51.6734 81.1769 50.137 80.7974 49.7158 80.4431C49.6414 80.3925 49.5423 80.3672 49.468 80.3672Z" fill="#263238"/>
<path d="M58.8547 80.3672H57.1201C57.0458 80.3672 57.021 80.4178 56.9962 80.4684L56.9219 81.8602C56.9219 82.012 57.0458 82.1385 57.1945 82.1385C57.7892 82.1385 58.0865 82.0879 58.8299 82.0879C59.3007 82.0879 61.2831 82.1385 61.9274 82.1385C62.5469 82.1385 62.5469 81.4806 62.2743 81.43C61.0601 81.1769 59.5237 80.7974 59.1025 80.4431C59.0529 80.3925 58.9538 80.3672 58.8547 80.3672Z" fill="#263238"/>
<path opacity="0.2" d="M48.0536 76.9004H49.5651L49.466 78.7729H47.9297L48.0536 76.9004Z" fill="black"/>
<path opacity="0.2" d="M46.6419 34.5155C46.5676 32.4406 46.3446 30.062 45.8242 27.6833C46.3694 27.6327 47.311 27.6833 47.4597 28.5943C47.6331 29.5559 47.4349 31.8333 46.6419 34.5155Z" fill="black"/>
<g opacity="0.2">
<path opacity="0.2" d="M48.0536 76.9004H49.5651L49.466 78.7729H47.9297L48.0536 76.9004Z" fill="black"/>
</g>
<path d="M51.8732 40.7891C51.8732 40.7891 52.0218 52.7328 51.774 57.2116C51.5015 62.1207 49.9899 80.3652 49.9899 80.3652H47.2889C47.2889 80.3652 47.4128 62.5003 47.2394 57.6671C47.0659 52.4038 46.5703 40.8144 46.5703 40.8144H51.8732V40.7891Z" fill="#0CBA9B"/>
<path opacity="0.2" d="M51.8732 40.7891C51.8732 40.7891 52.0218 52.7328 51.774 57.2116C51.5015 62.1207 49.9899 80.3652 49.9899 80.3652H47.2889C47.2889 80.3652 47.4128 62.5003 47.2394 57.6671C47.0659 52.4038 46.5703 40.8144 46.5703 40.8144H51.8732V40.7891Z" fill="black"/>
<path d="M55.0421 31.1243L52.6384 31.5544L52.3906 30.1627L54.7943 29.7578L55.0421 31.1243Z" fill="white"/>
<path d="M46.3421 39.5264L47.8784 39.248L47.0855 41.0447C47.0855 41.0447 45.6978 41.0447 45.7474 40.3108L46.3421 39.5264Z" fill="#CE7A63"/>
<path d="M49.0266 40.159L48.308 41.6014L47.0938 41.0447L47.8867 39.248L49.0266 40.159Z" fill="#CE7A63"/>
<path d="M47.2132 29.4547L46.8415 30.0873C46.7176 30.315 46.5937 30.5175 46.4698 30.7452C46.2467 31.2007 45.9989 31.6309 45.8007 32.0863C45.5777 32.5418 45.3795 32.9973 45.206 33.4528C45.1069 33.6805 45.0325 33.9083 44.9582 34.136L44.8343 34.4903L44.7352 34.8445L44.7104 34.9204V34.971V34.9963C44.7104 35.047 44.7104 35.1229 44.7104 35.1988C44.7352 35.3759 44.76 35.5783 44.8343 35.7808C44.9582 36.211 45.1564 36.6664 45.3547 37.1219C45.7759 38.0329 46.2715 38.9438 46.7671 39.8548L45.8503 40.5886C45.0821 39.8042 44.413 38.9691 43.8183 38.0329C43.521 37.5521 43.2236 37.0713 43.0006 36.5146C42.8767 36.2363 42.7776 35.9326 42.7032 35.5783C42.6785 35.4012 42.6537 35.1988 42.6289 34.971C42.6289 34.8698 42.6289 34.7433 42.6537 34.6168L42.6785 34.5409V34.4903L42.7032 34.389C42.9263 33.225 43.298 32.1622 43.7192 31.1501C43.9422 30.644 44.1652 30.1379 44.4378 29.6571C44.5617 29.4041 44.6856 29.1763 44.8343 28.9233C44.9582 28.6702 45.1069 28.4425 45.2556 28.1895L47.2132 29.4547Z" fill="#CE7A63"/>
<path d="M47.7542 30.0109C47.4072 31.0483 46.8373 32.3136 46.4161 33.1992C46.3169 33.4269 46.193 33.6294 46.1187 33.8065C45.97 34.1102 45.8709 34.2873 45.8709 34.2873L42.7734 32.5413C42.7734 32.5413 42.823 32.4148 42.8726 32.187C42.9221 32.0099 42.9965 31.8075 43.0956 31.5291C43.6159 30.0109 44.6815 27.3286 45.6974 27.1768C47.2586 26.949 48.3737 28.113 47.7542 30.0109Z" fill="#0CBA9B"/>
<path d="M48.5225 22.8242L49.4641 23.6087L50.7279 24.6967C50.6783 24.8739 50.6535 25.051 50.6535 25.2281C50.5792 25.9367 50.7526 26.5693 51.7686 26.8223C51.9173 27.1513 51.4465 28.4418 51.0995 28.3659C50.5296 28.4418 48.4481 27.2778 48.3242 26.8476C49.0676 26.0632 48.795 23.9629 48.5225 22.8242Z" fill="#CE7A63"/>
<path opacity="0.2" d="M50.7325 24.6975C50.683 24.8746 50.6582 25.0517 50.6582 25.2289C50.1874 25.1276 49.5431 24.6216 49.4935 24.1155C49.4688 23.9383 49.4688 23.7612 49.4688 23.6094L50.7325 24.6975Z" fill="black"/>
<path d="M51.5985 18.8256C52.3667 19.1799 52.7632 21.356 51.8215 21.8115C50.8551 22.267 50.1613 18.1677 51.5985 18.8256Z" fill="#263238"/>
<path d="M48.1552 21.179C48.4774 22.6973 48.6013 23.6082 49.4685 24.2915C50.7819 25.3289 52.5412 24.418 52.6899 22.8238C52.8138 21.4067 52.2439 19.1547 50.6827 18.7245C49.1216 18.3196 47.8331 19.6354 48.1552 21.179Z" fill="#CE7A63"/>
<path d="M46.4704 19.6114C45.7518 19.9403 46.1482 20.9525 46.6438 21.6104C47.3377 22.4961 48.0563 22.9263 48.5519 22.5214C48.9979 22.2936 49.2952 20.9525 48.8988 20.1428C49.5926 19.6873 51.9219 20.4717 52.6653 18.5739C52.9874 17.7389 52.3679 16.3218 50.9307 16.3724C50.8811 16.5748 50.8068 16.7773 50.6581 16.9797C50.559 17.1315 50.4351 17.2581 50.3112 17.3846C50.1873 17.5111 50.0386 17.6376 49.8652 17.7389C49.4192 18.0172 48.8988 18.1943 48.4527 18.0931C46.9164 17.7135 45.727 18.7257 46.4704 19.6114Z" fill="#263238"/>
<path d="M51.2539 19.739C51.2539 19.739 52.7903 19.4101 52.8646 17.6641C53.038 18.7775 52.1955 19.8909 51.2539 19.739Z" fill="#263238"/>
<path d="M47.8085 22.748C48.081 23.077 48.4527 23.2794 48.7501 23.33C49.2209 23.4059 49.32 22.9758 49.097 22.5456C48.874 22.166 48.3784 21.6599 47.9571 21.7612C47.5359 21.8624 47.5111 22.3938 47.8085 22.748Z" fill="#CE7A63"/>
<path d="M50.5104 21.3312C50.5351 21.4577 50.6095 21.5589 50.6838 21.5336C50.7581 21.5336 50.8077 21.4071 50.7829 21.2806C50.7582 21.154 50.6838 21.0528 50.6095 21.0781C50.5351 21.0781 50.4856 21.2046 50.5104 21.3312Z" fill="#263238"/>
<path d="M51.8971 21.1554C51.9219 21.2819 51.9962 21.3831 52.0705 21.3578C52.1449 21.3325 52.1944 21.2313 52.1696 21.1048C52.1449 20.9783 52.0705 20.877 51.9962 20.9023C51.9219 20.9276 51.8723 21.0289 51.8971 21.1554Z" fill="#263238"/>
<path d="M51.4531 21.2832C51.4531 21.2832 51.8496 21.9664 52.1965 22.2701C51.9983 22.4978 51.6266 22.4472 51.6266 22.4472L51.4531 21.2832Z" fill="#BA4D3C"/>
<path d="M51.1776 22.8498C50.682 22.8498 50.4095 22.5461 50.4095 22.5208C50.3847 22.4955 50.4095 22.4702 50.4095 22.4702C50.4342 22.4449 50.459 22.4702 50.459 22.4702C50.459 22.4702 50.7811 22.8245 51.3015 22.7739C51.3263 22.7739 51.3511 22.7739 51.3511 22.7992C51.3511 22.8245 51.3511 22.8498 51.3263 22.8498C51.2767 22.8498 51.2272 22.8498 51.1776 22.8498Z" fill="#263238"/>
<path d="M50.0129 20.9261H49.9882C49.9634 20.9008 49.9386 20.8502 49.9634 20.8249C50.1616 20.4706 50.4838 20.4453 50.5085 20.4453C50.5581 20.4453 50.5829 20.4706 50.5829 20.5212C50.5829 20.5718 50.5581 20.5971 50.5085 20.5971C50.4838 20.5971 50.236 20.6224 50.0873 20.9008C50.0625 20.9008 50.0377 20.9261 50.0129 20.9261Z" fill="#263238"/>
<path d="M52.415 20.5981C52.3902 20.5981 52.3655 20.5981 52.3655 20.5728C52.1672 20.2944 51.9194 20.2944 51.8946 20.2944C51.8451 20.2944 51.8203 20.2691 51.8203 20.2185C51.8203 20.1679 51.8451 20.1426 51.8946 20.1426C51.9194 20.1426 52.2416 20.1426 52.4646 20.4968C52.4894 20.5221 52.4894 20.5728 52.4398 20.5981H52.415Z" fill="#263238"/>
<path d="M53.4618 34.6429C53.7492 34.6429 53.9822 34.405 53.9822 34.1115C53.9822 33.818 53.7492 33.5801 53.4618 33.5801C53.1744 33.5801 52.9414 33.818 52.9414 34.1115C52.9414 34.405 53.1744 34.6429 53.4618 34.6429Z" fill="#263238"/>
<g opacity="0.6">
<path d="M53.4618 34.6429C53.7492 34.6429 53.9822 34.405 53.9822 34.1115C53.9822 33.818 53.7492 33.5801 53.4618 33.5801C53.1744 33.5801 52.9414 33.818 52.9414 34.1115C52.9414 34.405 53.1744 34.6429 53.4618 34.6429Z" fill="white"/>
</g>
<path d="M51.5251 29.8349C51.5251 29.5313 51.5747 29.2276 51.6242 28.8734C51.7977 27.6841 52.0207 26.3682 50.2861 25.5838C49.7658 25.356 49.2949 25.356 48.8985 25.6091C48.0064 26.1405 47.7834 27.7347 47.7338 28.1395C47.3869 28.1142 47.0896 28.2154 46.8913 28.4432C46.2718 29.1264 46.5444 30.7206 46.5692 30.7965C46.5692 30.8471 46.6187 30.8977 46.6931 30.8724C46.7426 30.8724 46.7922 30.8218 46.7674 30.7459C46.7674 30.7206 46.4948 29.2023 47.04 28.5697C47.2382 28.3673 47.486 28.2914 47.8082 28.342C48.1303 28.3926 48.3781 28.5191 48.5268 28.7721C49.0224 29.5819 48.4524 31.2014 48.4524 31.2014C48.4277 31.252 48.4524 31.3026 48.502 31.3279H48.5268C48.5763 31.3279 48.6011 31.3026 48.6259 31.252C48.6507 31.1761 49.2206 29.5313 48.6755 28.6456C48.502 28.3673 48.2542 28.1901 47.9073 28.1395C47.9568 27.76 48.1799 26.2417 48.9728 25.7609C49.2949 25.5585 49.7162 25.5585 50.1622 25.7609C51.7481 26.4694 51.5747 27.6587 51.3764 28.8228C51.3269 29.177 51.2773 29.506 51.2773 29.8096C51.2525 31.4038 51.7481 33.9596 53.2101 34.0102V33.8077C51.8968 33.7824 51.5003 31.1255 51.5251 29.8349Z" fill="#263238"/>
<path opacity="0.2" d="M51.5251 29.8349C51.5251 29.5313 51.5747 29.2276 51.6242 28.8734C51.7977 27.6841 52.0207 26.3682 50.2861 25.5838C49.7658 25.356 49.2949 25.356 48.8985 25.6091C48.0064 26.1405 47.7834 27.7347 47.7338 28.1395C47.3869 28.1142 47.0896 28.2154 46.8913 28.4432C46.2718 29.1264 46.5444 30.7206 46.5692 30.7965C46.5692 30.8471 46.6187 30.8977 46.6931 30.8724C46.7426 30.8724 46.7922 30.8218 46.7674 30.7459C46.7674 30.7206 46.4948 29.2023 47.04 28.5697C47.2382 28.3673 47.486 28.2914 47.8082 28.342C48.1303 28.3926 48.3781 28.5191 48.5268 28.7721C49.0224 29.5819 48.4524 31.2014 48.4524 31.2014C48.4277 31.252 48.4524 31.3026 48.502 31.3279H48.5268C48.5763 31.3279 48.6011 31.3026 48.6259 31.252C48.6507 31.1761 49.2206 29.5313 48.6755 28.6456C48.502 28.3673 48.2542 28.1901 47.9073 28.1395C47.9568 27.76 48.1799 26.2417 48.9728 25.7609C49.2949 25.5585 49.7162 25.5585 50.1622 25.7609C51.7481 26.4694 51.5747 27.6587 51.3764 28.8228C51.3269 29.177 51.2773 29.506 51.2773 29.8096C51.2525 31.4038 51.7481 33.9596 53.2101 34.0102V33.8077C51.8968 33.7824 51.5003 31.1255 51.5251 29.8349Z" fill="white"/>
<path d="M48.6771 31.0975L48.4045 31.0469C48.4045 31.0469 48.2063 31.4771 48.3797 31.553C48.5532 31.6289 48.7762 31.3252 48.6771 31.0975Z" fill="#263238"/>
<g opacity="0.6">
<path d="M48.6771 31.0975L48.4045 31.0469C48.4045 31.0469 48.2063 31.4771 48.3797 31.553C48.5532 31.6289 48.7762 31.3252 48.6771 31.0975Z" fill="white"/>
</g>
<path d="M46.6434 30.6191H46.916C46.916 30.6191 47.0399 31.0999 46.8416 31.1252C46.6682 31.1505 46.5195 30.8216 46.6434 30.6191Z" fill="#263238"/>
<g opacity="0.6">
<path d="M46.6434 30.6191H46.916C46.916 30.6191 47.0399 31.0999 46.8416 31.1252C46.6682 31.1505 46.5195 30.8216 46.6434 30.6191Z" fill="white"/>
</g>
<path d="M53.6311 33.8858C53.6311 34.0376 53.5072 34.1641 53.3585 34.1641C53.2098 34.1641 53.0859 34.0376 53.0859 33.8858C53.0859 33.7339 53.2098 33.6074 53.3585 33.6074C53.5072 33.6074 53.6311 33.7339 53.6311 33.8858Z" fill="#263238"/>
<g opacity="0.7">
<path d="M53.6311 33.8858C53.6311 34.0376 53.5072 34.1641 53.3585 34.1641C53.2098 34.1641 53.0859 34.0376 53.0859 33.8858C53.0859 33.7339 53.2098 33.6074 53.3585 33.6074C53.5072 33.6074 53.6311 33.7339 53.6311 33.8858Z" fill="white"/>
</g>
<path d="M50.6347 25.3301H48.801C48.7762 25.659 48.7515 25.9374 48.6523 26.2157H50.833C50.6843 25.9627 50.6347 25.659 50.6347 25.3301Z" fill="#CE7A63"/>
<path d="M18.264 9.3125H17.6445V79.4311H18.264V9.3125Z" fill="#263238"/>
<path opacity="0.5" d="M18.264 9.3125H17.6445V79.4311H18.264V9.3125Z" fill="white"/>
<path d="M14.2758 11.187H12.7891V10.7821H13.9041V10.4531H14.2758V11.187Z" fill="#263238"/>
<path opacity="0.1" d="M14.2758 11.187H12.7891V10.7821H13.9041V10.4531H14.2758V11.187Z" fill="white"/>
<path d="M21.6289 11.187H23.1157V10.7821H22.0006V10.4531H21.6289V11.187Z" fill="#263238"/>
<path opacity="0.1" d="M21.6289 11.187H23.1157V10.7821H22.0006V10.4531H21.6289V11.187Z" fill="white"/>
<path d="M19.3556 50.8897C17.3237 50.8897 17.2494 46.9169 17.175 43.7285C17.1502 43.0453 17.1502 42.3874 17.1255 41.856C17.1007 41.4005 17.0511 40.7426 17.0016 39.9076C16.7042 35.7576 16.159 28.0651 16.4812 23.6874C16.8281 19.2085 15.6635 12.9077 14.2014 11.2123C13.9784 10.9593 13.7802 10.8328 13.582 10.8328C13.4581 10.8328 13.3342 10.8834 13.235 10.9846C11.9465 12.2245 11.7483 19.2338 11.7483 19.3098L10.7323 43.4755L10.4102 43.4502L11.4261 19.2845C11.4261 18.9808 11.6244 12.0727 13.012 10.7316C13.1855 10.5544 13.3837 10.4785 13.582 10.4785C13.8793 10.4785 14.1519 10.6556 14.4245 10.9846C15.9608 12.7559 17.1255 19.0567 16.7785 23.6874C16.4564 28.0398 17.0016 35.7323 17.2989 39.857C17.3485 40.692 17.398 41.3499 17.4228 41.8054C17.4476 42.3621 17.4724 42.9947 17.4724 43.7032C17.5219 46.5879 17.5963 50.5607 19.3308 50.5607C20.7928 50.5607 21.1398 48.3086 21.5115 45.9553C21.6849 44.8419 21.8584 43.6779 22.1557 42.6911C23.0974 39.6292 22.2549 22.5234 22.2549 22.4475L22.577 22.4222C22.6018 22.7006 23.4195 39.6545 22.4531 42.7923C22.1557 43.7538 21.9823 44.8925 21.8088 46.0059C21.4619 48.5111 21.0902 50.8897 19.3556 50.8897Z" fill="#0CBA9B"/>
<path d="M11.0276 82.1653C11.5476 82.1653 11.9692 81.7348 11.9692 81.2038C11.9692 80.6727 11.5476 80.2422 11.0276 80.2422C10.5075 80.2422 10.0859 80.6727 10.0859 81.2038C10.0859 81.7348 10.5075 82.1653 11.0276 82.1653Z" fill="#263238"/>
<path opacity="0.3" d="M11.3996 81.2038C11.3996 81.4062 11.2262 81.5834 11.0279 81.5834C10.8297 81.5834 10.6562 81.4062 10.6562 81.2038C10.6562 81.0013 10.8297 80.8242 11.0279 80.8242C11.2262 80.8242 11.3996 81.0013 11.3996 81.2038Z" fill="black"/>
<path d="M11.0287 81.204L11.9703 80.8497C11.9703 80.8497 11.8464 80.2424 11.1773 80.1412C10.5083 80.04 10.2109 80.5967 10.2109 80.5967L11.0287 81.204Z" fill="#263238"/>
<path opacity="0.2" d="M11.0287 81.204L11.9703 80.8497C11.9703 80.8497 11.8464 80.2424 11.1773 80.1412C10.5083 80.04 10.2109 80.5967 10.2109 80.5967L11.0287 81.204Z" fill="black"/>
<path d="M24.8948 82.1653C25.4148 82.1653 25.8364 81.7348 25.8364 81.2038C25.8364 80.6727 25.4148 80.2422 24.8948 80.2422C24.3747 80.2422 23.9531 80.6727 23.9531 81.2038C23.9531 81.7348 24.3747 82.1653 24.8948 82.1653Z" fill="#263238"/>
<path opacity="0.3" d="M24.5234 81.2038C24.5234 81.4062 24.6969 81.5834 24.8951 81.5834C25.0934 81.5834 25.2668 81.4062 25.2668 81.2038C25.2668 81.0013 25.0934 80.8242 24.8951 80.8242C24.6969 80.8242 24.5234 81.0013 24.5234 81.2038Z" fill="black"/>
<path d="M24.8948 81.204L23.9531 80.8497C23.9531 80.8497 24.077 80.2424 24.7461 80.1412C25.4151 80.04 25.7125 80.5967 25.7125 80.5967L24.8948 81.204Z" fill="#263238"/>
<path opacity="0.2" d="M24.8948 81.204L23.9531 80.8497C23.9531 80.8497 24.077 80.2424 24.7461 80.1412C25.4151 80.04 25.7125 80.5967 25.7125 80.5967L24.8948 81.204Z" fill="black"/>
<path d="M10.8775 43.4473H10.1094V45.8006H10.8775V43.4473Z" fill="#263238"/>
<path opacity="0.1" d="M10.8775 43.4473H10.1094V45.8006H10.8775V43.4473Z" fill="white"/>
<path d="M10.7064 47.1963H10.2852V46.4878V45.7793H10.7064V46.4878V47.1963Z" fill="#263238"/>
<path opacity="0.5" d="M10.7064 47.1963H10.2852V46.4878V45.7793H10.7064V46.4878V47.1963Z" fill="white"/>
<path d="M10.4845 48.6104L10.4102 47.1934H10.5836L10.4845 48.6104Z" fill="#0CBA9B"/>
<path opacity="0.5" d="M10.4845 48.6104L10.4102 47.1934H10.5836L10.4845 48.6104Z" fill="white"/>
<path d="M21.9548 13.2875L21.707 13.2369C21.707 13.2369 21.9548 11.9716 22.0044 11.4403C22.0787 10.7823 22.3265 10.5293 22.5248 10.5293C22.723 10.5293 22.8717 10.8583 22.9956 11.4909C23.0699 11.8451 23.0451 13.1357 23.0451 13.2116H22.7973C22.7973 13.1863 22.7973 11.8704 22.7478 11.5415C22.6734 11.086 22.5495 10.8076 22.5 10.7823C22.4752 10.7823 22.3017 10.9595 22.2522 11.4656C22.2026 12.0223 21.9796 13.2369 21.9548 13.2875Z" fill="#0CBA9B"/>
<path d="M24.0152 21.1816C23.916 21.5865 22.9744 22.6746 22.5036 22.6746C22.0328 22.6746 20.8929 21.8648 20.769 21.3334C20.6451 20.802 21.1655 19.7899 21.215 19.056C21.2646 18.3222 20.9177 15.1845 20.9672 14.5012C20.992 13.7927 21.215 13.5397 21.5372 13.2613C21.8593 12.983 23.2222 12.9577 23.47 13.2613C23.7178 13.565 24.0152 13.8433 24.0152 14.4C24.0152 14.9567 23.6187 18.5499 23.6435 19.132C23.6435 19.6886 24.1143 20.802 24.0152 21.1816Z" fill="#0CBA9B"/>
<path opacity="0.6" d="M24.0152 21.1816C23.916 21.5865 22.9744 22.6746 22.5036 22.6746C22.0328 22.6746 20.8929 21.8648 20.769 21.3334C20.6451 20.802 21.1655 19.7899 21.215 19.056C21.2646 18.3222 20.9177 15.1845 20.9672 14.5012C20.992 13.7927 21.215 13.5397 21.5372 13.2613C21.8593 12.983 23.2222 12.9577 23.47 13.2613C23.7178 13.565 24.0152 13.8433 24.0152 14.4C24.0152 14.9567 23.6187 18.5499 23.6435 19.132C23.6435 19.6886 24.1143 20.802 24.0152 21.1816Z" fill="white"/>
<path d="M23.8398 20.9766C23.7654 21.3055 22.7743 22.1912 22.4026 22.1912C22.0061 22.1912 21.1884 21.432 21.0892 21.0272C20.9901 20.597 21.4114 19.433 21.4857 18.8257C21.5353 18.2184 21.2379 15.7132 21.2627 15.1312C21.5105 14.5998 23.7159 14.5998 23.7159 15.0553C23.7159 15.5108 23.3937 18.4208 23.4185 18.8763C23.4185 19.3318 23.9141 20.6729 23.8398 20.9766Z" fill="#0CBA9B"/>
<path opacity="0.2" d="M23.8398 20.9766C23.7654 21.3055 22.7743 22.1912 22.4026 22.1912C22.0061 22.1912 21.1884 21.432 21.0892 21.0272C20.9901 20.597 21.4114 19.433 21.4857 18.8257C21.5353 18.2184 21.2379 15.7132 21.2627 15.1312C21.5105 14.5998 23.7159 14.5998 23.7159 15.0553C23.7159 15.5108 23.3937 18.4208 23.4185 18.8763C23.4185 19.3318 23.9141 20.6729 23.8398 20.9766Z" fill="white"/>
<path d="M23.1955 13.2621H21.684C21.5601 13.2621 21.4609 13.1609 21.4609 13.0344C21.4609 12.9079 21.5601 12.8066 21.684 12.8066H23.1955C23.3194 12.8066 23.4185 12.9079 23.4185 13.0344C23.4185 13.1609 23.3194 13.2621 23.1955 13.2621Z" fill="#0CBA9B"/>
<path opacity="0.2" d="M23.1955 13.2621H21.684C21.5601 13.2621 21.4609 13.1609 21.4609 13.0344C21.4609 12.9079 21.5601 12.8066 21.684 12.8066H23.1955C23.3194 12.8066 23.4185 12.9079 23.4185 13.0344C23.4185 13.1609 23.3194 13.2621 23.1955 13.2621Z" fill="white"/>
<path d="M24.9079 79.3828H11.0312V80.1166H24.9079V79.3828Z" fill="#263238"/>
<path opacity="0.1" d="M24.9079 79.3828H11.0312V80.1166H24.9079V79.3828Z" fill="white"/>
<path d="M23.1222 9.3125H12.7891V10.021H23.1222V9.3125Z" fill="#263238"/>
<path opacity="0.1" d="M23.1222 9.3125H12.7891V10.021H23.1222V9.3125Z" fill="white"/>
<path d="M13.3094 9.3125H12.7891V11.185H13.3094V9.3125Z" fill="#263238"/>
<path opacity="0.1" d="M13.3094 9.3125H12.7891V11.185H13.3094V9.3125Z" fill="white"/>
<path d="M23.1219 9.3125H22.6016V11.185H23.1219V9.3125Z" fill="#263238"/>
<path opacity="0.1" d="M23.1219 9.3125H22.6016V11.185H23.1219V9.3125Z" fill="white"/>
</svg>
