<svg width="100" height="85" viewBox="0 0 100 85" fill="none" xmlns="http://www.w3.org/2000/svg">
<path d="M50.9263 85.0003C77.7296 85.0003 99.458 83.4896 99.458 81.6261C99.458 79.7626 77.7296 78.252 50.9263 78.252C24.1229 78.252 2.39453 79.7626 2.39453 81.6261C2.39453 83.4896 24.1229 85.0003 50.9263 85.0003Z" fill="#F5F5F5"/>
<path d="M8.66625 72.2721C8.62991 71.9649 7.75049 64.771 9.5057 62.2879C9.89454 61.7386 10.3851 61.4487 10.9629 61.4357C14.5061 61.3362 14.9894 64.7234 14.993 64.758L14.5751 64.8359C14.5606 64.7148 14.139 61.8467 10.9702 61.9375C10.5123 61.9505 10.138 62.1711 9.82549 62.6124C8.1902 64.9267 9.06962 72.125 9.08053 72.1985L8.66625 72.2721Z" fill="#242F9B"/>
<path d="M8.45409 71.9411L8.03255 71.9238C8.03255 71.859 8.17427 65.2923 5.45606 63.9383C2.79236 62.6102 1.59678 65.3399 1.5459 65.4567L1.16797 65.2317C1.1825 65.1971 2.58885 61.9614 5.61959 63.4754C8.60308 64.9635 8.46136 71.6556 8.45409 71.9411Z" fill="#242F9B"/>
<path d="M8.46338 72.455C8.46338 72.3512 8.43794 61.9691 6.73724 58.9323C5.10558 56.0167 2.47095 57.388 2.36193 57.4485L2.1875 56.99C2.21657 56.9727 5.25821 55.3764 7.08973 58.6511C8.85948 61.8133 8.88492 72.0181 8.88492 72.4507L8.46338 72.455Z" fill="#242F9B"/>
<path d="M11.4654 61.682C11.4654 61.682 9.91738 62.3612 10.3789 63.9618C10.8404 65.5623 15.7281 68.2011 15.7281 68.2011C15.7281 68.2011 17.7777 65.9646 15.8953 62.3309C14.0165 58.6972 11.5091 60.5357 11.4654 61.682Z" fill="#242F9B"/>
<path d="M6.66101 58.3919C6.66101 58.3919 7.75847 58.2534 7.67126 57.4575C7.58404 56.6615 3.40134 54.6111 0.9375 57.9247C0.9375 57.9247 2.51828 61.1561 4.80042 61.195C7.07892 61.2383 6.66101 58.3919 6.66101 58.3919Z" fill="#242F9B"/>
<path d="M5.5326 63.7127C5.5326 63.7127 6.2921 62.9859 5.47082 62.6269C4.65317 62.2721 0.641264 62.3716 0.597656 67.1041C0.597656 67.1041 5.27095 68.0299 5.84875 66.226C6.43019 64.4264 5.5326 63.7127 5.5326 63.7127Z" fill="#242F9B"/>
<path opacity="0.2" d="M11.4654 61.682C11.4654 61.682 9.91738 62.3612 10.3789 63.9618C10.8404 65.5623 15.7281 68.2011 15.7281 68.2011C15.7281 68.2011 17.7777 65.9646 15.8953 62.3309C14.0165 58.6972 11.5091 60.5357 11.4654 61.682Z" fill="white"/>
<path opacity="0.2" d="M6.66101 58.3919C6.66101 58.3919 7.75847 58.2534 7.67126 57.4575C7.58404 56.6615 3.40134 54.6111 0.9375 57.9247C0.9375 57.9247 2.51828 61.1561 4.80042 61.195C7.07892 61.2383 6.66101 58.3919 6.66101 58.3919Z" fill="white"/>
<path opacity="0.2" d="M5.5326 63.7127C5.5326 63.7127 6.2921 62.9859 5.47082 62.6269C4.65317 62.2721 0.641264 62.3716 0.597656 67.1041C0.597656 67.1041 5.27095 68.0299 5.84875 66.226C6.43019 64.4264 5.5326 63.7127 5.5326 63.7127Z" fill="white"/>
<path d="M12.2964 81.9091H5.04302L4.26172 72.457H13.0777L12.2964 81.9091Z" fill="#242F9B"/>
<path opacity="0.5" d="M12.2964 81.9091H5.04302L4.26172 72.457H13.0777L12.2964 81.9091Z" fill="white"/>
<path d="M13.4648 71.4141H3.87109V73.4991H13.4648V71.4141Z" fill="#242F9B"/>
<path opacity="0.2" d="M13.4648 71.4141H3.87109V73.4991H13.4648V71.4141Z" fill="white"/>
<path d="M86.6182 35.3789H61.9726C60.7516 35.3789 59.7631 36.5555 59.7631 38.009L56.7578 60.7934H85.826L88.8313 38.009C88.8276 36.5599 87.8392 35.3789 86.6182 35.3789Z" fill="#242F9B"/>
<path opacity="0.4" d="M86.6182 35.3789H61.9726C60.7516 35.3789 59.7631 36.5555 59.7631 38.009L56.7578 60.7934H85.826L88.8313 38.009C88.8276 36.5599 87.8392 35.3789 86.6182 35.3789Z" fill="white"/>
<path opacity="0.2" d="M81.4023 61.1308H85.8249L88.8302 38.009C88.8302 36.5555 87.8418 35.3789 86.6207 35.3789C85.3997 35.3789 84.4113 36.5555 84.4113 38.009L81.4023 61.1308Z" fill="black"/>
<path d="M55.8363 50.1493H45.3559C45.3196 50.1493 45.2833 50.1406 45.2433 50.1406C43.7534 50.1406 42.5469 51.5768 42.5469 53.3504V81.9098H45.3559H47.9433H58.3728V53.3504C58.3765 51.6244 57.2717 50.2185 55.8363 50.1493Z" fill="#242F9B"/>
<path opacity="0.5" d="M55.8363 50.1493H45.3559C45.3196 50.1493 45.2833 50.1406 45.2433 50.1406C43.7534 50.1406 42.5469 51.5768 42.5469 53.3504V81.9098H45.3559H47.9433H58.3728V53.3504C58.3765 51.6244 57.2717 50.2185 55.8363 50.1493Z" fill="white"/>
<path opacity="0.6" d="M45.2472 50.1406C43.7573 50.1406 42.5508 51.5768 42.5508 53.3504V81.9098H47.9472V53.3504C47.9472 51.5768 46.7371 50.1406 45.2472 50.1406Z" fill="white"/>
<path d="M70.3257 58.2246H49.6992V81.9131H70.3257V58.2246Z" fill="#242F9B"/>
<path opacity="0.4" d="M70.3257 58.2246H49.6992V81.9131H70.3257V58.2246Z" fill="white"/>
<path d="M74.7283 62.9883H51.2129C49.643 62.9883 48.3711 61.4743 48.3711 59.6055C48.3711 57.7367 49.643 56.2227 51.2129 56.2227H74.7283V62.9883Z" fill="#242F9B"/>
<path opacity="0.6" d="M74.7283 62.9883H51.2129C49.643 62.9883 48.3711 61.4743 48.3711 59.6055C48.3711 57.7367 49.643 56.2227 51.2129 56.2227H74.7283V62.9883Z" fill="white"/>
<path d="M83.6176 50.1493H73.1372C73.1009 50.1493 73.0645 50.1406 73.0245 50.1406C71.5346 50.1406 70.3281 51.5768 70.3281 53.3504V81.9098H73.1372H75.7246H86.1541V53.3504C86.1541 51.6244 85.053 50.2185 83.6176 50.1493Z" fill="#242F9B"/>
<path opacity="0.5" d="M83.6176 50.1493H73.1372C73.1009 50.1493 73.0645 50.1406 73.0245 50.1406C71.5346 50.1406 70.3281 51.5768 70.3281 53.3504V81.9098H73.1372H75.7246H86.1541V53.3504C86.1541 51.6244 85.053 50.2185 83.6176 50.1493Z" fill="white"/>
<path opacity="0.6" d="M73.0284 50.1406C71.5385 50.1406 70.332 51.5768 70.332 53.3504V81.9098H75.7285V53.3504C75.7248 51.5768 74.5184 50.1406 73.0284 50.1406Z" fill="white"/>
<path d="M98.1378 51.2285H79.5391V81.9119H98.1378V51.2285Z" fill="#242F9B"/>
<path opacity="0.2" d="M98.135 51.2285H92.4297V81.9119H98.135V51.2285Z" fill="black"/>
<path opacity="0.2" d="M91.1596 52.3242H80.4648V57.113H91.1596V52.3242Z" fill="white"/>
<path opacity="0.2" d="M91.1596 58.2852H80.4648V63.0739H91.1596V58.2852Z" fill="white"/>
<path opacity="0.2" d="M91.1596 64.2402H80.4648V76.9713H91.1596V64.2402Z" fill="white"/>
<path opacity="0.2" d="M85.5351 53.7497C85.7681 53.7497 85.957 53.525 85.957 53.2479C85.957 52.9708 85.7681 52.7461 85.5351 52.7461C85.3021 52.7461 85.1133 52.9708 85.1133 53.2479C85.1133 53.525 85.3021 53.7497 85.5351 53.7497Z" fill="black"/>
<path opacity="0.2" d="M85.5351 59.4958C85.7681 59.4958 85.957 59.2711 85.957 58.994C85.957 58.7169 85.7681 58.4922 85.5351 58.4922C85.3021 58.4922 85.1133 58.7169 85.1133 58.994C85.1133 59.2711 85.3021 59.4958 85.5351 59.4958Z" fill="black"/>
<path opacity="0.2" d="M81.4023 70.6092C81.4023 70.8861 81.2132 71.111 80.9804 71.111C80.7477 71.111 80.5586 70.8861 80.5586 70.6092C80.5586 70.3324 80.7477 70.1074 80.9804 70.1074C81.2132 70.1074 81.4023 70.3324 81.4023 70.6092Z" fill="black"/>
<path d="M91.4841 32.1348H90.2812V51.2248H91.4841V32.1348Z" fill="#1A2E35"/>
<path d="M84.4609 38.6877H97.2998L96.2605 27.873H85.5003L84.4609 38.6877Z" fill="#242F9B"/>
<g opacity="0.6">
<path d="M84.4609 38.6877H97.2998L96.2605 27.873H85.5003L84.4609 38.6877Z" fill="white"/>
</g>
<path opacity="0.2" d="M90.2812 43.0458V51.2217H91.4841V42.1504L90.2812 43.0458Z" fill="white"/>
<path d="M92.9916 50.3828H88.7799L88.0312 51.2214H93.7402L92.9916 50.3828Z" fill="#242F9B"/>
<path opacity="0.2" d="M92.9916 50.3828H88.7799L88.0312 51.2214H93.7402L92.9916 50.3828Z" fill="white"/>
<path d="M23.1384 5.92814C22.8258 5.70752 22.4515 5.59505 22.0409 5.68589C20.9689 5.92814 20.7145 7.18697 20.8562 8.10406C20.9543 8.72698 21.3941 9.52727 22.07 9.73058C22.9131 9.98148 23.658 9.05142 23.8761 8.35496C24.1486 7.48978 23.9051 6.4732 23.1384 5.92814Z" fill="#1A2E35"/>
<path d="M42.0352 19.6269L46.2687 18.2124C46.2687 18.2124 46.2724 17.9225 46.9265 17.3602C47.5806 16.7978 49.3467 16.3652 49.3467 16.3652C49.3467 16.3652 50.1571 19.1554 49.8954 19.2333C49.6338 19.3112 47.2572 20.2542 47.1264 19.9427L42.6275 21.4611L42.0352 19.6269Z" fill="#CC7A63"/>
<path d="M29.1308 13.7988C31.6019 14.7505 35.4502 19.9372 36.1988 20.2487C36.9511 20.5645 44.1391 18.713 44.1391 18.713L45.1457 20.9149C45.1457 20.9149 38.55 23.757 36.1952 23.5364C33.844 23.3157 30.7806 19.1672 28.582 18.5703L29.1308 13.7988Z" fill="#242F9B"/>
<path opacity="0.5" d="M45.146 20.9173C45.146 20.9173 38.5467 23.7594 36.1991 23.5387C34.6801 23.396 32.8668 21.6181 31.1806 20.2121C30.2503 19.4421 29.3636 18.7846 28.5859 18.5683L28.873 16.0723L29.1347 13.7969C31.6058 14.7486 35.4505 19.931 36.2028 20.2468C36.9513 20.5582 44.143 18.7111 44.143 18.7111L45.146 20.9173Z" fill="white"/>
<path opacity="0.2" d="M31.1806 20.216C30.2503 19.446 29.3636 18.7885 28.5859 18.5722L28.873 16.0762C29.578 16.8938 30.6682 18.3819 31.1806 20.216Z" fill="black"/>
<path d="M32.7809 77.7811L31.1129 78.1315L30.4297 75.4279L29.8047 72.9405L31.7271 72.1445L32.2867 75.1294L32.7809 77.7811Z" fill="#FD897B"/>
<path d="M30.7346 78.084C30.7056 77.8634 32.9913 77.5605 32.9913 77.5605C32.9913 77.5605 34.6303 78.9492 36.0366 79.0443C37.443 79.1395 36.8325 80.2599 35.3244 80.58C33.8163 80.8958 32.6643 81.138 31.5923 81.363C30.5202 81.5879 31.029 80.3637 30.7346 78.084Z" fill="#1A2E35"/>
<path d="M34.1149 78.0074C33.8021 78.0074 33.4057 77.882 33.2966 77.8474C33.2894 77.843 33.2821 77.843 33.2785 77.8344C33.2712 77.8301 33.2675 77.8214 33.2639 77.8128C33.2603 77.8084 33.2603 77.7998 33.2566 77.7955C33.253 77.7868 33.253 77.7738 33.2566 77.7652C33.2603 77.7349 33.3585 77.0687 33.6421 76.8524C33.733 76.7832 33.8312 76.7659 33.9367 76.8005C34.0494 76.8351 34.1112 76.9043 34.1185 76.9952C34.133 77.1379 33.9912 77.3153 33.8276 77.471C34.0167 77.4105 34.213 77.3758 34.344 77.4321C34.413 77.4624 34.464 77.5143 34.493 77.5878C34.5512 77.7392 34.5185 77.8344 34.4821 77.8863C34.4058 77.9771 34.2712 78.0074 34.1149 78.0074ZM33.4966 77.7609C33.853 77.8604 34.2894 77.9209 34.3803 77.7911C34.3876 77.7782 34.413 77.7479 34.373 77.6441C34.3585 77.6051 34.333 77.5792 34.293 77.5619C34.1149 77.4883 33.7403 77.6397 33.4966 77.7609ZM33.8276 76.9303C33.7839 76.9303 33.7403 76.9476 33.7003 76.9779C33.5439 77.0947 33.4457 77.4191 33.3985 77.6354C33.7112 77.4148 34.0021 77.1379 33.9912 77.0125C33.9876 76.9735 33.9294 76.9519 33.8967 76.9389C33.8748 76.9346 33.853 76.9303 33.8276 76.9303Z" fill="#242F9B"/>
<path opacity="0.2" d="M32.2942 75.1926L30.4373 75.4824L29.8086 72.9734L31.731 72.1602L32.2942 75.1926Z" fill="black"/>
<path d="M21.6498 78.6359H19.9563L19.6765 75.8285L19.4258 73.2546L21.4354 72.8652L21.548 75.9193L21.6498 78.6359Z" fill="#FD897B"/>
<path d="M19.5917 78.5066C19.5954 78.286 21.8884 78.4591 21.8884 78.4591C21.8884 78.4591 23.2984 80.1678 24.6684 80.5528C26.0384 80.9378 25.2716 81.9154 23.7417 81.9154C22.2118 81.9154 21.0417 81.9154 19.9515 81.9154C18.8649 81.9111 19.5481 80.808 19.5917 78.5066Z" fill="#1A2E35"/>
<path d="M23.0855 79.1544C22.7655 79.1544 22.2564 78.8776 22.1328 78.8084C22.1255 78.804 22.1182 78.7997 22.111 78.791C22.1073 78.7867 22.1037 78.7824 22.1037 78.7781C22.0964 78.7608 22.0964 78.7435 22.1 78.7218C22.1073 78.6959 22.3001 78.0556 22.6128 77.9042C22.711 77.8567 22.8128 77.861 22.911 77.9129C23.0164 77.9735 23.0674 78.047 23.0601 78.1422C23.0528 78.2849 22.8892 78.4277 22.7037 78.5488C22.8964 78.5272 23.0965 78.5315 23.2201 78.6137C23.2855 78.6569 23.3255 78.7218 23.3437 78.7997C23.3801 78.9598 23.3328 79.0463 23.2892 79.0895C23.2419 79.1371 23.1692 79.1544 23.0855 79.1544ZM22.3437 78.7651C22.6819 78.9338 23.1037 79.0852 23.2092 78.9814C23.2201 78.9727 23.2455 78.9425 23.2237 78.8386C23.2165 78.7997 23.1946 78.7694 23.1583 78.7435C22.9946 78.6267 22.6019 78.6959 22.3437 78.7651ZM22.7546 78.0124C22.7255 78.0124 22.6928 78.021 22.6601 78.034C22.4892 78.1162 22.3473 78.4147 22.2673 78.6223C22.6092 78.4666 22.9364 78.2546 22.9401 78.1335C22.9437 78.0946 22.8892 78.06 22.8601 78.0427C22.8273 78.021 22.791 78.0124 22.7546 78.0124Z" fill="#242F9B"/>
<path opacity="0.2" d="M21.548 75.9786L19.6765 75.8834L19.4258 73.2793L21.4354 72.877L21.548 75.9786Z" fill="black"/>
<path d="M32.4504 73.6192L29.7104 74.1945C26.945 65.9927 24.979 59.1448 23.5872 53.4606C22.8386 50.3936 22.2571 47.6683 21.8065 45.2501L21.9301 54.1787V74.4627H19.1465C12.38 36.0273 17.1768 27.2458 17.1768 27.2458L25.277 25.5977C25.5859 27.0382 25.8184 29.3698 25.9565 30.992L26.3236 34.1802L29.4888 53.6423L32.4504 73.6192Z" fill="#242F9B"/>
<path opacity="0.5" d="M32.4504 73.6192L29.7104 74.1945C26.945 65.9927 24.979 59.1448 23.5872 53.4606C22.8386 50.3936 22.2571 47.6683 21.8065 45.2501L21.9301 54.1787V74.4627H19.1465C12.38 36.0273 17.1768 27.2458 17.1768 27.2458L25.277 25.5977C25.5859 27.0382 25.8184 29.3698 25.9565 30.992L26.3236 34.1802L29.4888 53.6423L32.4504 73.6192Z" fill="white"/>
<path d="M29.2812 73.7926L32.679 72.4473L32.6354 74.169L29.8227 75.2375L29.2812 73.7926Z" fill="#242F9B"/>
<path d="M18.7852 73.9741L22.3283 73.3555L22.0339 75.0426L19.1086 75.5098L18.7852 73.9741Z" fill="#242F9B"/>
<path opacity="0.2" d="M23.5814 53.4632C22.8328 50.3962 22.2514 47.6709 21.8008 45.2527C21.8008 45.2527 21.8444 40.5505 22.3241 36.6875C22.3277 36.6875 23.5124 47.7358 23.5814 53.4632Z" fill="black"/>
<path d="M26.611 32.9889L23.1514 34.3775L22.5082 31.8771L21.8069 34.1872L15.5273 32.4482C16.0652 27.8584 18.2165 24.1987 18.5544 22.8101C19.0196 20.8894 19.383 17.2211 19.0668 14.8462C19.0668 14.8419 19.0668 14.8332 19.0632 14.8289C18.9324 13.8166 19.5465 12.8779 20.4041 12.7957C21.011 12.7395 21.6215 12.7135 22.232 12.7092C23.4421 12.6919 24.6523 12.7784 25.8515 12.9644C27.3959 13.2543 29.1366 13.8123 29.1366 13.8123C29.1366 13.8123 29.3764 13.9334 29.2674 15.9103C29.1657 17.6364 28.8895 22.9961 25.9241 27.534L26.611 32.9889Z" fill="#242F9B"/>
<path opacity="0.6" d="M26.611 32.9889L23.1514 34.3775L22.5082 31.8771L21.8069 34.1872L15.5273 32.4482C16.0652 27.8584 18.2165 24.1987 18.5544 22.8101C19.0196 20.8894 19.383 17.2211 19.0668 14.8462C19.0668 14.8419 19.0668 14.8332 19.0632 14.8289C18.9324 13.8166 19.5465 12.8779 20.4041 12.7957C21.011 12.7395 21.6215 12.7135 22.232 12.7092C23.4421 12.6919 24.6523 12.7784 25.8515 12.9644C27.3959 13.2543 29.1366 13.8123 29.1366 13.8123C29.1366 13.8123 29.3764 13.9334 29.2674 15.9103C29.1657 17.6364 28.8895 22.9961 25.9241 27.534L26.611 32.9889Z" fill="white"/>
<path d="M23.0771 16.3633C23.0771 16.3633 24.4617 17.7908 24.8614 21.4592L26.4204 16.333L27.4924 16.7224C27.4924 16.7224 26.6675 12.072 23.9783 11.9855C21.2892 11.899 21.5 16.7224 21.5 16.7224L23.0771 16.3633Z" fill="#242F9B"/>
<path opacity="0.5" d="M23.0771 16.3633C23.0771 16.3633 24.4617 17.7908 24.8614 21.4592L26.4204 16.333L27.4924 16.7224C27.4924 16.7224 26.6675 12.072 23.9783 11.9855C21.2892 11.899 21.5 16.7224 21.5 16.7224L23.0771 16.3633Z" fill="white"/>
<path d="M26.9733 11.1348C26.9733 11.1348 25.9922 11.8918 25.8214 12.3893C25.8105 12.4153 25.8032 12.4499 25.7959 12.4888C25.7341 12.7743 25.6978 13.3496 25.6978 13.3496C26.4609 15.2703 25.011 18.5796 25.011 18.5796C24.1534 15.5558 22.5508 13.1247 22.5508 13.1247C24.1243 12.3893 24.4259 8.79883 24.4259 8.79883L25.189 9.49962L26.9733 11.1348Z" fill="#CC7A63"/>
<path opacity="0.2" d="M26.9743 11.133C26.9743 11.133 25.9931 11.89 25.8223 12.3875C25.8114 12.4135 25.8042 12.4481 25.7969 12.487C24.3687 11.1849 24.5504 9.23828 24.5504 9.23828L25.1864 9.49783L26.9743 11.133Z" fill="black"/>
<path d="M28.0508 2.71458C28.0508 2.71458 30.0349 2.05272 30.9979 3.96043C31.9573 5.86814 31.1905 7.31298 30.5219 8.00079" stroke="#1A2E35" stroke-width="3.3645" stroke-miterlimit="10" stroke-linecap="round" stroke-linejoin="round"/>
<path d="M28.8473 2.61129C28.8473 2.61129 30.4645 2.67186 30.9114 4.29838C31.3584 5.92491 31.0277 7.75043 28.6257 9.7187C27.4519 10.6834 24.5374 8.80162 24.5374 8.80162L24.3049 9.64084C23.8761 9.27314 23.5199 8.85353 23.251 8.47718C22.3062 7.15779 22.5497 2.79731 25.1698 1.94078C27.9025 1.04965 28.8473 2.61129 28.8473 2.61129Z" fill="#1A2E35"/>
<path d="M27.2995 3.15377C29.3564 3.48686 29.8651 4.90575 29.727 7.44936C29.5562 10.6289 28.7132 12.7745 26.2203 11.6844C22.8334 10.2049 23.8872 2.60006 27.2995 3.15377Z" fill="#CC7A63"/>
<path d="M28.4112 7.09766C28.4112 7.09766 28.6221 7.78115 28.8949 8.20941C28.8949 8.20941 28.6803 8.51222 28.3203 8.39975L28.4112 7.09766Z" fill="#B84D3C"/>
<path d="M27.187 6.69578C27.1689 6.8991 27.0598 7.05051 26.947 7.0332C26.8343 7.02023 26.7579 6.84286 26.7761 6.63955C26.7943 6.43623 26.9034 6.28482 27.0161 6.30213C27.1325 6.31511 27.2089 6.49247 27.187 6.69578Z" fill="#1A2E35"/>
<path d="M26.9648 6.30848L27.3497 6.18754C27.3497 6.18322 27.1319 6.52876 26.9648 6.30848Z" fill="#1A2E35"/>
<path d="M29.2847 6.93602C29.2665 7.13934 29.1574 7.29074 29.0447 7.27344C28.932 7.26046 28.8556 7.0831 28.8738 6.87978C28.892 6.67647 29.001 6.52506 29.1138 6.54236C29.2265 6.55967 29.3029 6.7327 29.2847 6.93602Z" fill="#1A2E35"/>
<path d="M29.0625 6.54867L29.4474 6.42773C29.4474 6.42773 29.2295 6.76895 29.0625 6.54867Z" fill="#1A2E35"/>
<path d="M27.3604 4.99749C27.3604 4.99749 26.7931 4.81581 26.4258 5.22244" stroke="#1A2E35" stroke-width="4.8763" stroke-miterlimit="10" stroke-linecap="round" stroke-linejoin="round"/>
<path d="M28.8672 5.13878C28.8672 5.13878 29.249 5.03929 29.6636 5.47188" stroke="#1A2E35" stroke-width="4.8763" stroke-miterlimit="10" stroke-linecap="round" stroke-linejoin="round"/>
<path d="M24.5835 6.90925C24.5835 6.90925 25.7755 5.05345 25.8082 3.47883C25.8082 3.47883 30.1072 2.15944 29.7474 7.11257C29.7474 7.11257 30.645 2.80832 27.1237 2.13781C23.606 1.4673 22.7883 7.24234 24.4055 9.37067C24.4018 9.37067 23.8458 8.07291 24.5835 6.90925Z" fill="#1A2E35"/>
<path d="M24.8617 7.48364C24.8944 7.08566 24.6291 6.36324 24.004 6.34593C23.3572 6.3243 22.8775 7.83403 24.4183 8.46561C24.64 8.55645 24.7962 8.30988 24.8617 7.48364Z" fill="#CC7A63"/>
<path d="M28.2202 9.13237C28.1112 9.44361 28.0131 10.0229 28.0131 10.0229C27.9658 10.0229 27.9222 10.0186 27.875 10.0186C27.2536 9.98397 26.9774 9.7246 26.8538 9.44793C26.7884 9.29663 26.7702 9.13669 26.7739 9.007C26.7739 8.8557 26.8029 8.75195 26.8029 8.75195C27.1227 9.00268 27.7005 9.08914 28.0094 9.1194C28.1366 9.12804 28.2202 9.13237 28.2202 9.13237Z" fill="#1A2E35"/>
<path d="M28.0101 9.1177L27.9447 9.37725C27.3592 9.34265 26.9519 9.22585 26.7773 9.00523C26.7773 8.85382 26.8064 8.75 26.8064 8.75C27.1228 9.00523 27.6974 9.08742 28.0101 9.1177Z" fill="white"/>
<path d="M27.8695 10.0202C27.2477 9.98563 26.9713 9.72608 26.8477 9.44922C27.0586 9.47085 27.3131 9.52276 27.5313 9.64821C27.7022 9.74338 27.8041 9.88181 27.8695 10.0202Z" fill="#FD5652"/>
<path d="M22.7541 5.47152L22.9031 1.66475L22.3398 0.613565C22.3398 0.613565 24.5311 -0.446274 26.9005 0.21991L28.8556 2.61212C28.8592 2.60779 25.0835 1.48739 22.7541 5.47152Z" fill="#242F9B"/>
<path opacity="0.6" d="M28.8556 2.60779C28.8556 2.60779 26.7224 1.97621 24.6765 3.35617C23.9969 3.81038 23.3319 4.4809 22.7541 5.47152L22.9031 1.66475L22.3398 0.613565C22.3398 0.613565 24.5311 -0.446274 26.9005 0.21991L28.8556 2.60779Z" fill="white"/>
<path opacity="0.1" d="M24.6765 3.35784C23.9969 3.81205 23.3319 4.48256 22.7541 5.47319L22.9031 1.66642L22.3398 0.615234L24.6765 3.35784Z" fill="black"/>
<path d="M32.4046 30.0605L35.1809 30.8176C35.1809 30.8176 36.1694 30.8652 37.2123 31.2285C38.2516 31.5919 39.3782 32.1197 39.211 32.4441C39.0438 32.7685 37.2414 34.4902 36.6672 34.3778C36.093 34.2653 34.4723 33.1795 34.654 32.6517L31.9648 31.8774L32.4046 30.0605Z" fill="#CC7A63"/>
<path d="M19.8236 12.9923C20.8085 12.6462 22.7236 23.7205 24.1372 25.5936C25.5508 27.4667 34.0579 30.2266 34.0579 30.2266L33.6255 32.4414C33.6255 32.4414 23.1923 30.9317 21.8078 28.5784C20.4233 26.2252 18.49 19.8834 18.2429 16.7169C17.9958 13.5504 19.2458 13.1956 19.8236 12.9923Z" fill="#242F9B"/>
<path opacity="0.5" d="M19.8236 12.9923C20.8085 12.6462 22.7236 23.7205 24.1372 25.5936C25.5508 27.4667 34.0579 30.2266 34.0579 30.2266L33.6255 32.4414C33.6255 32.4414 23.1923 30.9317 21.8078 28.5784C20.4233 26.2252 18.49 19.8834 18.2429 16.7169C17.9958 13.5504 19.2458 13.1956 19.8236 12.9923Z" fill="white"/>
<path d="M28.747 22.345L25.9961 22.1243L26.1923 20.2988L28.9432 20.5194L28.747 22.345Z" fill="#242F9B"/>
<path opacity="0.5" d="M28.604 22.202L26.2383 22.0117L26.4054 20.4414L28.7748 20.6317L28.604 22.202Z" fill="white"/>
<path d="M27.66 19.8008L27.3945 20.6833H27.8382V19.8008H27.66Z" fill="#1A2E35"/>
<path d="M35.9548 32.6509L33.3929 33.2262C33.3929 33.2262 30.7146 32.5297 30.2458 32.6509C29.7807 32.772 28.5742 35.5881 28.5742 35.5881C28.5742 35.5881 32.6915 36.6566 33.2184 36.449C33.7417 36.2413 34.1778 35.4281 34.1778 35.4281L36.1874 34.9868L35.9548 32.6509Z" fill="#FD897B"/>
<path d="M41.196 18.2051C39.9823 20.3723 41.7448 29.1582 41.8538 29.7162C41.9628 30.2743 34.6367 32.6362 34.6367 32.6362L35.6942 36.4819C35.6942 36.4819 44.8264 35.2274 45.8403 33.9296C46.8505 32.6319 45.7131 21.9772 45.7131 21.9772L41.196 18.2051Z" fill="#242F9B"/>
<path opacity="0.4" d="M45.84 33.9296C44.9751 35.0371 38.2086 36.1099 36.2318 36.404C35.8902 36.4559 35.6903 36.4819 35.6903 36.4819L34.6328 32.6362C34.6328 32.6362 34.8145 32.58 35.1125 32.4761C36.7405 31.9397 41.9444 30.1877 41.8499 29.7162C41.7409 29.1582 39.9784 20.3723 41.1921 18.2051L41.9771 18.5987L44.5717 20.9477L45.7092 21.9772C45.7092 21.9772 46.1525 26.1171 46.2397 29.5475V29.5518C46.2942 31.6239 46.2216 33.4408 45.84 33.9296Z" fill="black"/>
<path opacity="0.1" d="M36.2318 36.4005C35.8902 36.4525 35.6903 36.4784 35.6903 36.4784L34.6328 32.6327C34.6328 32.6327 34.8145 32.5765 35.1125 32.4727L36.2318 36.4005Z" fill="black"/>
<path opacity="0.2" d="M46.2422 29.5495C44.745 26.6857 44.5924 23.5495 44.5742 20.9453L45.7117 21.9749C45.7117 21.9792 46.155 26.1191 46.2422 29.5495Z" fill="black"/>
<path d="M24.7534 81.9077L26.5159 47.902H40.6993L42.4618 81.9077H43.7155L41.4516 38.1947C41.3389 36.1183 39.8853 34.4961 38.1374 34.4961H29.0779C27.3299 34.4961 25.8763 36.1226 25.7637 38.199L23.4961 81.9077H24.7534ZM27.0138 38.2899C27.0828 36.9964 27.9913 35.9842 29.0779 35.9842H38.1374C39.2239 35.9842 40.1324 36.9964 40.2015 38.2856L40.623 46.4095H26.5922L27.0138 38.2899Z" fill="#242F9B"/>
<path d="M50.9424 79.6494L48.9837 80.3329L47.8281 75.2846L49.7868 74.6055L50.9424 79.6494Z" fill="#CC7A63"/>
<path d="M48.7662 79.2441H51.1538C51.2337 79.2441 51.3028 79.3134 51.3209 79.4042L51.7098 81.4893C51.7425 81.6753 51.6443 81.8613 51.4845 81.9002C51.4627 81.9046 51.4408 81.9089 51.419 81.9089C50.645 81.8959 50.0817 81.8353 49.1115 81.8353C48.5155 81.8353 46.7094 81.9089 45.8845 81.9089C45.0596 81.9089 44.9506 80.9399 45.2885 80.849C46.8039 80.4554 47.945 79.9103 48.4283 79.3912C48.5264 79.2961 48.6463 79.2441 48.7662 79.2441Z" fill="#1A2E35"/>
<path opacity="0.2" d="M49.7868 74.6055L47.8281 75.2846L48.4277 77.8888L50.3864 77.2053L49.7868 74.6055Z" fill="black"/>
<path d="M57.3119 31.3672C57.3119 31.3672 58.1513 35.8791 57.9732 41.1264C57.7988 46.3693 47.8345 52.8841 47.6455 54.7183C47.4565 56.5524 50.7126 75.7117 50.7126 75.7117L47.2748 77.1652C47.2748 77.1652 40.4829 59.8185 40.403 55.5748C40.323 51.3268 47.8308 41.1264 49.8804 38.3145C50.6762 37.2201 49.8949 32.8207 49.8949 32.8207L57.3119 31.3672Z" fill="#1A2E35"/>
<path opacity="0.3" d="M57.9733 41.1185C57.9115 43.0176 56.5669 45.0767 54.8662 47.0277C52.1589 50.1337 48.5504 52.9455 47.7872 54.3211C47.7036 54.4682 47.6564 54.598 47.6455 54.7104C47.4565 56.5446 50.7126 75.7039 50.7126 75.7039L47.2748 77.1531C47.2748 77.1531 40.4829 59.8106 40.403 55.5626C40.323 51.3146 47.8308 41.1142 49.8804 38.3024C50.6762 37.208 49.8913 32.8085 49.8913 32.8085L57.3082 31.3594C57.3082 31.3637 58.1477 35.8756 57.9733 41.1185Z" fill="white"/>
<path d="M47.054 77.8847L51.2403 76.1933L50.8951 74.8047L46.5234 76.4658L47.054 77.8847Z" fill="#242F9B"/>
<path opacity="0.6" d="M47.054 77.8847L51.2403 76.1933L50.8951 74.8047L46.5234 76.4658L47.054 77.8847Z" fill="white"/>
<path opacity="0.2" d="M54.868 47.0303C52.1607 50.1362 48.5522 52.9481 47.7891 54.3237C47.9344 48.155 54.1921 41.584 54.1921 41.584L54.868 47.0303Z" fill="black"/>
<path d="M60.4232 79.6494L58.4645 80.3329L57.3125 75.2846L59.2676 74.6055L60.4232 79.6494Z" fill="#CC7A63"/>
<path d="M58.2545 79.2441H60.642C60.722 79.2441 60.791 79.3134 60.8092 79.4042L61.198 81.4893C61.2307 81.6753 61.1326 81.8613 60.9727 81.9002C60.9509 81.9046 60.9291 81.9089 60.9073 81.9089C60.1333 81.8959 59.57 81.8353 58.5998 81.8353C58.0038 81.8353 56.1977 81.9089 55.3728 81.9089C54.5479 81.9089 54.4388 80.9399 54.7768 80.849C56.2922 80.4554 57.4332 79.9103 57.9166 79.3912C58.0147 79.2961 58.131 79.2441 58.2545 79.2441Z" fill="#1A2E35"/>
<path opacity="0.2" d="M59.2676 74.6055L57.3125 75.2846L57.9085 77.8888L59.8672 77.2053L59.2676 74.6055Z" fill="black"/>
<path d="M61.2035 30.3066C61.2035 30.3066 62.9587 34.6325 62.7806 39.8755C62.6025 45.1184 57.3115 52.8834 57.1225 54.7175C56.9335 56.5517 60.1896 75.711 60.1896 75.711L56.7518 77.1645C56.7518 77.1645 49.9599 59.8177 49.88 55.5741C49.8 51.3261 54.1899 41.5928 54.1899 41.5928L53.2741 31.9375L61.2035 30.3066Z" fill="#1A2E35"/>
<path opacity="0.3" d="M61.2035 30.3066C61.2035 30.3066 62.9587 34.6325 62.7806 39.8755C62.6025 45.1184 57.3115 52.8834 57.1225 54.7175C56.9335 56.5517 60.1896 75.711 60.1896 75.711L56.7518 77.1645C56.7518 77.1645 49.9599 59.8177 49.88 55.5741C49.8 51.3261 54.1899 41.5928 54.1899 41.5928L53.2741 31.9375L61.2035 30.3066Z" fill="white"/>
<path d="M56.5386 77.8847L60.725 76.1933L60.3798 74.8047L56.0117 76.4658L56.5386 77.8847Z" fill="#242F9B"/>
<path opacity="0.6" d="M56.5386 77.8847L60.725 76.1933L60.3798 74.8047L56.0117 76.4658L56.5386 77.8847Z" fill="white"/>
<path d="M62.7879 36.4723C62.7879 36.4723 50.843 38.6179 49.6583 37.4759C47.9104 35.7931 45.9698 21.7383 41.1875 18.2041C41.1875 18.2041 41.7435 17.0361 42.9645 15.6648C44.1019 14.3887 45.8172 12.9395 48.1974 12.1003C49.5166 11.6374 51.0392 11.3606 52.7799 11.4125C52.7799 11.4125 62.1555 19.3331 62.7879 36.4723Z" fill="#242F9B"/>
<path opacity="0.3" d="M62.7879 36.4746C62.7879 36.4746 50.843 38.6202 49.6583 37.4782C49.5493 37.3744 49.4366 37.2187 49.3276 37.024C47.656 34.0824 45.6718 21.5201 41.1875 18.2064C41.1875 18.2064 41.7435 17.0341 42.9645 15.6672C43.0299 15.5936 43.0953 15.5201 43.1644 15.4465C44.2982 14.2266 45.9516 12.8943 48.1938 12.0983C48.2919 12.0637 48.39 12.0291 48.4918 11.9988C49.7419 11.5922 51.1664 11.3629 52.7762 11.4105C52.7762 11.4105 54.8658 13.1755 57.1407 16.8438C58.2999 18.7169 59.51 21.0831 60.513 23.9642C61.5959 27.0788 62.439 30.7991 62.7188 35.1422C62.7479 35.5835 62.7733 36.0247 62.7879 36.4746Z" fill="black"/>
<path opacity="0.1" d="M48.4954 12C48.2664 13.3583 47.725 16.1701 46.7947 18.7181C46.7947 18.7181 44.3454 17.6409 43.168 15.4434C44.3018 14.2235 45.9552 12.8911 48.1974 12.0952C48.2955 12.0606 48.3936 12.0303 48.4954 12Z" fill="black"/>
<path opacity="0.1" d="M62.7923 36.4784C62.7923 36.4784 50.8474 38.6241 49.6627 37.482C49.5537 37.3782 49.4411 37.2225 49.332 37.0278C51.7595 37.123 56.8071 37.0192 62.7232 35.1504C62.7523 35.5873 62.7777 36.0285 62.7923 36.4784Z" fill="black"/>
<path opacity="0.2" d="M60.5152 23.97C56.3288 22.6549 54.1484 17.0486 54.1484 17.0486L57.1428 16.8496C58.3021 18.7184 59.5122 21.089 60.5152 23.97Z" fill="black"/>
<path d="M47.9144 12.3126C47.1876 15.4662 46.1338 16.0069 45.3088 15.8209C44.582 15.6608 44.0297 14.9384 44.0297 14.9384C44.0297 14.9384 44.1605 14.6875 44.146 14.3241C44.1351 13.9954 44.0115 13.5714 43.5718 13.1561C43.4155 13.0091 43.2411 12.8836 43.0703 12.7582L43.1212 11.9492L43.3756 8.10352C43.7426 8.74807 44.2768 9.66516 44.9055 10.4827C45.0944 10.725 45.2907 10.9672 45.4942 11.1835C46.25 12.0011 47.0968 12.5548 47.9144 12.3126Z" fill="#FD897B"/>
<path opacity="0.2" d="M45.3088 15.8213C44.582 15.6613 44.0297 14.9389 44.0297 14.9389C44.0297 14.9389 44.1605 14.688 44.146 14.3246C44.1351 13.9958 44.0115 13.5719 43.5718 13.1566C43.4155 13.0095 43.2411 12.8841 43.0703 12.7586L43.1212 11.9497L45.4905 11.1797C45.4905 11.184 46.0865 13.9958 45.3088 15.8213Z" fill="black"/>
<path d="M39.3821 7.93933C39.3821 7.93933 38.6735 7.84849 38.5572 8.94726C38.4409 10.0417 38.7534 10.0633 38.7534 10.0633C38.7534 10.0633 38.5136 10.9847 38.8152 11.24C39.1168 11.4995 39.3821 12.594 39.3821 12.594L40.0835 11.0626L39.3821 7.93933Z" fill="#1A2E35"/>
<path opacity="0.6" d="M39.3821 7.93933C39.3821 7.93933 38.6735 7.84849 38.5572 8.94726C38.4409 10.0417 38.7534 10.0633 38.7534 10.0633C38.7534 10.0633 38.5136 10.9847 38.8152 11.24C39.1168 11.4995 39.3821 12.594 39.3821 12.594L40.0835 11.0626L39.3821 7.93933Z" fill="white"/>
<path d="M44.8556 13.5686C44.8083 13.6854 44.7502 13.8065 44.6884 13.9276C43.9943 15.2773 42.7769 15.6969 41.6867 15.3682C40.9854 15.1562 40.3349 14.6284 39.9097 13.8368C39.8516 13.733 39.8007 13.6248 39.7498 13.5124C39.6553 13.2874 39.5645 13.0365 39.4809 12.777C38.8086 10.64 38.1145 7.72434 40.284 6.16702C41.6504 5.18937 43.9434 5.06392 44.7647 6.6991C45.7895 8.74092 45.2008 10.7049 45.2008 10.7049C45.3207 11.5441 45.4443 12.154 44.8556 13.5686Z" fill="#FD897B"/>
<path d="M45.751 8.70262C45.751 8.70262 46.1144 8.68099 45.9654 8.10132C45.8164 7.52166 45.195 7.14963 45.195 7.14963C45.195 7.14963 45.6819 6.75598 45.0387 6.38395C44.7262 6.20226 44.3337 6.17631 43.9703 6.30609C43.7523 6.08979 41.8408 4.26427 40.5399 5.35007C40.5108 5.3717 40.5035 5.41928 40.5253 5.45389C40.5435 5.4885 40.5835 5.49715 40.6125 5.47119C41.7463 4.52383 43.4543 6.01193 43.8322 6.36232C43.7995 6.37963 43.7668 6.39693 43.7341 6.41423C43.3453 6.20659 40.4708 4.73579 39.5005 6.46182C39.4824 6.49642 39.4896 6.54401 39.5187 6.56564C39.5478 6.58727 39.5878 6.57862 39.6059 6.54401C40.4526 5.02995 43.0037 6.20659 43.596 6.50508C43.5306 6.55266 43.4725 6.60457 43.4143 6.66513C42.8184 6.47047 40.9323 5.94271 39.8022 6.67378C39.4024 6.93334 39.1371 7.33132 39.0172 7.85042C39.0099 7.88936 39.0281 7.93262 39.0608 7.94127C39.0681 7.94127 39.0717 7.94559 39.079 7.94559C39.1081 7.94559 39.1335 7.92396 39.1408 7.88936C39.2498 7.40918 39.4933 7.04581 39.8639 6.80356C40.8996 6.13305 42.6621 6.58294 43.3126 6.78626C43.2108 6.92036 43.1236 7.08042 43.0582 7.2621C42.713 8.24408 43.269 8.6161 43.6324 9.11358C43.9885 9.6024 43.8286 10.4243 43.8213 10.4503C43.6142 11.1381 43.0582 11.7004 43.0582 11.7004C43.0582 11.7004 42.7929 11.5231 42.335 11.7004C41.8772 11.8778 41.6264 12.544 41.6264 12.544C40.5253 12.4056 40.3509 13.4741 40.3509 13.4741C39.6241 12.9117 39.2353 11.8562 39.2353 11.8562C39.1262 13.0328 39.4933 14.2916 39.8385 14.8021C40.1837 15.3126 40.3654 14.8021 40.3654 14.8021C40.3654 14.8021 40.449 15.8057 40.9178 16.1777C41.3866 16.5498 41.5537 16.0999 41.5537 16.0999C41.5537 16.0999 41.8008 16.7271 42.6912 17.004C43.5815 17.2808 43.8613 15.7451 43.8613 15.7451C44.8352 16.6276 44.7516 14.5252 44.7516 14.5252C44.7516 14.5252 45.2313 14.681 45.1841 13.6514C45.1477 12.8468 44.5481 11.2938 44.2828 10.6406C44.679 10.5671 45.2895 11.6442 45.2895 11.6442C47.0047 11.8172 45.751 8.70262 45.751 8.70262Z" fill="#1A2E35"/>
<path opacity="0.6" d="M45.751 8.70262C45.751 8.70262 46.1144 8.68099 45.9654 8.10132C45.8164 7.52166 45.195 7.14963 45.195 7.14963C45.195 7.14963 45.6819 6.75598 45.0387 6.38395C44.7262 6.20226 44.3337 6.17631 43.9703 6.30609C43.7523 6.08979 41.8408 4.26427 40.5399 5.35007C40.5108 5.3717 40.5035 5.41928 40.5253 5.45389C40.5435 5.4885 40.5835 5.49715 40.6125 5.47119C41.7463 4.52383 43.4543 6.01193 43.8322 6.36232C43.7995 6.37963 43.7668 6.39693 43.7341 6.41423C43.3453 6.20659 40.4708 4.73579 39.5005 6.46182C39.4824 6.49642 39.4896 6.54401 39.5187 6.56564C39.5478 6.58727 39.5878 6.57862 39.6059 6.54401C40.4526 5.02995 43.0037 6.20659 43.596 6.50508C43.5306 6.55266 43.4725 6.60457 43.4143 6.66513C42.8184 6.47047 40.9323 5.94271 39.8022 6.67378C39.4024 6.93334 39.1371 7.33132 39.0172 7.85042C39.0099 7.88936 39.0281 7.93262 39.0608 7.94127C39.0681 7.94127 39.0717 7.94559 39.079 7.94559C39.1081 7.94559 39.1335 7.92396 39.1408 7.88936C39.2498 7.40918 39.4933 7.04581 39.8639 6.80356C40.8996 6.13305 42.6621 6.58294 43.3126 6.78626C43.2108 6.92036 43.1236 7.08042 43.0582 7.2621C42.713 8.24408 43.269 8.6161 43.6324 9.11358C43.9885 9.6024 43.8286 10.4243 43.8213 10.4503C43.6142 11.1381 43.0582 11.7004 43.0582 11.7004C43.0582 11.7004 42.7929 11.5231 42.335 11.7004C41.8772 11.8778 41.6264 12.544 41.6264 12.544C40.5253 12.4056 40.3509 13.4741 40.3509 13.4741C39.6241 12.9117 39.2353 11.8562 39.2353 11.8562C39.1262 13.0328 39.4933 14.2916 39.8385 14.8021C40.1837 15.3126 40.3654 14.8021 40.3654 14.8021C40.3654 14.8021 40.449 15.8057 40.9178 16.1777C41.3866 16.5498 41.5537 16.0999 41.5537 16.0999C41.5537 16.0999 41.8008 16.7271 42.6912 17.004C43.5815 17.2808 43.8613 15.7451 43.8613 15.7451C44.8352 16.6276 44.7516 14.5252 44.7516 14.5252C44.7516 14.5252 45.2313 14.681 45.1841 13.6514C45.1477 12.8468 44.5481 11.2938 44.2828 10.6406C44.679 10.5671 45.2895 11.6442 45.2895 11.6442C47.0047 11.8172 45.751 8.70262 45.751 8.70262Z" fill="white"/>
<path d="M41.8257 10.0022C41.8765 10.1966 41.8075 10.3866 41.695 10.4169C41.5824 10.4471 41.4662 10.3089 41.4263 10.1102C41.3863 9.91152 41.4481 9.72579 41.557 9.69556C41.6623 9.66532 41.7821 9.80354 41.8257 10.0022Z" fill="#1A2E35"/>
<path d="M39.9311 10.5294C39.982 10.7237 39.9094 10.9138 39.8004 10.944C39.6915 10.9742 39.5717 10.836 39.5317 10.6374C39.4918 10.4387 39.5535 10.2529 39.6625 10.2227C39.7714 10.1925 39.8948 10.3393 39.9311 10.5294Z" fill="#1A2E35"/>
<path d="M40.5544 10.4609C40.4745 11.1271 40.3146 11.776 40.082 12.3903C40.3546 12.5244 40.6635 12.5114 40.9251 12.347L40.5544 10.4609Z" fill="#FD5652"/>
<path d="M42.2815 9.11195C42.2452 9.12925 42.2052 9.1206 42.1761 9.09032C41.9833 8.887 41.7215 8.80481 41.467 8.8697C41.4124 8.89133 41.3579 8.85239 41.3397 8.79183C41.3251 8.72694 41.3542 8.66206 41.4051 8.64043C41.7215 8.54958 42.0561 8.64908 42.2997 8.90431C42.3434 8.94324 42.3506 9.0211 42.3179 9.07302C42.3179 9.07302 42.3179 9.07302 42.3179 9.07734C42.307 9.09032 42.2961 9.09897 42.2815 9.11195Z" fill="#1A2E35"/>
<path d="M38.9698 9.96942C38.9516 9.98239 38.9334 9.99104 38.9116 9.99104C38.8571 9.97807 38.8207 9.91318 38.8353 9.84829C38.8353 9.84829 38.8353 9.84829 38.8353 9.84396C38.9007 9.46329 39.1189 9.14317 39.4171 8.98744C39.468 8.96581 39.5262 8.99609 39.548 9.05665C39.5662 9.11721 39.5407 9.18643 39.4862 9.21238C39.2535 9.34216 39.0862 9.59739 39.0353 9.9002C39.0207 9.93481 38.9989 9.96076 38.9698 9.96942Z" fill="#1A2E35"/>
<path opacity="0.6" d="M42.2815 9.11195C42.2452 9.12925 42.2052 9.1206 42.1761 9.09032C41.9833 8.887 41.7215 8.80481 41.467 8.8697C41.4124 8.89133 41.3579 8.85239 41.3397 8.79183C41.3251 8.72694 41.3542 8.66206 41.4051 8.64043C41.7215 8.54958 42.0561 8.64908 42.2997 8.90431C42.3434 8.94324 42.3506 9.0211 42.3179 9.07302C42.3179 9.07302 42.3179 9.07302 42.3179 9.07734C42.307 9.09032 42.2961 9.09897 42.2815 9.11195Z" fill="white"/>
<path opacity="0.6" d="M38.9698 9.96942C38.9516 9.98239 38.9334 9.99104 38.9116 9.99104C38.8571 9.97807 38.8207 9.91318 38.8353 9.84829C38.8353 9.84829 38.8353 9.84829 38.8353 9.84396C38.9007 9.46329 39.1189 9.14317 39.4171 8.98744C39.468 8.96581 39.5262 8.99609 39.548 9.05665C39.5662 9.11721 39.5407 9.18643 39.4862 9.21238C39.2535 9.34216 39.0862 9.59739 39.0353 9.9002C39.0207 9.93481 38.9989 9.96076 38.9698 9.96942Z" fill="white"/>
<path opacity="0.2" d="M40.5703 13.8297C40.5703 13.8297 40.752 14.046 40.9991 13.7129C40.9991 13.7129 41.3443 14.3618 41.7077 12.9256C41.7077 12.9256 42.678 13.1548 42.9469 12.9256C43.1286 12.7698 42.9469 12.48 42.9469 12.48C42.9469 12.48 43.343 12.4324 43.4412 12.082C43.4412 12.082 43.7537 13.4836 41.9403 13.2197C41.9403 13.2241 41.3553 14.7338 40.5703 13.8297Z" fill="black"/>
<path d="M46.1164 10.2228C45.9965 10.8414 45.6731 11.3778 45.2188 11.7152C44.6156 12.1564 44.1214 11.5681 44.125 10.7722C44.1323 10.0627 44.4484 8.95961 45.1353 8.85146C45.8221 8.73899 46.2582 9.46141 46.1164 10.2228Z" fill="#FD897B"/>
<path opacity="0.2" d="M41.4141 10.3535C41.4141 10.3535 41.5122 10.9245 42.0868 10.7472" stroke="black" stroke-width="3.4439" stroke-miterlimit="10" stroke-linecap="round" stroke-linejoin="round"/>
<path opacity="0.2" d="M40.0121 10.7773C40.0121 10.7773 40.0012 11.4555 39.6055 11.4036" stroke="black" stroke-width="3.4439" stroke-miterlimit="10" stroke-linecap="round" stroke-linejoin="round"/>
<path opacity="0.2" d="M39.3125 8.60917C39.3125 8.60917 40.2101 7.97371 41.1949 8.10339" stroke="black" stroke-width="3.4439" stroke-miterlimit="10" stroke-linecap="round" stroke-linejoin="round"/>
<path opacity="0.2" d="M39.3125 8.25063C39.3125 8.25063 40.0611 7.32986 41.1949 7.71892" stroke="black" stroke-width="3.4439" stroke-miterlimit="10" stroke-linecap="round" stroke-linejoin="round"/>
<path opacity="0.2" d="M39.5469 7.62703C39.5469 7.62703 40.1901 6.93969 41.2621 7.31146" stroke="black" stroke-width="3.4439" stroke-miterlimit="10" stroke-linecap="round" stroke-linejoin="round"/>
<path d="M63.552 28.0703L62.291 29.7185C62.291 29.7185 61.4079 30.3544 61.3534 30.7177C61.2989 31.0811 62.4545 35.8006 62.4545 35.8006C62.4545 35.8006 64.0244 34.3645 63.9772 33.9319C63.9263 33.4993 63.185 31.3666 63.185 31.3666L64.5659 29.8396L63.552 28.0703Z" fill="#FD897B"/>
<path d="M52.7853 11.4102C52.7853 11.4102 63.7781 12.3056 67.8372 17.8903C71.8964 23.475 63.9743 31.3611 63.9743 31.3611L62.5462 28.4671C62.5462 28.4671 65.7586 24.5997 64.5703 21.9739C63.382 19.3481 57.3096 19.5774 57.3096 19.5774C57.3096 19.5774 51.3971 16.6704 52.7853 11.4102Z" fill="#242F9B"/>
<path opacity="0.4" d="M64.563 30.7295C64.2033 31.1361 63.9743 31.3611 63.9743 31.3611L62.5462 28.4671C62.5462 28.4671 62.6697 28.32 62.8551 28.0648C63.6291 27.0093 65.5297 24.0936 64.5703 21.9739C63.382 19.3438 57.3096 19.5774 57.3096 19.5774C57.3096 19.5774 51.3971 16.6747 52.7853 11.4102C52.7853 11.4102 63.7781 12.3056 67.8372 17.886C71.2096 22.5233 66.3182 28.7483 64.563 30.7295Z" fill="black"/>
<path opacity="0.1" d="M64.5598 30.7292C64.2001 31.1358 63.9711 31.3608 63.9711 31.3608L62.543 28.4668C62.543 28.4668 62.6665 28.3197 62.8519 28.0645L64.5598 30.7292Z" fill="black"/>
<path d="M40.9406 41.744H26.5391C26.1939 41.744 25.9141 41.4109 25.9141 40.9999C25.9141 40.5889 26.1939 40.2559 26.5391 40.2559H40.9406C41.2858 40.2559 41.5656 40.5889 41.5656 40.9999C41.5692 41.4065 41.2894 41.744 40.9406 41.744Z" fill="#242F9B"/>
<g opacity="0.2">
<path d="M40.9406 41.744H26.5391C26.1939 41.744 25.9141 41.4109 25.9141 40.9999C25.9141 40.5889 26.1939 40.2559 26.5391 40.2559H40.9406C41.2858 40.2559 41.5656 40.5889 41.5656 40.9999C41.5692 41.4065 41.2894 41.744 40.9406 41.744Z" fill="white"/>
</g>
<path d="M39.6747 64.3768H25.2696C24.9243 64.3768 24.6445 64.0437 24.6445 63.6327C24.6445 63.2218 24.9243 62.8887 25.2696 62.8887H39.6747C40.0199 62.8887 40.2997 63.2218 40.2997 63.6327C40.2997 64.0437 40.0199 64.3768 39.6747 64.3768Z" fill="#242F9B"/>
<g opacity="0.2">
<path d="M39.6747 64.3768H25.2696C24.9243 64.3768 24.6445 64.0437 24.6445 63.6327C24.6445 63.2218 24.9243 62.8887 25.2696 62.8887H39.6747C40.0199 62.8887 40.2997 63.2218 40.2997 63.6327C40.2997 64.0437 40.0199 64.3768 39.6747 64.3768Z" fill="white"/>
</g>
<path d="M39.5154 81.8998L41.2779 47.8942H55.4613L57.2238 81.8998H58.4775L56.2172 38.1869C56.1045 36.1105 54.651 34.4883 52.903 34.4883H43.8435C42.0956 34.4883 40.642 36.1148 40.5293 38.1912L38.2617 81.8998H39.5154ZM41.7794 38.2821C41.8485 36.9886 42.7569 35.9764 43.8435 35.9764H52.903C53.9896 35.9764 54.8981 36.9886 54.9671 38.2777L55.3886 46.4017H41.3579L41.7794 38.2821Z" fill="#242F9B"/>
<path opacity="0.2" d="M39.5154 81.8998L41.2779 47.8942H55.4613L57.2238 81.8998H58.4775L56.2172 38.1869C56.1045 36.1105 54.651 34.4883 52.903 34.4883H43.8435C42.0956 34.4883 40.642 36.1148 40.5293 38.1912L38.2617 81.8998H39.5154ZM41.7794 38.2821C41.8485 36.9886 42.7569 35.9764 43.8435 35.9764H52.903C53.9896 35.9764 54.8981 36.9886 54.9671 38.2777L55.3886 46.4017H41.3579L41.7794 38.2821Z" fill="white"/>
</svg>
