<svg width="108" height="85" viewBox="0 0 108 85" fill="none" xmlns="http://www.w3.org/2000/svg">
<path d="M87.5505 62.8825C85.2468 61.6972 83.5649 59.4685 83.122 57.0103C82.0405 51.0004 88.3765 46.7517 92.2514 43.0289C95.9219 39.5065 99.8734 35.2619 99.3029 30.333C98.9281 27.1027 96.5479 24.298 93.6055 22.6411C90.6632 20.9842 87.2141 20.3332 83.8119 20.041C80.9163 19.7906 77.5737 19.5694 75.879 17.3199C73.1027 13.6304 77.3353 8.23821 75.4915 4.05214C73.8308 0.283428 68.4997 -0.217398 64.2118 0.0664034C51.5822 0.901113 38.3948 3.76417 29.1675 12.0069C25.6673 15.1371 21.3156 18.405 18.1007 21.7981C14.8858 25.1912 11.9562 29.0684 11.0748 33.5591C10.1976 38.0499 11.8625 43.2459 16.044 45.4955C20.0381 47.6449 24.045 46.9604 26.6893 51.2258C27.328 52.2525 27.8432 53.3668 28.0136 54.5521C28.9376 61.067 21.5412 67.92 17.5769 72.3147C15.9674 74.101 14.311 75.9624 13.6211 78.2245C13.6126 78.2453 13.6084 78.2704 13.5999 78.2912C12.6758 81.4381 15.2222 84.5474 18.6585 84.5474H91.0634C93.6524 84.5474 95.8666 82.7486 96.237 80.3112C97.3995 72.6903 92.9923 65.6871 87.5505 62.8825Z" fill="#F5F5F5"/>
<path d="M13.4123 70.1719C13.1017 69.358 12.54 68.6111 12.6038 67.7049C12.6719 66.7945 13.3697 66.0938 13.3655 65.1792C13.3612 63.8282 11.872 63.0898 11.8677 61.7346C11.8677 61.2773 12.0422 60.8535 12.123 60.4088C12.2549 59.6536 12.089 58.8229 11.689 58.2523C11.4082 57.8495 11.0295 57.5852 10.7316 57.2034C10.4338 56.8216 10.2125 56.2468 10.37 55.7433C10.2636 55.2986 9.88064 54.9 9.52748 54.9839C9.17857 54.9 8.79137 55.3028 8.68499 55.7433C8.84243 56.2468 8.62117 56.8258 8.32332 57.2034C8.02547 57.5852 7.64678 57.8495 7.36595 58.2523C6.96598 58.8229 6.79578 59.6578 6.93194 60.4088C7.00853 60.8535 7.18724 61.2773 7.18724 61.7346C7.18298 63.0856 5.69374 63.824 5.68948 65.1792C5.68948 66.0938 6.3873 66.7945 6.45113 67.7049C6.51495 68.6111 5.95329 69.358 5.64268 70.1719C5.29377 71.0949 5.27675 72.2571 5.71076 73.1172C6.96172 75.1688 12.089 75.1688 13.3399 73.1172C13.7782 72.2571 13.7612 71.0949 13.4123 70.1719Z" fill="#D6D6D6"/>
<path d="M12.739 68.6327C11.7859 69.627 10.2966 70.3612 9.71369 70.6298V66.9502C9.96899 66.8411 10.5689 66.5642 11.2412 66.1573C12.1263 65.6244 12.7943 65.0706 13.2411 64.5126C13.1985 64.4035 13.1517 64.2986 13.0964 64.1937C12.2156 65.4021 10.3775 66.3125 9.71369 66.6146V62.9393C10.0754 62.8008 11.0795 62.3812 11.8752 61.7771C11.8752 61.7645 11.8752 61.7519 11.8752 61.7393C11.8752 61.6093 11.888 61.4792 11.9135 61.3533C11.2072 61.9617 10.1775 62.419 9.71794 62.6078V59.0206C10.0413 58.8905 10.8796 58.5255 11.4965 58.0053C11.4284 57.9297 11.3561 57.8542 11.2838 57.7829C10.7732 58.2108 10.0796 58.5339 9.71794 58.6891V55.4795C9.71794 55.3788 9.63284 55.2949 9.53072 55.2949C9.4286 55.2949 9.3435 55.3788 9.3435 55.4795V60.8037C8.87971 60.6233 7.63726 60.1031 6.92242 59.4024C6.90114 59.5283 6.89263 59.6583 6.88838 59.7842C7.73512 60.51 9.00736 61.0051 9.3435 61.1268V64.3028C8.86269 64.1182 7.55216 63.5644 6.85434 62.8302C6.80328 62.9225 6.74371 63.0106 6.68839 63.0987C7.51812 63.9252 8.98183 64.4958 9.34776 64.6301V68.0705C8.83716 67.9152 7.31813 67.4243 6.18205 66.7405C6.24588 66.8873 6.30545 67.0383 6.35651 67.1936C7.55641 67.8481 8.97332 68.2802 9.34776 68.3893V72.6814C8.78185 72.5345 6.90965 72.0227 5.40339 71.2969C5.39488 71.4101 5.39062 71.5192 5.39062 71.6325C5.85442 71.8507 6.38629 72.0688 6.98199 72.2786C8.06701 72.6646 9.04565 72.9205 9.34776 72.9961V74.6533C9.47115 74.6575 9.5988 74.6575 9.7222 74.6533V70.9654C9.9775 70.8563 10.5774 70.5794 11.2497 70.1724C11.9093 69.7739 12.4496 69.3669 12.8666 68.9515C12.8156 68.8466 12.7773 68.7417 12.739 68.6327Z" fill="#F5F5F5"/>
<path d="M16.3001 72.1231C16.2022 71.4686 15.9341 70.7931 16.1809 70.1176C16.432 69.4379 17.1085 69.0813 17.351 68.4268C17.7212 67.466 16.9298 66.4926 17.4191 65.4982C17.5851 65.1668 17.8659 64.9235 18.0914 64.6382C18.4744 64.1557 18.7126 63.5221 18.7126 62.9725C18.7126 62.5865 18.5977 62.2467 18.5935 61.8607C18.5892 61.4747 18.7424 60.9754 19.0998 60.6985C19.2658 60.3503 19.2573 59.9055 19.002 59.8049C18.8403 59.5867 18.385 59.6916 18.0829 59.9643C17.9042 60.3922 17.4702 60.7111 17.0915 60.8705C16.7085 61.03 16.3383 61.0803 15.9554 61.2817C15.415 61.567 14.9002 62.167 14.6491 62.8257C14.5002 63.2117 14.4406 63.6144 14.2492 63.9878C13.7045 65.0829 12.394 65.2885 11.9259 66.4926C11.6196 67.3065 11.9132 68.0827 11.726 68.9009C11.543 69.7148 10.9643 70.2896 10.5771 71.0028C10.1346 71.8042 9.94311 72.9118 10.1814 73.7509C10.926 75.7984 14.7938 75.79 15.8788 74.3593C16.2788 73.73 16.4064 72.8699 16.3001 72.1231Z" fill="#E8E8E8"/>
<path d="M18.7035 62.825C17.9717 63.0473 17.3079 63.0599 16.959 63.0473C17.4058 62.2838 17.8993 61.5285 18.4397 60.7901C18.4908 60.723 18.4738 60.6265 18.4057 60.5761C18.3376 60.5258 18.2397 60.5426 18.1887 60.6097C17.6015 61.4069 17.0739 62.2292 16.5973 63.0515C16.5633 63.0767 16.5377 63.1103 16.5335 63.1564C16.5335 63.1606 16.5335 63.1606 16.5335 63.1648C16.3122 63.5508 16.1037 63.9368 15.9038 64.3228C15.6314 64.1508 15.0017 63.6893 14.6145 62.9089C14.5677 63.0473 14.5251 63.1858 14.4868 63.3243C14.9166 64.0333 15.5038 64.4445 15.7633 64.5997C15.4995 65.12 15.257 65.6402 15.0315 66.1563C14.9804 66.1689 14.9166 66.3409 14.9379 66.3744C14.7592 66.7898 14.5932 67.1968 14.44 67.6037C14.1252 67.4149 13.1082 66.7101 12.7593 65.422C12.67 65.4934 12.5849 65.5689 12.4998 65.6486C12.9338 67.0331 14.0486 67.7338 14.3294 67.8932C13.9635 68.8708 13.6571 69.8106 13.4103 70.6749C12.9848 70.4358 12.1594 69.8693 11.7381 68.854C11.7339 68.8666 11.7339 68.8792 11.7296 68.8876C11.6956 69.0302 11.653 69.1645 11.602 69.2946C12.1083 70.2511 12.921 70.7714 13.3252 70.9812C13.0316 72.0301 12.8189 72.9615 12.67 73.7125C12.1721 73.4985 10.8956 72.8314 10.351 71.4972C10.2957 71.6399 10.2531 71.7867 10.2148 71.9378C10.8871 73.2216 12.1551 73.8342 12.6104 74.0188C12.504 74.5684 12.4402 74.9963 12.3977 75.2816C12.4998 75.2984 12.6019 75.3152 12.704 75.3236C12.7466 75.0383 12.8146 74.6062 12.9168 74.0523C12.938 74.0356 12.9763 73.8929 12.9551 73.8551C13.0104 73.574 13.0742 73.2636 13.1508 72.9279C13.2997 72.9489 13.6103 72.9825 14.0358 72.9825C14.6358 72.9825 15.457 72.9153 16.342 72.6468C16.342 72.5419 16.3378 72.4328 16.3293 72.328C14.8953 72.7769 13.5976 72.672 13.2231 72.6258C13.3337 72.1559 13.4614 71.6441 13.6146 71.0987C13.6188 71.0987 13.6231 71.0987 13.6273 71.0987C13.6869 71.0987 13.7678 70.8427 13.6954 70.8092C13.7933 70.4651 13.9039 70.1085 14.0188 69.7393C14.1379 69.7561 14.4188 69.7896 14.8102 69.7896C15.257 69.7896 15.8442 69.7477 16.4867 69.5882C16.6016 69.4414 16.7292 69.3029 16.8526 69.1645C15.5974 69.5715 14.4528 69.4834 14.1124 69.4414C14.4188 68.5058 14.7889 67.5072 15.2272 66.4835C15.4612 66.5297 15.8995 66.601 16.4484 66.601C16.7037 66.601 16.9845 66.5842 17.2781 66.5465C17.2653 66.4458 17.2568 66.3409 17.2568 66.2402C16.4186 66.3535 15.7038 66.2612 15.3506 66.1982C15.7676 65.2542 16.2442 64.2892 16.7888 63.3326C16.8781 63.341 17.0058 63.3494 17.1717 63.3494C17.5462 63.3494 18.0951 63.3075 18.6993 63.1355C18.7035 63.0767 18.7078 63.018 18.7078 62.9592C18.712 62.9215 18.7078 62.8753 18.7035 62.825Z" fill="#D6D6D6"/>
<path d="M2.91135 71.7051C3.00921 71.0506 3.27728 70.3751 3.03049 69.6996C2.77944 69.0199 2.1029 68.6633 1.86037 68.0088C1.49019 67.048 2.28161 66.0746 1.79229 65.0803C1.62634 64.7488 1.34552 64.5055 1.12 64.2202C0.737053 63.7377 0.498774 63.1042 0.498774 62.5545C0.498774 62.1685 0.613658 61.8287 0.617913 61.4427C0.622168 61.0567 0.468989 60.5575 0.111571 60.2805C-0.0543736 59.9323 -0.0458635 59.4876 0.209435 59.3869C0.371125 59.1687 0.826407 59.2736 1.12851 59.5463C1.30722 59.9743 1.74123 60.2931 2.11992 60.4526C2.50287 60.612 2.87305 60.6623 3.256 60.8637C3.79638 61.149 4.31124 61.749 4.56228 62.4077C4.71121 62.7937 4.77078 63.1965 4.96225 63.5699C5.50689 64.6649 6.81742 64.8705 7.28547 66.0746C7.59183 66.8886 7.29823 67.6648 7.48545 68.4829C7.66842 69.2968 8.2471 69.8716 8.6343 70.5849C9.07682 71.3862 9.26829 72.4939 9.03001 73.333C8.28539 75.3804 4.41761 75.372 3.33259 73.9413C2.93262 73.312 2.80497 72.4519 2.91135 71.7051Z" fill="#E8E8E8"/>
<path d="M0.506018 62.407C1.23787 62.6294 1.90165 62.642 2.25056 62.6294C1.80379 61.8658 1.31021 61.1106 0.769826 60.3722C0.718767 60.305 0.735787 60.2085 0.803866 60.1582C0.871946 60.1078 0.96981 60.1246 1.02087 60.1917C1.60806 60.9889 2.13568 61.8112 2.61223 62.6336C2.64627 62.6587 2.6718 62.6923 2.67606 62.7385C2.67606 62.7427 2.67606 62.7427 2.67606 62.7468C2.89732 63.1328 3.10581 63.5188 3.3058 63.9048C3.57811 63.7328 4.20785 63.2713 4.59505 62.4909C4.64186 62.6294 4.68441 62.7678 4.7227 62.9063C4.29295 63.6153 3.70576 64.0265 3.44621 64.1817C3.71002 64.702 3.95255 65.2222 4.17807 65.7383C4.22913 65.7509 4.29295 65.9229 4.27168 65.9565C4.45039 66.3718 4.61633 66.7788 4.76951 67.1858C5.08438 66.997 6.10132 66.2921 6.45023 65.0041C6.53958 65.0754 6.62468 65.1509 6.70978 65.2306C6.27577 66.6152 5.16097 67.3158 4.88014 67.4753C5.24607 68.4528 5.55243 69.3926 5.79922 70.2569C6.22471 70.0178 7.05018 69.4514 7.47142 68.436C7.47568 68.4486 7.47568 68.4612 7.47993 68.4696C7.51397 68.6123 7.55652 68.7465 7.60758 68.8766C7.10124 69.8332 6.28854 70.3534 5.88432 70.5632C6.17791 71.6121 6.39066 72.5435 6.53958 73.2945C7.03742 73.0806 8.31391 72.4135 8.85855 71.0793C8.91386 71.2219 8.95641 71.3688 8.99471 71.5198C8.32242 72.8036 7.05443 73.4162 6.59915 73.6008C6.70553 74.1504 6.76935 74.5784 6.8119 74.8637C6.70978 74.8805 6.60766 74.8972 6.50554 74.9056C6.46299 74.6203 6.39491 74.1882 6.29279 73.6344C6.27152 73.6176 6.23322 73.4749 6.2545 73.4372C6.19918 73.1561 6.13536 72.8456 6.05877 72.51C5.90984 72.5309 5.59923 72.5645 5.17373 72.5645C4.57378 72.5645 3.75257 72.4974 2.86753 72.2289C2.86753 72.124 2.87179 72.0149 2.8803 71.91C4.31423 72.3589 5.612 72.254 5.98643 72.2079C5.87581 71.738 5.74816 71.2261 5.59498 70.6807C5.59072 70.6807 5.58647 70.6807 5.58221 70.6807C5.52264 70.6807 5.4418 70.4248 5.51413 70.3912C5.41627 70.0472 5.30564 69.6905 5.19075 69.3213C5.07161 69.3381 4.79078 69.3717 4.39933 69.3717C3.95255 69.3717 3.36537 69.3297 2.72286 69.1703C2.60798 69.0234 2.48033 68.885 2.35693 68.7465C3.61215 69.1535 4.75674 69.0654 5.09714 69.0234C4.79078 68.0878 4.4206 67.0893 3.98234 66.0655C3.74831 66.1117 3.31005 66.183 2.76116 66.183C2.50586 66.183 2.22503 66.1662 1.93144 66.1285C1.9442 66.0278 1.95271 65.9229 1.95271 65.8222C2.79094 65.9355 3.50578 65.8432 3.85894 65.7803C3.44196 64.8362 2.9654 63.8713 2.42076 62.9147C2.3314 62.9231 2.20376 62.9315 2.03781 62.9315C1.66337 62.9315 1.11448 62.8895 0.510272 62.7175C0.506017 62.6587 0.501762 62.6 0.501762 62.5413C0.497507 62.5077 0.501763 62.4574 0.506018 62.407Z" fill="#D6D6D6"/>
<path d="M14.3007 82.7705H4.76532L2.43359 74.6562H16.6325L14.3007 82.7705Z" fill="#D6D6D6"/>
<path d="M93.3413 55.2985C93.3413 55.2985 93.2945 57.4802 95.4007 57.69C95.6475 57.9543 95.656 58.1138 95.656 58.1138C95.656 58.1138 94.4519 58.8396 93.0009 57.5222C92.2138 56.8215 92.869 55.0845 92.869 55.0845C92.869 55.0845 93.086 54.8454 93.3413 55.2985Z" fill="#D6D6D6"/>
<path d="M92.3386 55.2867C92.3386 55.2867 92.7386 57.5355 95.0575 57.3257C95.3767 57.5481 95.4235 57.7075 95.4235 57.7075C95.4235 57.7075 94.2746 58.6977 92.4365 57.6404C91.4408 57.0782 91.7897 55.1608 91.7897 55.1608C91.7897 55.1608 91.9684 54.8755 92.3386 55.2867Z" fill="#E8E8E8"/>
<path d="M95.9143 56.6621C96.2315 56.6621 96.4887 56.4085 96.4887 56.0957C96.4887 55.7829 96.2315 55.5293 95.9143 55.5293C95.597 55.5293 95.3398 55.7829 95.3398 56.0957C95.3398 56.4085 95.597 56.6621 95.9143 56.6621Z" fill="#D6D6D6"/>
<path d="M96.4846 57.2285C96.8018 57.2285 97.059 56.9749 97.059 56.6621C97.059 56.3493 96.8018 56.0957 96.4846 56.0957C96.1673 56.0957 95.9102 56.3493 95.9102 56.6621C95.9102 56.9749 96.1673 57.2285 96.4846 57.2285Z" fill="#D6D6D6"/>
<path d="M96.0824 56.6621C96.0824 56.9726 95.8271 57.2285 95.508 57.2285C95.1931 57.2285 94.9336 56.9768 94.9336 56.6621C94.9336 56.3474 95.1889 56.0957 95.508 56.0957C95.8271 56.0957 96.0824 56.3474 96.0824 56.6621Z" fill="#E8E8E8"/>
<path d="M97.6371 57.2266C97.6371 57.537 97.3818 57.793 97.0627 57.793C96.7436 57.793 96.4883 57.5412 96.4883 57.2266C96.4883 56.9161 96.7436 56.6602 97.0627 56.6602C97.3818 56.6602 97.6371 56.9161 97.6371 57.2266Z" fill="#E8E8E8"/>
<path d="M95.5551 57.2266C95.5551 57.537 95.2998 57.793 94.9807 57.793C94.6615 57.793 94.4062 57.5412 94.4062 57.2266C94.4062 56.9161 94.6615 56.6602 94.9807 56.6602C95.2998 56.6602 95.5551 56.9161 95.5551 57.2266Z" fill="#D6D6D6"/>
<path d="M96.5629 57.1523C96.5629 57.4628 96.3076 57.7187 95.9885 57.7187C95.6694 57.7187 95.4141 57.467 95.4141 57.1523C95.4141 56.8419 95.6694 56.5859 95.9885 56.5859C96.3076 56.5859 96.5629 56.8419 96.5629 57.1523Z" fill="#E8E8E8"/>
<path d="M103.653 50.0742H102.832V55.0628H103.653V50.0742Z" fill="#E8E8E8"/>
<path d="M105.065 55.8191C104.529 55.6261 104.474 53.7969 104.474 53.7969H103.244H102.014C102.014 53.7969 101.959 55.6261 101.423 55.8191C100.887 56.0121 100.027 56.3562 100.027 57.7491C100.027 58.6763 100.929 59.335 103.244 59.335C105.559 59.335 106.461 58.6763 106.461 57.7491C106.461 56.3562 105.601 56.0121 105.065 55.8191Z" fill="#E8E8E8"/>
<path d="M105.644 46.5098H103.248H100.849L99.1211 51.2256H103.248H107.371L105.644 46.5098Z" fill="#D6D6D6"/>
<path d="M89.4531 58.8789V82.156H91.253V76.6094H106.175V82.156H107.979V58.8789H89.4531Z" fill="#D6D6D6"/>
<path d="M106.204 60.1973H91.2227V64.5858H106.204V60.1973Z" fill="#E8E8E8"/>
<path d="M106.204 65.4883H91.2227V69.8769H106.204V65.4883Z" fill="#E8E8E8"/>
<path d="M106.204 70.7773H91.2227V75.1659H106.204V70.7773Z" fill="#E8E8E8"/>
<path d="M100.622 62.0176H96.7969V62.7686H100.622V62.0176Z" fill="#D6D6D6"/>
<path d="M100.622 67.3086H96.7969V68.0596H100.622V67.3086Z" fill="#D6D6D6"/>
<path d="M100.622 72.5996H96.7969V73.3506H100.622V72.5996Z" fill="#D6D6D6"/>
<path d="M91.6016 57.3145C91.6016 58.1787 92.3122 58.8752 93.1844 58.8752H96.5076C97.3841 58.8752 98.0904 58.1745 98.0904 57.3145H91.6016Z" fill="#E8E8E8"/>
<path d="M79.1721 77.2207C73.4449 77.2207 68.4155 77.934 65.5349 79.0122C62.6543 77.934 57.6249 77.2207 51.8977 77.2207C45.528 77.2207 40.022 78.1018 37.3754 79.3856C35.1671 78.9745 32.4014 78.7311 29.3931 78.7311C22.1937 78.7311 16.3516 80.1324 16.3516 81.861C16.3516 83.5896 22.1894 84.9909 29.3931 84.9909C33.6991 84.9909 37.5158 84.4916 39.8901 83.7197C42.8516 84.5042 47.1364 84.9993 51.8977 84.9993C57.6249 84.9993 62.6543 84.2861 65.5349 83.2078C68.4155 84.2861 73.4449 84.9993 79.1721 84.9993C88.1161 84.9993 95.3666 83.2581 95.3666 81.1142C95.3666 78.9703 88.1161 77.2207 79.1721 77.2207Z" fill="#F5F5F5"/>
<path d="M70.7148 23.5457C70.7148 23.5457 73.0551 20.936 71.5914 16.5936C70.3532 12.9309 69.2341 3.88519 78.1908 3.47822C79.6631 3.30201 84.4925 3.33977 86.3179 9.02897C88.1433 14.7182 84.8116 18.3683 87.8029 23.4534C85.2754 24.5064 75.2507 25.4043 70.7148 23.5457Z" fill="#2B2627"/>
<path opacity="0.5" d="M86.837 14.3066C85.4413 15.8926 79.8843 21.2629 71.7063 16.9708C72.9189 21.0867 70.7148 23.5453 70.7148 23.5453C75.2507 25.4039 85.2754 24.5061 87.8029 23.4614C85.8328 20.1133 86.5987 17.3946 86.837 14.3066Z" fill="#2B2627"/>
<path d="M84.5778 74.8945C84.5778 74.8945 85.2799 75.612 85.9479 76.2329C86.616 76.8539 87.0074 77.4706 87.284 78.0119C87.5606 78.5531 86.382 78.9097 86.382 78.9097L85.782 78.3391C85.782 78.3391 84.5821 81.5655 80.3824 81.8424C79.7952 81.7249 80.1782 80.9152 80.9654 80.1012C81.7525 79.2873 82.527 77.4958 81.9993 76.5056C82.4504 75.4567 84.0417 74.6973 84.5778 74.8945Z" fill="#790016"/>
<path d="M84.575 74.895C84.4133 72.8266 82.3965 67.3136 79.1159 64.2299C79.3669 61.0538 81.9284 52.2557 79.5669 51.232C76.7416 50.0069 73.5929 51.232 73.5929 51.232C73.5929 51.232 73.3504 61.1713 74.2354 64.5152C75.3672 66.185 81.1795 74.6769 81.988 76.5103C82.439 77.3536 81.9454 78.7676 81.3029 79.6738C81.6008 79.9675 82.1284 79.8836 83.073 79.2333C84.9069 77.962 84.575 74.895 84.575 74.895Z" fill="#FFA18F"/>
<path opacity="0.5" d="M79.1185 64.225C79.2504 62.5551 80.0205 59.3287 80.3779 56.4967C78.127 55.7289 75.3485 54.9989 75.1358 55.045C75.0167 55.0744 74.3699 55.5485 73.5742 56.1611C73.6168 59.1651 73.7699 62.7481 74.238 64.5103C75.0081 65.6515 77.9569 69.9561 80.012 73.1657C80.6247 71.6763 81.2672 69.2555 81.7012 67.4807C80.9651 66.285 80.0971 65.148 79.1185 64.225Z" fill="#FFA18F"/>
<path d="M76.17 77.5312C76.17 77.5312 76.2295 78.3451 76.3402 79.2429C76.4508 80.1408 76.2763 80.5268 76.1359 81.1184C75.9955 81.7099 74.8594 81.2358 74.8594 81.2358L74.8424 80.7576C74.8424 80.7576 71.8299 82.4819 68.4174 80.0485C68.0387 79.587 68.8642 79.2052 69.996 79.0751C71.1278 78.9451 73.0213 78.3073 73.2596 77.2123C74.2893 76.692 75.8849 77.0445 76.17 77.5312Z" fill="#790016"/>
<path d="M78.8345 51.9079C78.8345 51.9079 76.2092 61.3647 75.639 64.5156C75.0646 67.6665 73.2605 77.203 73.2605 77.203C73.0733 78.0673 71.8521 78.6463 70.7883 78.919C70.7075 79.4099 71.3117 79.7665 72.9243 79.5693C74.9752 79.3176 76.1709 77.5303 76.1709 77.5303C77.1198 76.2003 79.7366 70.7293 79.7366 67.0246C80.8854 64.8429 83.4256 61.3689 84.6553 56.5986C85.8808 51.8282 81.8641 51.7485 78.8345 51.9079Z" fill="#FFB39F"/>
<path opacity="0.5" d="M84.6469 56.5969C84.7959 56.0179 84.8682 55.5102 84.8725 55.0655C83.0215 54.9606 80.226 55.4473 79.758 55.5396C79.5325 55.5858 78.6644 55.9172 77.6305 56.3326C76.8603 59.2401 75.9413 62.8105 75.6306 64.5181C75.5115 65.1852 75.3328 66.1334 75.1328 67.2201C75.8008 66.511 76.3625 65.4747 77.2731 64.5769C78.3368 63.528 81.1068 62.4162 82.6428 61.8497C83.4045 60.3184 84.1406 58.5688 84.6469 56.5969Z" fill="#FFB39F"/>
<path d="M75.1623 20.9488C73.7454 20.8901 73.1667 22.5054 73.1667 22.5054C73.1667 22.518 73.1624 22.5767 73.1624 22.6187L73.1539 22.7571L73.1326 23.0466C73.1156 23.2396 73.0943 23.4368 73.0688 23.634C73.0178 24.0284 72.9582 24.4186 72.8816 24.8088C72.7327 25.5849 72.5284 26.3443 72.2689 27.0534C71.9157 28.0268 71.4051 29.0589 70.6052 29.7595C69.8052 30.4602 68.716 30.7875 67.7203 31.1063C66.9246 31.3623 66.1077 31.5888 65.2779 31.7818C64.4482 31.9748 63.6015 32.1426 62.7547 32.2853C62.3292 32.3566 61.9037 32.4237 61.4782 32.4825C61.057 32.5412 60.8613 32.5706 60.4613 32.6083C60.3337 32.4825 60.1762 32.386 59.989 32.3272C59.989 32.3272 59.2997 31.635 58.7295 31.7315C58.1594 31.8238 57.453 31.4504 57.219 31.5259C56.9807 31.6014 57.4998 32.4615 58.3466 32.5244C58.6955 32.5664 58.1126 33.2628 56.8616 33.0992C55.6106 32.9314 55.3255 32.772 55.1085 33.0405C54.8915 33.309 54.8873 34.8152 55.9085 35.2432C56.8701 35.6459 58.9125 35.625 60.4528 34.9411C60.9421 34.9243 67.699 34.3453 68.6138 34.1145C70.7158 33.5649 72.6944 32.8265 74.0985 31.1021C74.4389 30.6826 74.741 30.242 75.0091 29.7973C75.2729 29.3526 75.5027 28.8994 75.7112 28.4421C76.1196 27.5275 76.4345 26.6045 76.6813 25.6689C76.8047 25.2031 76.9153 24.7332 77.0047 24.2591C77.0515 24.0242 77.094 23.785 77.1323 23.5459L77.1876 23.1809L77.2132 22.9921L77.2387 22.7781C77.2302 22.7739 76.5792 21.0076 75.1623 20.9488Z" fill="#FFB39F"/>
<path opacity="0.5" d="M74.4555 25.8882L72.694 25.6406C72.5748 26.1231 72.4344 26.5972 72.2685 27.0503C71.9919 27.8097 71.6175 28.6027 71.0898 29.2488C71.5579 30.1257 72.294 31.6571 72.2983 32.6598C72.962 32.2487 73.5662 31.741 74.0939 31.0949C74.4343 30.6753 74.7364 30.2348 75.0044 29.7901C75.2682 29.3453 75.498 28.8922 75.7065 28.4349C75.8001 28.2209 75.8937 28.0069 75.9788 27.7888L74.4555 25.8882Z" fill="#FFB39F"/>
<path d="M71.3789 27.1796C71.3789 27.1796 73.1192 28.6271 76.4764 28.2201C76.4764 28.2201 79.4378 21.9058 75.5318 20.429C73.9021 19.8919 72.2469 21.2681 71.3789 27.1796Z" fill="#00A7E8"/>
<path d="M80.2028 4.94105C79.6795 4.76064 79.1263 4.68932 78.5732 4.72288C76.8669 4.82358 73.2587 5.51165 72.4928 9.4513C71.4801 14.6538 73.3864 19.185 78.437 19.185C81.1474 19.1934 85.3046 16.4705 84.4025 9.76596C84.0451 8.00382 83.4451 6.05288 80.2028 4.94105Z" fill="#FFB39F"/>
<path d="M84.14 13.0632C84.14 13.0632 84.8803 12.3751 85.459 12.8911C86.0377 13.4072 85.8505 15.1232 84.5016 15.7525C83.1528 16.3819 82.7954 15.1064 84.14 13.0632Z" fill="#FFB39F"/>
<path d="M74.6443 11.7465C75.023 11.7339 75.3379 12.0276 75.3506 12.3968L75.3761 13.1898C75.3889 13.5632 75.0911 13.8736 74.7166 13.8862C74.3379 13.8988 74.0231 13.6051 74.0103 13.2359L73.9848 12.4429C73.972 12.0695 74.2699 11.7591 74.6443 11.7465Z" fill="#2A2627"/>
<path d="M79.6036 16.1738C79.6036 16.1738 77.5017 16.7025 76.0039 16.2116C76.1826 17.3947 76.7826 18.0954 78.0548 18.0367C79.3228 17.9779 79.6036 16.1738 79.6036 16.1738Z" fill="#D87E66"/>
<path d="M77.201 12.4169L76.7968 13.3273C76.6649 13.6336 76.533 13.9357 76.3883 14.2294C76.35 14.3007 76.316 14.3762 76.2777 14.4433C76.2564 14.4769 76.2394 14.5147 76.2181 14.5398L76.1883 14.586C76.1713 14.6196 76.1543 14.6531 76.1415 14.6867C76.1202 14.7622 76.116 14.8545 76.15 14.93C76.1628 14.972 76.1841 14.9972 76.2053 15.0307C76.2266 15.0643 76.2479 15.0853 76.2692 15.1062C76.3585 15.1944 76.4521 15.2321 76.5415 15.2699C76.7245 15.3328 76.9032 15.3622 77.0819 15.3664C77.2606 15.3706 77.4393 15.3538 77.6095 15.2909C77.6223 15.2867 77.6265 15.2741 77.6223 15.2657C77.618 15.2615 77.6137 15.2531 77.6095 15.2531C77.2819 15.1524 76.967 15.0517 76.7074 14.9174C76.6479 14.8839 76.5883 14.8461 76.5585 14.8168C76.55 14.8084 76.5415 14.8042 76.5415 14.8C76.5372 14.7958 76.5287 14.7916 76.533 14.7916C76.5287 14.7916 76.5287 14.8 76.5245 14.7958C76.5245 14.7916 76.5245 14.7874 76.5245 14.779L76.55 14.7161C76.5713 14.6699 76.584 14.6321 76.6011 14.5902C76.6308 14.5105 76.6606 14.4308 76.6862 14.351C76.9032 13.7133 77.0819 13.0756 77.2393 12.4295C77.2436 12.4169 77.2351 12.4085 77.2265 12.4043C77.2138 12.4043 77.2053 12.4085 77.201 12.4169Z" fill="#F98364"/>
<path d="M79.1117 19.7216C79.1117 19.7216 76.9331 19.6796 75.3545 20.3258C74.5078 20.6656 73.0866 23.355 72.4739 24.3409C71.8612 25.3269 73.4015 29.2791 73.7674 30.1602C74.3376 31.5363 72.2271 35.8032 70.5038 40.4435C68.8784 44.8237 71.5335 59.6886 71.8016 60.1124C73.5504 60.6704 80.2775 62.2102 84.5836 60.1124C85.9281 56.9531 88.7534 45.6502 87.277 39.8897C85.792 34.1292 82.8305 32.1153 82.9667 29.0106C83.1028 25.9059 84.8516 21.8152 84.3112 20.9719C83.7751 20.1244 80.9498 19.5957 79.1117 19.7216Z" fill="#00A7E8"/>
<path d="M77.6197 18.1876C77.6197 18.1876 78.0282 19.5637 77.6197 20.1931C77.0666 20.3651 75.8496 21.4517 76.9815 22.4251C78.1133 23.3985 79.9429 22.6265 80.4961 21.7664C80.9046 21.1371 80.411 20.3651 79.828 20.1343C79.828 19.505 79.9131 18.5022 79.7685 18.0449C79.3302 18.0995 77.6197 18.1876 77.6197 18.1876Z" fill="#FFB39F"/>
<path d="M78.7471 10.7579C78.9514 10.4935 79.2577 10.3341 79.5811 10.2502C79.7428 10.204 79.913 10.1957 80.0789 10.2041C80.2449 10.2208 80.4108 10.246 80.5683 10.2922C80.8831 10.3761 81.1767 10.4893 81.4576 10.6404C81.7341 10.7956 81.9979 10.9718 82.2022 11.2152C82.2107 11.2236 82.2064 11.2362 82.1979 11.2446C82.1894 11.2487 82.1809 11.2487 82.1724 11.2446C81.9341 11.0599 81.6575 10.9215 81.3725 10.8208C81.0916 10.7159 80.7938 10.6404 80.5044 10.6026C80.2151 10.5649 79.93 10.611 79.6492 10.6362C79.3641 10.6656 79.079 10.7201 78.7642 10.7914H78.7599C78.7471 10.7956 78.7386 10.7872 78.7344 10.7746C78.7429 10.7663 78.7471 10.7621 78.7471 10.7579Z" fill="#2A2627"/>
<path d="M76.0897 10.9692C75.779 10.8978 75.4897 10.8391 75.2046 10.8139C74.9238 10.7888 74.6387 10.7384 74.3494 10.7804C74.06 10.8181 73.7579 10.8936 73.4814 10.9985C73.1963 11.0992 72.9197 11.2335 72.6814 11.4223C72.6729 11.4307 72.6601 11.4265 72.6516 11.4181C72.6474 11.4097 72.6474 11.4013 72.6516 11.3929C72.8559 11.1538 73.1197 10.9734 73.3963 10.8181C73.6771 10.6713 73.9707 10.5538 74.2855 10.4699C74.443 10.4237 74.6089 10.4028 74.7749 10.3818C74.9408 10.3734 75.111 10.3818 75.2727 10.4279C75.5918 10.516 75.8982 10.6755 76.1067 10.9356C76.1152 10.944 76.1109 10.9566 76.1024 10.965C76.1024 10.9692 76.0982 10.9734 76.0897 10.9692Z" fill="#2A2627"/>
<path d="M78.7744 3.81714C76.8597 3.77938 71.5111 5.19329 71.86 10.5804C71.86 10.5804 72.3153 10.3916 73.1961 10.186L73.5663 8.63366L74.0131 10.014C74.4258 9.93848 74.8938 9.86716 75.4215 9.80422L75.681 8.88959L75.9193 9.75388C76.3788 9.71192 76.8767 9.67836 77.4085 9.66157L77.9745 8.15956L78.251 9.64479C78.2808 9.64479 78.3106 9.64479 78.3446 9.64479C78.5999 9.64479 78.851 9.65318 79.0935 9.66997L79.5318 8.5036L79.7615 9.73709C81.3699 9.93429 82.5103 10.3916 82.5103 10.3916L83.1698 8.93994C83.1698 8.93994 82.5315 14.1424 83.6463 15.4766C84.0208 15.2836 85.0292 13.2991 85.1484 12.2083C85.2675 11.1174 86.0717 4.2367 78.7744 3.81714Z" fill="#2B2627"/>
<path d="M75.0039 11.8477C75.0039 11.8477 75.4039 12.0281 75.7188 11.8477C75.7188 11.8477 75.4805 12.1917 75.1699 12.1288C74.855 12.0658 75.0039 11.8477 75.0039 11.8477Z" fill="#790016"/>
<path d="M80.0584 11.7465C80.4371 11.7339 80.7519 12.0276 80.7647 12.3968L80.7902 13.1898C80.803 13.5632 80.5051 13.8736 80.1307 13.8862C79.752 13.8988 79.4371 13.6051 79.4244 13.2359L79.3988 12.4429C79.3861 12.0695 79.6797 11.7591 80.0584 11.7465Z" fill="#2A2627"/>
<path d="M80.4336 11.8477C80.4336 11.8477 80.8336 12.0281 81.1485 11.8477C81.1485 11.8477 80.9102 12.1917 80.5996 12.1288C80.2847 12.0658 80.4336 11.8477 80.4336 11.8477Z" fill="#2A2627"/>
<path d="M80.2332 12.5805C80.4094 12.5805 80.5523 12.4396 80.5523 12.2658C80.5523 12.0921 80.4094 11.9512 80.2332 11.9512C80.0569 11.9512 79.9141 12.0921 79.9141 12.2658C79.9141 12.4396 80.0569 12.5805 80.2332 12.5805Z" fill="white"/>
<path d="M75.1496 12.2678C75.1496 12.4398 75.0092 12.5825 74.8347 12.5825C74.6603 12.5825 74.5156 12.444 74.5156 12.2678C74.5156 12.0958 74.656 11.9531 74.8347 11.9531C75.0092 11.9573 75.1496 12.0958 75.1496 12.2678Z" fill="white"/>
<path d="M72.918 7.57227C72.918 7.57227 73.1435 2.15578 77.8069 1.85789C82.4704 1.56001 83.0576 7.86176 83.0576 7.86176C83.0576 7.86176 78.6111 5.26051 72.918 7.57227Z" fill="#E7F8FF"/>
<path d="M79.5256 16.5041C79.1384 16.4915 77.4023 16.4957 76.6875 17.6453C77.0151 17.918 77.4577 18.0607 78.0491 18.0313C78.9724 17.9936 79.3724 17.0286 79.5256 16.5041Z" fill="#F98364"/>
<path d="M78.1651 2.91406H77.4375V5.51952H78.1651V2.91406Z" fill="#04061F"/>
<path d="M79.1211 4.57682V3.85938L76.4788 3.85937V4.57682H79.1211Z" fill="#04061F"/>
<path d="M78.0467 24.7485C78.0467 25.0338 77.8127 25.2645 77.5234 25.2645C77.234 25.2645 77 25.0338 77 24.7485C77 24.4632 77.234 24.2324 77.5234 24.2324C77.817 24.2366 78.0467 24.4674 78.0467 24.7485Z" fill="white"/>
<path d="M78.0467 27.8774C78.0467 28.1627 77.8127 28.3934 77.5234 28.3934C77.234 28.3934 77 28.1627 77 27.8774C77 27.5921 77.234 27.3613 77.5234 27.3613C77.817 27.3655 78.0467 27.5963 78.0467 27.8774Z" fill="white"/>
<path d="M75.4174 41.1171C80.4638 40.3409 84.4932 38.1844 86.3144 37.0012C85.8123 35.7929 85.2676 34.7901 84.7656 33.8965C81.8722 35.0587 76.2726 37.232 73.0175 38.0501C72.3112 38.2263 71.69 38.4739 71.1496 38.7675C70.9326 39.3172 70.7156 39.8794 70.5071 40.4458C70.2603 41.1087 70.1114 42.0149 70.0391 43.0722C71.3964 42.7156 73.0303 41.8093 75.4174 41.1171Z" fill="#00A7E8"/>
<path d="M87.8463 32.6056L87.757 31.7371L87.6463 30.9525C87.4846 29.9162 87.2719 28.9093 87.0421 27.9191C86.8124 26.9248 86.5571 25.9472 86.2847 24.9738C86.0124 23.9962 85.7316 23.0438 85.4167 22.0537C85.4167 22.0537 84.8083 20.4258 82.9956 20.8957C81.183 21.3656 81.7021 23.3249 81.7021 23.3249C82.034 24.206 82.3616 25.1332 82.668 26.0479C82.9744 26.9667 83.2637 27.8855 83.5318 28.8044C83.7956 29.7232 84.0381 30.6462 84.2296 31.5525L84.3615 32.2322L84.4125 32.5552C84.3828 32.5846 84.353 32.614 84.3147 32.6433C84.0551 32.8657 83.6935 33.1048 83.3105 33.3272C82.9276 33.5496 82.5148 33.7635 82.0936 33.9691C81.2468 34.3761 80.3576 34.7495 79.4555 35.0977C78.5534 35.446 75.009 36.7088 74.158 36.9312C74.0857 36.8976 74.0134 36.8641 73.9325 36.8431C73.9325 36.8431 73.2134 36.1802 72.6475 36.2977C72.0816 36.4151 71.3625 36.0669 71.1285 36.155C70.8945 36.2431 71.4519 37.078 72.2986 37.1074C72.6475 37.1368 72.0944 37.8584 70.8392 37.7409C69.5839 37.6277 69.2903 37.4766 69.0861 37.7535C68.8819 38.0304 68.9414 39.5325 69.9754 39.9226C71.0136 40.3086 72.8815 40.4597 74.7325 38.9157C75.6941 38.7521 82.4467 37.2417 83.4211 36.8263C83.9105 36.6165 84.3955 36.3942 84.8891 36.1382C85.3827 35.8781 85.8763 35.597 86.3996 35.2026C86.6592 35.0012 86.9315 34.7705 87.2166 34.4222C87.357 34.246 87.5102 34.0279 87.6378 33.7384C87.6719 33.6628 87.7016 33.5915 87.7272 33.5034C87.7527 33.4153 87.7782 33.3356 87.7995 33.2349C87.8165 33.1384 87.8335 33.0419 87.8421 32.9328C87.8506 32.8028 87.8548 32.6937 87.8463 32.6056Z" fill="#FFB39F"/>
<path opacity="0.5" d="M87.1832 28.5453C87.1364 28.3355 87.0896 28.1257 87.0428 27.9159C86.9322 27.4418 86.8173 26.9761 86.6981 26.5062C86.4088 26.2503 86.1365 26.0699 85.9918 26.0321C85.7748 25.9776 84.1366 26.4013 82.8984 26.737C83.1197 27.425 83.3367 28.1089 83.5324 28.797C83.7154 29.4263 83.8813 30.0557 84.0345 30.685C85.4982 30.2697 86.5875 29.2375 87.1832 28.5453Z" fill="#FFB39F"/>
<path d="M82.3304 28.3279C82.3304 28.3279 84.543 28.8482 87.3598 26.9979C87.3598 26.9979 87.1258 20.0458 82.9644 20.457C81.2624 20.6961 80.4114 22.6639 82.3304 28.3279Z" fill="#00A7E8"/>
<path d="M71 55.9141C71.3659 58.2804 71.7106 59.9754 71.7999 60.1139C73.5487 60.6719 80.2759 62.2116 84.5819 60.1139C85.4882 57.9867 87.0668 52.159 87.5476 46.8223C85.4414 50.1536 80.1652 56.5518 71 55.9141Z" fill="#00A7E8"/>
<path d="M43.9864 29.3418C43.8077 30.9823 43.7268 32.4759 43.4162 33.8101C43.2631 34.4688 43.0673 35.0897 42.7908 35.6016C42.7227 35.7317 42.6546 35.8617 42.5695 35.975L42.5099 36.0631C42.4929 36.0925 42.4674 36.1302 42.4589 36.1386C42.4333 36.1638 42.4206 36.2016 42.395 36.2267C42.3014 36.3358 42.1823 36.4281 41.9951 36.5162C41.6164 36.6841 40.9952 36.7554 40.3314 36.7218C39.6591 36.6882 36.6891 35.8995 35.8807 35.7023L33.7915 35.0226C33.7617 34.6114 33.6425 34.1709 33.3234 33.873C32.732 33.3192 32.2044 33.68 31.9661 33.9192C31.7491 33.7723 30.3705 32.8871 29.9747 32.9794C29.5748 33.0717 29.1535 33.4199 29.0642 33.7891C28.9748 34.1583 29.2854 34.1625 29.1833 34.5947C29.0855 35.0268 28.9493 35.1107 28.8131 35.4925C28.677 35.8701 28.9578 36.0631 28.9153 36.3232C28.877 36.5834 28.7451 36.6379 28.6429 36.9819C28.5408 37.326 29.7152 37.8756 30.7492 38.1315C31.7831 38.3875 32.6426 37.9637 32.6426 37.9637C32.7575 37.9092 32.8596 37.8252 32.9575 37.7204L35.1828 38.442C35.9062 38.677 36.6849 38.9455 37.489 39.1762C38.2975 39.4112 39.1357 39.6168 40.0548 39.7342C40.9696 39.8391 41.9823 39.8811 43.1099 39.5203C43.6673 39.3357 44.246 39.021 44.7225 38.5763C44.8459 38.4714 44.948 38.3455 45.0587 38.228C45.1182 38.1651 45.148 38.1189 45.1906 38.0686L45.3054 37.9176C45.4671 37.7204 45.6033 37.5106 45.7352 37.305C46.2713 36.4659 46.6117 35.589 46.8798 34.7373C47.4032 33.0297 47.6031 31.3808 47.8797 29.9166L43.9864 29.3418Z" fill="#FBA486"/>
<path opacity="0.5" d="M44.7219 38.5679C44.8453 38.463 44.9474 38.3371 45.0581 38.2196C45.1176 38.1567 45.1474 38.1105 45.19 38.0602L45.3048 37.9092C45.4665 37.712 45.6027 37.5022 45.7346 37.2966C46.2707 36.4575 46.6111 35.5806 46.8792 34.7289C47.4025 33.0213 47.6025 31.3725 47.8791 29.9082L43.9815 29.3418C43.8028 30.9823 43.722 32.4759 43.4114 33.8101C43.4029 33.852 43.3901 33.8898 43.3816 33.9318C43.6837 34.9932 43.9901 36.2561 43.9347 36.8729C43.8369 37.9595 42.5306 39.1343 39.7266 39.6755C39.8329 39.6923 39.9393 39.7091 40.0457 39.7258C40.9605 39.8307 41.9732 39.8727 43.1008 39.5119C43.6667 39.3273 44.2454 39.0126 44.7219 38.5679Z" fill="#FBA486"/>
<path d="M64.9545 27.5039C65.2821 29.0689 65.5629 30.5919 65.8225 32.1526C65.9501 32.9288 66.0693 33.7134 66.1714 34.5021C66.2225 34.8965 66.2693 35.2951 66.3161 35.6937L66.3756 36.2978L66.4224 36.9272C66.5118 38.5844 66.4522 40.1662 66.3544 41.7395C66.2565 43.317 66.1118 44.861 65.9246 46.4343L63.4397 46.2413C63.478 44.7393 63.478 43.1996 63.4355 41.6891C63.3886 40.1787 63.2993 38.6683 63.0908 37.2544L63.0014 36.7342L62.8951 36.1929C62.8227 35.8279 62.7461 35.4671 62.661 35.0979C62.4951 34.3679 62.3164 33.6336 62.1249 32.8994C61.7462 31.4394 61.325 29.9583 60.8867 28.5276L64.9545 27.5039Z" fill="#FBA486"/>
<path opacity="0.5" d="M63.6737 32.9665C63.7078 32.3372 64.8821 31.3848 65.6012 30.8646C65.4055 29.7443 65.1928 28.6325 64.9545 27.5039L60.8867 28.536C61.325 29.9667 61.7462 31.4477 62.1249 32.9078C62.3164 33.642 62.4994 34.3721 62.661 35.1063C62.7461 35.4713 62.8227 35.8363 62.8951 36.2013L63.0014 36.7426L63.0908 37.2628C63.2993 38.6767 63.3886 40.1871 63.4355 41.6975C63.4397 41.8989 63.444 42.1003 63.4482 42.3017C63.8099 40.8626 64.2184 39.0124 64.2099 38.06C64.1928 36.3608 63.6227 33.8728 63.6737 32.9665Z" fill="#FBA486"/>
<path d="M52.5012 78.7068C52.0927 78.0439 51.9438 77.381 51.9438 77.381C51.9438 77.381 52.1778 75.279 52.0587 74.7C51.9438 74.356 49.1781 75.0063 49.1781 75.0063C49.1781 75.0063 49.4589 76.3447 49.3695 77.2384C49.1057 78.4509 48.025 79.5459 46.7698 79.8019C45.5145 80.062 43.4977 80.6074 44.6933 81.2703C46.4762 82.164 50.8035 81.1822 52.0927 80.9263C53.382 80.6703 52.9097 79.3697 52.5012 78.7068Z" fill="#FBA486"/>
<path d="M53.5139 47.4186C53.3394 49.6926 53.2075 52.0338 53.0969 54.3497C52.9862 56.6699 52.9054 58.9942 52.8501 61.3144C52.7948 63.6345 52.7863 65.9547 52.8033 68.2706C52.8288 70.5866 52.9054 73.3179 53.033 75.6129C53.033 75.6129 52.6118 76.1919 50.8375 76.3597C49.0631 76.5275 48.5398 76.0492 48.5398 76.0492C48.2249 73.6745 47.9739 70.8803 47.7696 68.5056C47.5739 66.1351 47.4122 63.7646 47.2888 61.3983C47.1654 59.0278 47.0761 56.6615 47.0122 54.291C46.9484 51.9163 46.9101 49.5668 46.9144 47.1543L53.5139 47.4186Z" fill="#00A7E8"/>
<path d="M52.8939 79.9112C51.7493 80.1504 49.4134 80.6077 48.7623 80.549C48.5241 79.8567 48.1113 79.521 47.7071 79.3574C47.3837 79.5504 47.0391 79.6931 46.6731 79.7686C45.3541 80.0413 43.2309 80.6161 44.4903 81.3126C46.3625 82.2524 50.9111 81.2203 52.2684 80.9475C52.8514 80.8301 53.0897 80.5112 53.1407 80.1294C53.1577 79.9952 53.0301 79.8819 52.8939 79.9112Z" fill="#4D93B8"/>
<path opacity="0.5" d="M53.5014 47.6016C53.4461 47.5386 53.3908 47.4757 53.3312 47.4086L46.9104 47.1484C46.9062 49.5609 46.9487 51.9104 47.0083 54.2851C47.0168 54.5243 47.0253 54.7634 47.0338 55.0026C48.4125 54.4991 50.8846 53.7271 53.1227 53.7313C53.2291 51.6839 53.3525 49.6196 53.5014 47.6016Z" fill="#0185B9"/>
<path d="M60.5598 78.7068C60.1513 78.0439 60.0024 77.381 60.0024 77.381C60.0024 77.381 60.2364 75.279 60.1173 74.7C60.0024 74.356 57.2367 75.0063 57.2367 75.0063C57.2367 75.0063 57.5175 76.3447 57.4281 77.2384C57.1643 78.4509 56.0836 79.5459 54.8283 79.8019C53.5731 80.062 51.5563 80.6074 52.7519 81.2703C54.5348 82.164 58.8621 81.1822 60.1513 80.9263C61.4406 80.6703 60.9683 79.3697 60.5598 78.7068Z" fill="#FBA486"/>
<path d="M61.5799 47.4183C61.4055 49.6923 61.2736 52.0335 61.1629 54.3494C61.0523 56.6696 60.9715 58.9939 60.9161 61.3141C60.8608 63.6342 60.8523 65.9544 60.8693 68.2703C60.8949 70.5863 61.0523 73.326 61.1842 75.6252C61.1842 75.6252 60.5332 76.1035 58.9886 76.3175C57.4398 76.5314 56.6952 76.0615 56.6952 76.0615C56.3803 73.6868 56.0442 70.88 55.8399 68.5095C55.6442 66.139 55.4825 63.7685 55.3591 61.4022C55.2357 59.0317 55.1464 56.6654 55.0826 54.2949C55.0187 51.9202 54.9804 49.5707 54.9847 47.1582L61.5799 47.4183Z" fill="#00A7E8"/>
<path d="M61.0742 80.0302C59.9551 80.2651 57.3851 80.777 56.6873 80.714C56.4235 79.9463 55.947 79.598 55.5002 79.4512C55.2364 79.5812 54.9598 79.6819 54.6747 79.7407C53.3174 80.0218 51.1346 80.6133 52.4323 81.3308C54.3599 82.2958 59.0361 81.2385 60.4317 80.9574C60.9551 80.8525 61.2061 80.5882 61.2997 80.2609C61.3338 80.1267 61.2146 80.0008 61.0742 80.0302Z" fill="#4D93B8"/>
<path opacity="0.5" d="M55.0659 53.7649C56.5679 53.232 59.6826 52.4726 61.2782 52.095C61.3633 50.5259 61.4612 48.9525 61.5803 47.417L54.9766 47.1484C54.9766 49.3889 55.0149 51.5664 55.0659 53.7649Z" fill="#0185B9"/>
<path d="M26.5997 18.9662H23.1021C22.1235 18.9662 21.332 18.1858 21.332 17.2209V9.92895C21.332 8.96397 22.1235 8.18359 23.1021 8.18359H26.5997C27.5783 8.18359 28.3698 8.96397 28.3698 9.92895V17.2251C28.3698 18.1858 27.5783 18.9662 26.5997 18.9662Z" fill="#CEEBF0"/>
<path d="M25.7495 7.16744C25.6857 6.20245 24.8517 6.24441 24.8517 6.24441C24.8517 6.24441 24.0177 6.20245 23.9539 7.16744C23.5837 7.43176 22.7795 7.93103 22.8135 8.5268C23.3837 8.5268 24.8517 8.5268 24.8517 8.5268C24.8517 8.5268 26.3197 8.5268 26.8898 8.5268C26.9239 7.93103 26.1197 7.43176 25.7495 7.16744Z" fill="#CEEBF0"/>
<path d="M56.0969 17.9824L56.3182 19.8243C56.3182 19.8243 57.5479 20.4494 57.8329 20.9948C58.118 21.5403 53.9013 24.7499 53.9013 24.7499C53.9013 24.7499 51.6334 21.062 51.5781 20.7263C52.0334 20.5543 52.978 19.9376 52.978 19.9376C52.978 19.9376 53.1227 18.725 52.9227 18.0244C53.6035 18.0789 56.0969 17.9824 56.0969 17.9824Z" fill="#FBA486"/>
<path d="M65.8664 29.8633C65.0452 21.3001 60.0584 20.7253 60.0584 20.7253C59.4329 20.4778 57.7862 20.0918 57.7862 20.0918L53.8418 23.5196C53.8418 23.5196 52.4717 20.8218 52.2037 20.0918C51.2037 20.1883 50.1825 20.5785 49.3103 21.0022C49.3103 20.998 49.3103 20.998 49.3103 20.9938C49.3103 20.9938 43.915 21.963 43.0938 30.5262C43.5916 30.8073 44.9319 31.1178 46.0935 31.3527C45.3021 38.7999 44.6511 48.1392 44.6 50.0272C51.7314 52.4858 61.871 50.7908 63.1602 50.0272C63.4113 48.0973 62.4412 38.909 61.5178 31.315C62.7986 30.9499 65.1771 30.2493 65.8664 29.8633Z" fill="#01B8FF"/>
<path d="M32.0297 4.08398H30.7617V76.5751H32.0297V4.08398Z" fill="#3E4F8E"/>
<path d="M39.0339 79.8869H37.7659V77.9569C37.7659 77.5374 37.4213 77.1975 36.9958 77.1975H25.7881C25.3626 77.1975 25.018 77.5374 25.018 77.9569V79.8869H23.75V77.9569C23.75 76.8493 24.6648 75.9473 25.7881 75.9473H36.9958C38.1191 75.9473 39.0339 76.8493 39.0339 77.9569V79.8869Z" fill="#3E4F8E"/>
<path d="M37.8635 8.09712C37.1104 8.09712 36.4976 7.49296 36.4976 6.75034V5.72662C36.4976 5.03435 35.9275 4.47214 35.2254 4.47214H27.609C26.9069 4.47214 26.341 5.03435 26.341 5.72662V6.75034C26.341 7.49296 25.7283 8.09712 24.9752 8.09712H24.6901C23.9369 8.09712 23.3242 7.49296 23.3242 6.75034V6.24268C23.3242 5.98675 23.537 5.77697 23.7965 5.77697C24.0561 5.77697 24.2688 5.98675 24.2688 6.24268V6.75034C24.2688 6.9811 24.4603 7.1657 24.6901 7.1657H24.9752C25.2092 7.1657 25.3964 6.9769 25.3964 6.75034V5.72662C25.3964 4.52249 26.3878 3.54492 27.609 3.54492H35.2254C36.4466 3.54492 37.438 4.52249 37.438 5.72662V6.75034C37.438 6.9811 37.6295 7.1657 37.8592 7.1657C38.0933 7.1657 38.2805 6.9769 38.2805 6.75034V6.09164C38.2805 5.83571 38.4932 5.62593 38.7528 5.62593C39.0123 5.62593 39.2251 5.83571 39.2251 6.09164V6.75034C39.2293 7.49296 38.6166 8.09712 37.8635 8.09712Z" fill="#3E4F8E"/>
<path d="M32.0297 76.5723H30.7617V80.7049H32.0297V76.5723Z" fill="#3E4F8E"/>
<path d="M21.8398 17.2258V9.92548C21.8398 9.23741 22.4058 8.68359 23.0993 8.68359H26.6012C27.299 8.68359 27.8606 9.24161 27.8606 9.92548V17.2258C27.8606 17.9139 27.2947 18.4677 26.6012 18.4677H23.0993C22.4015 18.4677 21.8398 17.9139 21.8398 17.2258Z" fill="#8ADAE2"/>
<path d="M26.5306 18.7793H25.6328V21.9218H26.5306V18.7793Z" fill="#CEEBF0"/>
<path d="M38.4076 82.4132C39.364 82.4132 40.1393 81.6487 40.1393 80.7056C40.1393 79.7626 39.364 78.998 38.4076 78.998C37.4511 78.998 36.6758 79.7626 36.6758 80.7056C36.6758 81.6487 37.4511 82.4132 38.4076 82.4132Z" fill="#3E4F8E"/>
<path d="M33.1276 81.5963C33.1276 82.5403 32.3532 83.3039 31.3958 83.3039C30.4385 83.3039 29.6641 82.5403 29.6641 81.5963C29.6641 80.6523 30.4385 79.8887 31.3958 79.8887C32.3532 79.8887 33.1276 80.6565 33.1276 81.5963Z" fill="#3E4F8E"/>
<path d="M24.3919 82.4132C25.3484 82.4132 26.1237 81.6487 26.1237 80.7056C26.1237 79.7626 25.3484 78.998 24.3919 78.998C23.4355 78.998 22.6602 79.7626 22.6602 80.7056C22.6602 81.6487 23.4355 82.4132 24.3919 82.4132Z" fill="#3E4F8E"/>
<path d="M32.035 33.858C32.035 33.858 30.9585 34.9447 31.5883 35.4104C32.218 35.8803 32.9499 34.8901 33.052 34.7013C33.1541 34.5125 32.7371 33.5098 32.035 33.858Z" fill="#FBA486"/>
<path d="M30.7641 33.2148C30.7641 33.2148 31.6236 34.0246 31.2662 34.5742C31.0748 34.7169 30.7641 34.8763 30.9258 35.1238C31.0875 35.3714 31.496 35.5602 31.3513 36.0427C31.2067 36.5252 30.9258 36.3615 30.879 36.6426C30.8365 36.9195 31.2747 37.23 31.2194 37.5489C31.1599 37.8677 30.6578 38.044 30.394 37.8258C30.1302 37.5992 29.3132 33.7687 30.7641 33.2148Z" fill="#FBA486"/>
<path d="M26.7409 19.5605H25.4219V21.1381H26.7409V19.5605Z" fill="#4C98CB"/>
<path d="M32.4035 45.3254H30.859C28.1018 45.3254 25.8594 43.1144 25.8594 40.3956V21.7589C25.8594 21.6414 25.9572 21.5449 26.0764 21.5449C26.1955 21.5449 26.2934 21.6414 26.2934 21.7589V40.3956C26.2934 42.8794 28.3443 44.8975 30.859 44.8975H32.4035C34.9225 44.8975 36.9691 42.8752 36.9691 40.3956V38.4573C36.9691 37.9874 36.684 37.5678 36.2458 37.3874L35.0969 36.9972C34.9863 36.9595 34.9267 36.8378 34.965 36.7287C35.0033 36.6196 35.1267 36.5609 35.2374 36.5986L36.399 36.993C37.0117 37.2448 37.3989 37.8196 37.3989 38.4615V40.3998C37.4031 43.1144 35.1608 45.3254 32.4035 45.3254Z" fill="#CEEBF0"/>
<path d="M36.194 36.3784L35.7344 36.2012L35.1672 37.6313L35.6269 37.8085L36.194 36.3784Z" fill="#9F73A1"/>
<path d="M37.1198 36.7319L36.6602 36.5547L36.0931 37.9848L36.5528 38.162L37.1198 36.7319Z" fill="#9F73A1"/>
<path d="M24.8524 11.3402C23.7333 10.522 22.6057 10.6311 21.8398 10.8829V17.4196C21.8398 18.0027 22.3164 18.4727 22.9078 18.4727H26.7969C27.3883 18.4727 27.8649 18.0027 27.8649 17.4196V11.7304C27.0139 11.9947 25.8778 12.0912 24.8524 11.3402Z" fill="#4C98CB"/>
<path d="M26.8891 10.0371H22.8086V11.9125H26.8891V10.0371Z" fill="white"/>
<path d="M26.8891 14.0664H22.8086V17.0159H26.8891V14.0664Z" fill="#FFEBC6"/>
<path d="M24.6335 10.4219H23.1953V10.6946H24.6335V10.4219Z" fill="#F05B82"/>
<path d="M26.2632 11.1582H23.1953V11.4309H26.2632V11.1582Z" fill="#F05B82"/>
<path d="M26.527 14.5801H23.1953V14.8528H26.527V14.5801Z" fill="#F05B82"/>
<path d="M26.527 15.2656H23.1953V15.5383H26.527V15.2656Z" fill="#F05B82"/>
<path d="M26.527 15.9492H23.1953V16.2219H26.527V15.9492Z" fill="#F05B82"/>
<path d="M53.8461 23.5176C53.6717 24.6252 53.4972 25.7286 53.3568 26.8363L53.1398 28.4977L52.9398 30.1634C52.6888 32.3828 52.4845 34.6065 52.3399 36.8343C52.1782 39.0622 52.1101 41.2942 52.0846 43.5221L52.0803 45.1961C52.0846 45.7541 52.1058 46.3121 52.1186 46.8702L52.1314 47.7093L52.1739 48.5442C52.208 49.1022 52.2335 49.6602 52.2548 50.2182C51.9739 47.9988 51.774 45.7625 51.7442 43.5221C51.7186 42.9599 51.7272 42.4019 51.7314 41.8397C51.7399 41.2775 51.7272 40.7194 51.7527 40.1572L51.8123 38.479C51.8335 37.921 51.8761 37.3588 51.9101 36.8008C52.0633 34.5645 52.2888 32.3325 52.6079 30.1172C52.9228 27.9062 53.3228 25.6993 53.8461 23.5176Z" fill="#00A7E8"/>
<path opacity="0.5" d="M61.5155 31.3135L60.1496 27.5039V36.8097C60.1496 37.5104 59.8305 38.1775 59.2816 38.6264L57.2775 40.4431L59.2305 40.9969C60.0773 41.236 60.5964 42.0961 60.3751 42.9352C59.7284 45.4442 56.8818 49.967 44.653 48.8174C44.6232 49.3503 44.6019 49.7656 44.5977 50.03C51.729 52.4886 61.8686 50.7936 63.1579 50.03C63.4089 48.1 62.4388 38.9075 61.5155 31.3135Z" fill="#0097D1"/>
<path d="M65.9256 46.4351C65.9256 46.4351 66.6362 47.0644 66.7893 48.1049C66.9383 49.1454 66.717 50.446 66.3596 50.4838C65.9979 50.5215 65.9001 50.4208 65.6405 50.4838C65.3809 50.5467 65.3086 50.874 64.9001 50.8949C64.4917 50.9117 64.364 50.8236 63.9172 50.8949C63.4705 50.9663 63.5853 51.2474 63.2067 51.3103C62.8237 51.369 62.3386 51.1131 62.1046 50.7859C61.8663 50.4586 62.1769 48.8685 62.2323 48.6126C61.9174 48.4867 61.3813 48.1385 61.6749 47.3874C61.9727 46.6364 62.9896 46.326 63.4449 46.2421C63.896 46.1623 65.398 45.961 65.9256 46.4351Z" fill="#FBA486"/>
<path opacity="0.5" d="M56.2581 19.3376L56.0964 17.9824C56.0964 17.9824 53.603 18.0789 52.918 18.0202C52.986 18.2551 53.0116 18.5488 53.0201 18.8341C53.6498 18.9894 54.7902 19.2327 56.1007 19.3292C56.156 19.3376 56.2071 19.3376 56.2581 19.3376Z" fill="#FBA486"/>
<path d="M59.9426 8.77154C59.449 4.86966 56.2705 3.60259 53.3729 3.71587C51.922 3.77041 50.9348 4.21095 50.2029 4.80253C49.1477 5.65423 48.5435 6.93388 48.4371 8.27227C48.2244 10.8651 48.1648 15.8747 49.637 17.1291C51.5773 18.7822 56.1599 19.1094 58.7257 17.1291C60.0617 15.8621 60.4319 12.6734 59.9426 8.77154Z" fill="#FBA486"/>
<path d="M59.5805 11.4039C59.5805 11.4039 60.1506 10.1704 61.4399 10.4683C62.7291 10.7662 62.1462 13.4262 60.8825 13.9506C59.6188 14.4751 59.1252 13.1702 59.5805 11.4039Z" fill="#FBA486"/>
<path d="M48.9476 11.4039C48.9476 11.4039 48.3774 10.1704 47.0882 10.4683C45.7989 10.7662 46.3818 13.4262 47.6456 13.9506C48.9093 14.4751 49.4029 13.1702 48.9476 11.4039Z" fill="#FBA486"/>
<path d="M49.3915 7.10594C49.3915 7.10594 50.1617 7.79821 52.5785 7.66815C52.119 6.96748 51.8254 6.14515 51.8254 6.14515C51.8254 6.14515 53.6125 7.87373 56.8548 7.91568C57.6122 7.91568 57.8377 7.91568 57.8377 7.91568L57.4207 6.39269C57.4207 6.39269 58.4461 7.17307 58.7355 8.13805C59.0291 9.11142 59.1652 11.4148 59.9311 12.4469C60.863 11.1295 61.5097 8.61635 61.3863 6.22487C61.2629 3.83339 59.4716 2.6838 59.4716 2.6838C59.4716 2.6838 60.1396 2.06705 60.9353 2.14677C60.9353 2.14677 60.1822 1.51324 58.9312 2.13838C58.8461 1.15661 57.3143 -0.0349319 56.0931 0.00282831C56.2506 0.577622 56.4591 1.32024 56.4591 1.32024C56.4591 1.32024 50.0723 -0.664268 47.7363 3.37607C46.9832 4.98298 45.7705 9.85404 48.4852 12.2455C49.2766 10.6302 49.6298 7.85275 49.3915 7.10594Z" fill="#3D3D3D"/>
<path d="M57.5908 11.1313C57.5781 10.7243 57.2334 10.4097 56.8249 10.4222C56.4122 10.4348 56.0931 10.7747 56.1058 11.1774L56.1356 12.0417C56.1484 12.4487 56.493 12.7634 56.9015 12.7508C57.3143 12.7382 57.6334 12.3984 57.6206 11.9956L57.5908 11.1313Z" fill="#3D3D3D"/>
<path d="M52.126 11.1313C52.1132 10.7243 51.7686 10.4097 51.3601 10.4222C50.9473 10.4348 50.6282 10.7747 50.641 11.1774L50.6708 12.0417C50.6835 12.4487 51.0282 12.7634 51.4367 12.7508C51.8494 12.7382 52.1685 12.3984 52.1558 11.9956L52.126 11.1313Z" fill="#3D3D3D"/>
<path d="M54.0307 11.1172L53.5924 12.1116C53.4477 12.443 53.3031 12.7745 53.1499 13.0933C53.1116 13.1731 53.069 13.2528 53.0265 13.3283C53.0052 13.366 52.9839 13.4038 52.9627 13.4374L52.9286 13.4877C52.9116 13.5213 52.8946 13.559 52.8776 13.5968C52.852 13.6765 52.852 13.7814 52.8861 13.8611C52.8988 13.9073 52.9244 13.9366 52.9457 13.9702C52.9669 14.0038 52.9925 14.0331 53.018 14.0499C53.1158 14.1464 53.218 14.1842 53.3158 14.2261C53.5158 14.2933 53.7073 14.3268 53.903 14.331C54.0945 14.3352 54.2902 14.3184 54.4774 14.2471C54.4902 14.2429 54.4945 14.2303 54.4902 14.2177C54.486 14.2094 54.4817 14.2052 54.4732 14.2052C54.1158 14.0961 53.7754 13.9828 53.4903 13.836C53.4265 13.7982 53.3584 13.7604 53.3286 13.7269C53.3158 13.7185 53.3116 13.7101 53.3073 13.7059C53.3031 13.7017 53.2946 13.6975 53.2988 13.6975C53.2946 13.6975 53.2946 13.7059 53.2903 13.7017C53.2903 13.6975 53.2903 13.6933 53.2903 13.6849L53.3201 13.6178C53.3414 13.5716 53.3584 13.5255 53.3754 13.4835C53.4094 13.3954 53.4392 13.3073 53.469 13.2192C53.7073 12.5269 53.8988 11.8347 54.0732 11.1298C54.0775 11.1172 54.069 11.1088 54.0562 11.1046C54.0434 11.1004 54.0307 11.1088 54.0307 11.1172Z" fill="#F98364"/>
<path d="M54.1087 15.6696C54.1087 15.6696 52.7259 15.6444 52.2578 15.4766C52.4323 15.9381 52.6535 16.5716 54.1087 16.5716C55.5682 16.5716 55.7894 15.9381 55.9596 15.4766C55.4916 15.6444 54.1087 15.6696 54.1087 15.6696Z" fill="#F98364"/>
<path d="M58.2898 9.96461C58.1749 9.96461 58.0643 9.90587 58.0047 9.79679C57.9962 9.7842 57.7281 9.34366 56.9154 9.27653C56.1112 9.20941 55.8389 9.47792 55.8389 9.48212C55.724 9.61638 55.524 9.63316 55.3879 9.51988C55.2517 9.4066 55.2347 9.20101 55.3496 9.06676C55.3964 9.01221 55.8219 8.54231 56.975 8.643C58.1493 8.7395 58.5621 9.46114 58.5791 9.4947C58.6642 9.64994 58.6046 9.84294 58.4472 9.92685C58.3919 9.95202 58.3408 9.96461 58.2898 9.96461Z" fill="#3D3D3D"/>
<path d="M50.0508 9.96461C50.1657 9.96461 50.2763 9.90587 50.3359 9.79679C50.3444 9.7842 50.6125 9.34366 51.4252 9.27653C52.2294 9.20941 52.5017 9.47792 52.5017 9.48212C52.6166 9.61638 52.8166 9.63316 52.9527 9.51988C53.0889 9.4066 53.1059 9.20101 52.991 9.06676C52.9442 9.01221 52.5187 8.54231 51.3656 8.643C50.1912 8.7395 49.7785 9.46114 49.7615 9.4947C49.6764 9.64994 49.736 9.84294 49.8934 9.92685C49.9487 9.95202 49.9998 9.96461 50.0508 9.96461Z" fill="#3D3D3D"/>
<path d="M57.4354 10.9961C57.4354 11.1849 57.2822 11.3359 57.0907 11.3359C56.8993 11.3359 56.7461 11.1849 56.7461 10.9961C56.7461 10.8073 56.8993 10.6562 57.0907 10.6562C57.2822 10.6562 57.4354 10.8115 57.4354 10.9961Z" fill="white"/>
<path d="M51.9237 10.9961C51.9237 11.1849 51.7705 11.3359 51.579 11.3359C51.3876 11.3359 51.2344 11.1849 51.2344 10.9961C51.2344 10.8073 51.3876 10.6562 51.579 10.6562C51.7663 10.6562 51.9237 10.8115 51.9237 10.9961Z" fill="white"/>
<path opacity="0.5" d="M58.7396 8.13793C59.0332 9.1113 59.1694 11.4147 59.9353 12.4468C60.7097 11.3559 61.2841 9.44275 61.3862 7.45824C59.6459 7.79389 56.7398 4.80664 56.7398 4.80664C56.7398 4.80664 56.093 5.5996 56.2505 6.22894C55.6037 6.48907 52.1955 5.50311 51.2253 4.80664C50.8594 5.07096 50.9871 6.22894 50.9871 6.22894C50.2807 6.5562 48.7021 5.82617 48.7021 5.82617C48.7021 5.82617 48.7702 8.05402 48.132 8.31834C47.7065 8.43162 47.1788 7.87361 46.8087 7.38272C46.7236 9.14067 47.081 11.0203 48.4766 12.2496C49.2723 10.6343 49.6212 7.85682 49.3829 7.11001C49.3829 7.11001 50.1531 7.80228 52.5699 7.67222C52.1104 6.97156 51.8168 6.14922 51.8168 6.14922C51.8168 6.14922 53.6039 7.8778 56.8462 7.91976C57.6035 7.91976 57.8291 7.91976 57.8291 7.91976L57.4121 6.39676C57.4248 6.39257 58.4503 7.17295 58.7396 8.13793Z" fill="#3D3D3D"/>
<path opacity="0.5" d="M44.0586 30.8789C44.6585 31.0509 45.4032 31.2145 46.0925 31.353C46.0925 31.353 46.5052 27.8497 47.2498 26.0078C45.9478 27.4763 44.599 29.8677 44.0586 30.8789Z" fill="#00A7E8"/>
</svg>
